M48
;Layer_Color=9474304
;FILE_FORMAT=2:5
INCH,LZ
;TYPE=PLATED
T1F00S00C0.01200
T3F00S00C0.03543
T4F00S00C0.05118
T5F00S00C0.12000
%
T01
X-0011Y00315
X-00205Y0048
X-00162Y0068
X-00196Y0074
X-0019Y0086
X-0014
X-00182Y0099
X-00212Y01012
X-00255Y01003
X-00304Y01006
X-00336Y00952
X-00416Y0095
X-00478Y00916
X-00463Y01063
X-00462Y01117
X-00507Y01141
X-00521Y01083
X-00573Y01053
X-00587Y01241
X-0065Y01204
X-0069Y01265
X-0073Y0134
X-0075Y014
X-007
X-0065
X-006
X-0055
X-005
X-0045
X-004
X-0035
X-003
X-0021
X-0014
X-00075
X-0001
X0003Y0148
X-00024Y0121
X00004Y01074
X00042Y01095
X0009Y01047
X00075Y00945
Y0091
X-0004Y0077
X-00164Y01082
X-00195
X-00312Y0112
X-00302Y01175
X-00354Y01167
X-00406Y01201
X-00443Y01245
X-00479Y01297
X-00547Y0131
X-00212Y01314
X-00263Y01221
X00195Y01241
X00264
X00272Y01167
X00194
X00119Y01116
X0027Y0107
Y00842
X00246Y00856
X00223Y00869
X00174Y00875
X00161Y00851
X00149Y00827
X00136Y00803
X00464Y00882
X00538Y01027
X00585Y0112
X0065Y01225
X00718Y01324
X00772Y01413
X008Y015
X007Y0166
X006
X005
X004
X0038Y0159
Y0154
Y0149
Y0144
Y0139
X0044
Y0144
Y0149
Y0154
Y0159
X003Y0166
X002
X001
X00125Y0148
X00155
X00131Y01433
X00197Y01423
X00277Y01403
X00271Y0132
X00194Y01323
X00369Y01234
X0061Y01389
X00635Y01401
T03
X-0025833Y0057368
X-0034691Y0072711
X00365Y008784
X00415Y00965
X0053Y011634
X0058Y0125
T04
X-0014848Y0058027
X-0028628Y0081894
T05
X0Y002
Y01605
X00812
M30
