G04*
G04 #@! TF.GenerationSoftware,Altium Limited,Altium Designer,20.2.8 (258)*
G04*
G04 Layer_Color=8388736*
%FSLAX25Y25*%
%MOIN*%
G70*
G04*
G04 #@! TF.SameCoordinates,CDCB3E45-2178-442F-9089-F16855EB5547*
G04*
G04*
G04 #@! TF.FilePolarity,Negative*
G04*
G01*
G75*
%ADD32R,0.30800X0.15700*%
%ADD33R,0.40500X0.03300*%
%ADD34R,0.03200X0.13200*%
%ADD35P,0.08202X4X285.0*%
G04:AMPARAMS|DCode=36|XSize=63mil|YSize=58mil|CornerRadius=0mil|HoleSize=0mil|Usage=FLASHONLY|Rotation=150.000|XOffset=0mil|YOffset=0mil|HoleType=Round|Shape=Rectangle|*
%AMROTATEDRECTD36*
4,1,4,0.04178,0.00937,0.01278,-0.04087,-0.04178,-0.00937,-0.01278,0.04087,0.04178,0.00937,0.0*
%
%ADD36ROTATEDRECTD36*%

G04:AMPARAMS|DCode=37|XSize=46mil|YSize=43mil|CornerRadius=0mil|HoleSize=0mil|Usage=FLASHONLY|Rotation=150.000|XOffset=0mil|YOffset=0mil|HoleType=Round|Shape=Rectangle|*
%AMROTATEDRECTD37*
4,1,4,0.03067,0.00712,0.00917,-0.03012,-0.03067,-0.00712,-0.00917,0.03012,0.03067,0.00712,0.0*
%
%ADD37ROTATEDRECTD37*%

G04:AMPARAMS|DCode=38|XSize=126.11mil|YSize=39.5mil|CornerRadius=0mil|HoleSize=0mil|Usage=FLASHONLY|Rotation=300.000|XOffset=0mil|YOffset=0mil|HoleType=Round|Shape=Rectangle|*
%AMROTATEDRECTD38*
4,1,4,-0.04863,0.04473,-0.01443,0.06448,0.04863,-0.04473,0.01443,-0.06448,-0.04863,0.04473,0.0*
%
%ADD38ROTATEDRECTD38*%

G04:AMPARAMS|DCode=39|XSize=46mil|YSize=43mil|CornerRadius=0mil|HoleSize=0mil|Usage=FLASHONLY|Rotation=300.000|XOffset=0mil|YOffset=0mil|HoleType=Round|Shape=Rectangle|*
%AMROTATEDRECTD39*
4,1,4,-0.03012,0.00917,0.00712,0.03067,0.03012,-0.00917,-0.00712,-0.03067,-0.03012,0.00917,0.0*
%
%ADD39ROTATEDRECTD39*%

%ADD40C,0.02800*%
G04:AMPARAMS|DCode=41|XSize=63mil|YSize=58mil|CornerRadius=0mil|HoleSize=0mil|Usage=FLASHONLY|Rotation=150.000|XOffset=0mil|YOffset=0mil|HoleType=Round|Shape=Octagon|*
%AMOCTAGOND41*
4,1,8,-0.02003,0.02831,-0.03453,0.00319,-0.02922,-0.01661,0.00022,-0.03362,0.02003,-0.02831,0.03453,-0.00319,0.02922,0.01661,-0.00022,0.03362,-0.02003,0.02831,0.0*
%
%ADD41OCTAGOND41*%

G04:AMPARAMS|DCode=42|XSize=63mil|YSize=58mil|CornerRadius=0mil|HoleSize=0mil|Usage=FLASHONLY|Rotation=60.000|XOffset=0mil|YOffset=0mil|HoleType=Round|Shape=Rectangle|*
%AMROTATEDRECTD42*
4,1,4,0.00937,-0.04178,-0.04087,-0.01278,-0.00937,0.04178,0.04087,0.01278,0.00937,-0.04178,0.0*
%
%ADD42ROTATEDRECTD42*%

G04:AMPARAMS|DCode=43|XSize=63mil|YSize=58mil|CornerRadius=0mil|HoleSize=0mil|Usage=FLASHONLY|Rotation=60.000|XOffset=0mil|YOffset=0mil|HoleType=Round|Shape=Octagon|*
%AMOCTAGOND43*
4,1,8,0.02831,0.02003,0.00319,0.03453,-0.01661,0.02922,-0.03362,-0.00022,-0.02831,-0.02003,-0.00319,-0.03453,0.01661,-0.02922,0.03362,0.00022,0.02831,0.02003,0.0*
%
%ADD43OCTAGOND43*%

G04:AMPARAMS|DCode=44|XSize=47.37mil|YSize=74.93mil|CornerRadius=0mil|HoleSize=0mil|Usage=FLASHONLY|Rotation=150.000|XOffset=0mil|YOffset=0mil|HoleType=Round|Shape=Rectangle|*
%AMROTATEDRECTD44*
4,1,4,0.03924,0.02060,0.00178,-0.04429,-0.03924,-0.02060,-0.00178,0.04429,0.03924,0.02060,0.0*
%
%ADD44ROTATEDRECTD44*%

G04:AMPARAMS|DCode=45|XSize=23.5mil|YSize=63.12mil|CornerRadius=0mil|HoleSize=0mil|Usage=FLASHONLY|Rotation=240.000|XOffset=0mil|YOffset=0mil|HoleType=Round|Shape=Rectangle|*
%AMROTATEDRECTD45*
4,1,4,-0.02146,0.02596,0.03321,-0.00560,0.02146,-0.02596,-0.03321,0.00560,-0.02146,0.02596,0.0*
%
%ADD45ROTATEDRECTD45*%

%ADD46O,0.08800X0.03200*%
%ADD47R,0.05800X0.05800*%
%ADD48R,0.04300X0.04600*%
%ADD49R,0.04600X0.04300*%
%ADD50R,0.02513X0.06902*%
%ADD51C,0.07493*%
%ADD52C,0.09855*%
%ADD53C,0.13800*%
%ADD54P,0.10597X4X375.0*%
G04:AMPARAMS|DCode=55|XSize=106.42mil|YSize=55.24mil|CornerRadius=0mil|HoleSize=0mil|Usage=FLASHONLY|Rotation=150.000|XOffset=0mil|YOffset=0mil|HoleType=Round|Shape=Round|*
%AMOVALD55*
21,1,0.05118,0.05524,0.00000,0.00000,150.0*
1,1,0.05524,0.02216,-0.01280*
1,1,0.05524,-0.02216,0.01280*
%
%ADD55OVALD55*%

D32*
X-39351Y161156D02*
D03*
D33*
X-73700Y167356D02*
D03*
D34*
X-25551Y148806D02*
D03*
D35*
X22044Y100257D02*
D03*
X17900Y93100D02*
D03*
X-13644Y41343D02*
D03*
X-9500Y48500D02*
D03*
D36*
X32846Y72625D02*
D03*
D37*
X24476Y66550D02*
D03*
X18500Y70000D02*
D03*
D38*
X-49500Y122553D02*
D03*
X-38500Y103500D02*
D03*
D39*
X-21000Y65500D02*
D03*
X-24450Y71476D02*
D03*
X-56500Y111000D02*
D03*
X-59950Y116976D02*
D03*
X-52000Y103000D02*
D03*
X-48550Y97024D02*
D03*
D40*
X-25550Y143906D02*
D03*
D41*
X21154Y79375D02*
D03*
D42*
X-1875Y55654D02*
D03*
D43*
X4875Y67346D02*
D03*
D44*
X-2724Y36298D02*
D03*
X9526Y57516D02*
D03*
D45*
X5457Y51667D02*
D03*
X357Y42833D02*
D03*
X4182Y49458D02*
D03*
D46*
X51928Y144853D02*
D03*
Y149853D02*
D03*
Y154853D02*
D03*
Y159853D02*
D03*
X29928Y144853D02*
D03*
X29928Y154853D02*
D03*
X29928Y159853D02*
D03*
X29928Y149853D02*
D03*
D47*
X63500Y155000D02*
D03*
X63490Y146730D02*
D03*
D48*
X15865Y120200D02*
D03*
X15865Y113300D02*
D03*
X15865Y128799D02*
D03*
Y135699D02*
D03*
X22865Y120099D02*
D03*
X22865Y113199D02*
D03*
X22865Y128799D02*
D03*
X22865Y135699D02*
D03*
X2000Y135000D02*
D03*
Y128100D02*
D03*
X-4500Y128100D02*
D03*
Y135000D02*
D03*
X-10550Y134806D02*
D03*
Y127906D02*
D03*
X-17051Y134806D02*
D03*
X-17051Y127906D02*
D03*
X-25550Y134806D02*
D03*
Y127906D02*
D03*
X-500Y81000D02*
D03*
X-500Y74100D02*
D03*
X-7500Y81000D02*
D03*
Y74100D02*
D03*
D49*
X13125Y154802D02*
D03*
X20025D02*
D03*
D50*
X-25547Y93406D02*
D03*
X-23051D02*
D03*
X-20547Y93406D02*
D03*
X-18050D02*
D03*
X-15547D02*
D03*
X-13050D02*
D03*
X-10547D02*
D03*
X-8050D02*
D03*
X-5547D02*
D03*
X-3050D02*
D03*
X-547Y93406D02*
D03*
X1949D02*
D03*
Y114863D02*
D03*
X-547D02*
D03*
X-3050Y114863D02*
D03*
X-5547D02*
D03*
X-8050D02*
D03*
X-10547D02*
D03*
X-13050D02*
D03*
X-15547D02*
D03*
X-18050D02*
D03*
X-20547D02*
D03*
X-23051Y114863D02*
D03*
X-25547D02*
D03*
D51*
X36500Y87840D02*
D03*
X-25833Y57368D02*
D03*
X-34691Y72711D02*
D03*
X53000Y116340D02*
D03*
D52*
X-14848Y58027D02*
D03*
X-28628Y81894D02*
D03*
D53*
X0Y160500D02*
D03*
Y20000D02*
D03*
X81200Y160500D02*
D03*
D54*
X41500Y96500D02*
D03*
X58000Y125000D02*
D03*
D55*
X18247Y52032D02*
D03*
X6435Y31574D02*
D03*
M02*
