G04*
G04 #@! TF.GenerationSoftware,Altium Limited,Altium Designer,20.2.8 (258)*
G04*
G04 Layer_Physical_Order=2*
G04 Layer_Color=16711680*
%FSLAX25Y25*%
%MOIN*%
G70*
G04*
G04 #@! TF.SameCoordinates,CDCB3E45-2178-442F-9089-F16855EB5547*
G04*
G04*
G04 #@! TF.FilePolarity,Positive*
G04*
G01*
G75*
%ADD15C,0.01200*%
%ADD56C,0.02400*%
%ADD58C,0.06693*%
%ADD59C,0.09055*%
%ADD60C,0.13000*%
%ADD61P,0.09465X4X375.0*%
G04:AMPARAMS|DCode=62|XSize=98.43mil|YSize=47.24mil|CornerRadius=0mil|HoleSize=0mil|Usage=FLASHONLY|Rotation=150.000|XOffset=0mil|YOffset=0mil|HoleType=Round|Shape=Round|*
%AMOVALD62*
21,1,0.05118,0.04724,0.00000,0.00000,150.0*
1,1,0.04724,0.02216,-0.01280*
1,1,0.04724,-0.02216,0.01280*
%
%ADD62OVALD62*%

%ADD63C,0.02400*%
G04:AMPARAMS|DCode=64|XSize=38mil|YSize=35mil|CornerRadius=0mil|HoleSize=0mil|Usage=FLASHONLY|Rotation=240.000|XOffset=0mil|YOffset=0mil|HoleType=Round|Shape=Rectangle|*
%AMROTATEDRECTD64*
4,1,4,-0.00566,0.02520,0.02466,0.00771,0.00566,-0.02520,-0.02466,-0.00771,-0.00566,0.02520,0.0*
%
%ADD64ROTATEDRECTD64*%

G04:AMPARAMS|DCode=65|XSize=35.43mil|YSize=59.06mil|CornerRadius=0mil|HoleSize=0mil|Usage=FLASHONLY|Rotation=150.000|XOffset=0mil|YOffset=0mil|HoleType=Round|Shape=Rectangle|*
%AMROTATEDRECTD65*
4,1,4,0.03011,0.01671,0.00058,-0.03443,-0.03011,-0.01671,-0.00058,0.03443,0.03011,0.01671,0.0*
%
%ADD65ROTATEDRECTD65*%

G36*
X95100Y168846D02*
X95350Y168413D01*
X250Y3696D01*
X-250D01*
X-28943Y53394D01*
X-28560Y53730D01*
X-28126Y53397D01*
X-27020Y52938D01*
X-25833Y52782D01*
X-24646Y52938D01*
X-24099Y53165D01*
X-26352Y57068D01*
X-28606Y60971D01*
X-29075Y60611D01*
X-29804Y59661D01*
X-30262Y58555D01*
X-30419Y57368D01*
X-30347Y56825D01*
X-30830Y56661D01*
X-38063Y69189D01*
X-37679Y69525D01*
X-36883Y68914D01*
X-35826Y68476D01*
X-34691Y68327D01*
X-33557Y68476D01*
X-32499Y68914D01*
X-31591Y69611D01*
X-30895Y70519D01*
X-30457Y71576D01*
X-30307Y72711D01*
X-30457Y73845D01*
X-30895Y74903D01*
X-31591Y75811D01*
X-32499Y76508D01*
X-33557Y76945D01*
X-34691Y77095D01*
X-35826Y76945D01*
X-36883Y76508D01*
X-37791Y75811D01*
X-38488Y74903D01*
X-38926Y73845D01*
X-39075Y72711D01*
X-38944Y71716D01*
X-39427Y71552D01*
X-79561Y141067D01*
X-79311Y141500D01*
X-3500D01*
X-1000Y144000D01*
Y152489D01*
X-630Y152825D01*
X-600Y152822D01*
Y160500D01*
Y168542D01*
X-695Y168664D01*
X-625Y168846D01*
X95100Y168846D01*
D02*
G37*
%LPC*%
G36*
X81800Y168178D02*
Y161100D01*
X88878D01*
X88789Y162010D01*
X88348Y163461D01*
X87633Y164799D01*
X86671Y165971D01*
X85499Y166933D01*
X84161Y167648D01*
X82709Y168089D01*
X81800Y168178D01*
D02*
G37*
G36*
X80600D02*
X79690Y168089D01*
X78239Y167648D01*
X76901Y166933D01*
X75729Y165971D01*
X74767Y164799D01*
X74052Y163461D01*
X73611Y162010D01*
X73522Y161100D01*
X80600D01*
Y168178D01*
D02*
G37*
G36*
X600D02*
Y161100D01*
X7678D01*
X7589Y162010D01*
X7148Y163461D01*
X6433Y164799D01*
X5471Y165971D01*
X4299Y166933D01*
X2961Y167648D01*
X1510Y168089D01*
X600Y168178D01*
D02*
G37*
G36*
X88878Y159900D02*
X81800D01*
Y152822D01*
X82709Y152911D01*
X84161Y153352D01*
X85499Y154067D01*
X86671Y155029D01*
X87633Y156201D01*
X88348Y157539D01*
X88789Y158991D01*
X88878Y159900D01*
D02*
G37*
G36*
X80600D02*
X73522D01*
X73611Y158991D01*
X74052Y157539D01*
X74767Y156201D01*
X75729Y155029D01*
X76901Y154067D01*
X78239Y153352D01*
X79690Y152911D01*
X80600Y152822D01*
Y159900D01*
D02*
G37*
G36*
X7678D02*
X600D01*
Y152822D01*
X1510Y152911D01*
X2961Y153352D01*
X4299Y154067D01*
X5471Y155029D01*
X6433Y156201D01*
X7148Y157539D01*
X7589Y158991D01*
X7678Y159900D01*
D02*
G37*
G36*
X63500Y142343D02*
X63450Y142333D01*
X63399Y142341D01*
X63022Y142248D01*
X62642Y142172D01*
X62599Y142144D01*
X62549Y142132D01*
X60038Y140956D01*
X60038Y140956D01*
X52346Y137357D01*
X52216Y137262D01*
X51991Y137169D01*
X51030Y136431D01*
X50292Y135470D01*
X50288Y135459D01*
X50271Y135440D01*
X23806Y88748D01*
X22989Y89195D01*
X22871Y89232D01*
X22759Y89286D01*
X22683Y89291D01*
X22609Y89314D01*
X22486Y89303D01*
X22362Y89310D01*
X20365Y89038D01*
X19643Y89230D01*
Y97058D01*
X19634Y97103D01*
X19487Y98972D01*
X19039Y100839D01*
X18304Y102614D01*
X17300Y104251D01*
X16083Y105677D01*
X16057Y105715D01*
X2629Y119143D01*
X2934Y119539D01*
X5749Y117914D01*
X9702Y124760D01*
X9240Y125027D01*
X10769Y127683D01*
X11252Y127813D01*
X11382Y127738D01*
X14282Y132761D01*
X9518Y135511D01*
X6618Y130488D01*
X7060Y130233D01*
X5531Y127577D01*
X5048Y127447D01*
X4901Y127532D01*
X1302Y121299D01*
X754Y121247D01*
X547Y121504D01*
X4246Y127910D01*
X3573Y128299D01*
X4966Y131112D01*
X5382Y131238D01*
X5382D01*
X8282Y136261D01*
X3518Y139011D01*
X618Y133988D01*
X1214Y133644D01*
X-200Y130790D01*
X-555Y130682D01*
X-555D01*
X-4508Y123836D01*
X-3707Y123374D01*
X-3688Y122785D01*
X-3986Y122586D01*
X-4472Y121858D01*
X-4643Y121000D01*
X-4472Y120142D01*
X-3986Y119414D01*
X12885Y102543D01*
X12972Y102485D01*
X13875Y101384D01*
X14595Y100038D01*
X15038Y98577D01*
X15177Y97161D01*
X15157Y97058D01*
Y90170D01*
X14608Y89941D01*
X14473Y89851D01*
X14332Y89770D01*
X14309Y89741D01*
X14277Y89719D01*
X14188Y89584D01*
X14088Y89456D01*
X10088Y81456D01*
X10046Y81301D01*
X9991Y81150D01*
X9993Y81111D01*
X9983Y81072D01*
X10003Y80913D01*
X10011Y80753D01*
X10049Y80599D01*
X-15418Y70088D01*
X-16200Y70243D01*
X-17058Y70072D01*
X-17786Y69586D01*
X-18272Y68858D01*
X-18443Y68000D01*
X-18272Y67142D01*
X-17786Y66414D01*
X-17058Y65928D01*
X-16200Y65757D01*
X-15342Y65928D01*
X-14614Y66414D01*
X-14175Y67071D01*
X12312Y78004D01*
X13775Y77126D01*
X13790Y77121D01*
X13802Y77110D01*
X13977Y77054D01*
X14150Y76991D01*
X14165Y76992D01*
X14180Y76987D01*
X14364Y77002D01*
X14547Y77011D01*
X14561Y77017D01*
X14577Y77019D01*
X27034Y80535D01*
X27134Y80586D01*
X27242Y80619D01*
X27310Y80675D01*
X27388Y80715D01*
X27461Y80801D01*
X27548Y80873D01*
X29515Y83293D01*
X29524Y83311D01*
X29539Y83325D01*
X29617Y83486D01*
X29700Y83645D01*
X29702Y83665D01*
X29711Y83683D01*
X29721Y83863D01*
X29737Y84041D01*
X29732Y84061D01*
X29733Y84081D01*
X29583Y85126D01*
X29559Y85196D01*
X29552Y85269D01*
X29493Y85382D01*
X29451Y85501D01*
X29402Y85556D01*
X29368Y85622D01*
X29271Y85703D01*
X29186Y85798D01*
X29119Y85830D01*
X29063Y85877D01*
X28056Y86427D01*
X27919Y86907D01*
X53929Y132795D01*
X54179Y133225D01*
X54247Y133287D01*
X54245Y133291D01*
X54247Y133294D01*
X61755Y136807D01*
X61858Y136828D01*
X61997Y136920D01*
X64451Y138068D01*
X64763Y138298D01*
X65086Y138514D01*
X65114Y138556D01*
X65156Y138587D01*
X65357Y138919D01*
X65572Y139242D01*
X65582Y139292D01*
X65609Y139336D01*
X65667Y139719D01*
X65743Y140100D01*
X65733Y140150D01*
X65741Y140201D01*
X65648Y140578D01*
X65572Y140958D01*
X65544Y141001D01*
X65532Y141051D01*
X65302Y141363D01*
X65086Y141686D01*
X65044Y141715D01*
X65013Y141756D01*
X64681Y141957D01*
X64358Y142172D01*
X64308Y142182D01*
X64264Y142209D01*
X63881Y142267D01*
X63500Y142343D01*
D02*
G37*
G36*
X15518Y132011D02*
X12618Y126988D01*
X12618Y126988D01*
X12720Y126557D01*
X11023Y123998D01*
X10357Y124382D01*
X6404Y117536D01*
X11205Y114764D01*
X15158Y121610D01*
X15158Y121610D01*
X15070Y121983D01*
X16791Y124579D01*
X17382Y124238D01*
X20282Y129261D01*
X15518Y132011D01*
D02*
G37*
G36*
X56409Y130937D02*
X52063Y123409D01*
X59591Y119063D01*
X63937Y126591D01*
X56409Y130937D01*
D02*
G37*
G36*
X53000Y120724D02*
X51865Y120574D01*
X50808Y120136D01*
X49900Y119440D01*
X49203Y118532D01*
X48765Y117474D01*
X48616Y116340D01*
X48765Y115205D01*
X49203Y114148D01*
X49900Y113240D01*
X50808Y112543D01*
X51865Y112105D01*
X53000Y111956D01*
X54135Y112105D01*
X55192Y112543D01*
X56100Y113240D01*
X56797Y114148D01*
X57235Y115205D01*
X57384Y116340D01*
X57235Y117474D01*
X56797Y118532D01*
X56100Y119440D01*
X55192Y120136D01*
X54135Y120574D01*
X53000Y120724D01*
D02*
G37*
G36*
X-11205Y112236D02*
X-14472Y106577D01*
X-14751Y106522D01*
X-14800Y106531D01*
X-19372D01*
Y106541D01*
X-21024Y106378D01*
X-22613Y105896D01*
X-24077Y105113D01*
X-25360Y104060D01*
X-25354Y104053D01*
X-25734Y103673D01*
X-25741Y103680D01*
X-26501Y102690D01*
X-26737Y102120D01*
X-27086Y101886D01*
X-27572Y101158D01*
X-27743Y100300D01*
X-27572Y99442D01*
X-27086Y98714D01*
X-26358Y98228D01*
X-25500Y98057D01*
X-24642Y98228D01*
X-23914Y98714D01*
X-23428Y99442D01*
X-23392Y99621D01*
X-22861Y99726D01*
X-22786Y99614D01*
X-22058Y99128D01*
X-21200Y98957D01*
X-20533Y99090D01*
X-20443Y99000D01*
X-20272Y98142D01*
X-19786Y97414D01*
X-19058Y96928D01*
X-18200Y96757D01*
X-17342Y96928D01*
X-16682Y97369D01*
X-1996D01*
Y97368D01*
X-1400Y97446D01*
X555Y96318D01*
X4320Y102840D01*
X4347Y102858D01*
X4916Y102872D01*
X5029Y102704D01*
X5127Y102209D01*
X5124Y102191D01*
X5117Y101734D01*
X5117Y101734D01*
X5009Y100913D01*
X4454Y99575D01*
X3636Y98509D01*
X3577Y98471D01*
X-19622Y76239D01*
X-20458Y76072D01*
X-21186Y75586D01*
X-21672Y74858D01*
X-21843Y74000D01*
X-21672Y73142D01*
X-21186Y72414D01*
X-20458Y71928D01*
X-19600Y71757D01*
X-18742Y71928D01*
X-18014Y72414D01*
X-17528Y73142D01*
X-17384Y73864D01*
X5505Y95800D01*
X5868Y96132D01*
X5868D01*
X6961Y97464D01*
X7773Y98984D01*
X8273Y100633D01*
X8341Y101321D01*
X8387Y101550D01*
Y102191D01*
X8395D01*
X8238Y103383D01*
X7778Y104493D01*
X7049Y105443D01*
X7044Y105439D01*
X7042Y105439D01*
X5606Y106875D01*
X5606Y106875D01*
X5609Y106878D01*
X4493Y107794D01*
X3219Y108475D01*
X2101Y108814D01*
X1986Y108986D01*
X1258Y109472D01*
X400Y109643D01*
X-458Y109472D01*
X-1186Y108986D01*
X-1672Y108258D01*
X-1843Y107400D01*
X-1833Y107351D01*
X-2240Y107060D01*
X-5749Y109086D01*
X-8863Y103691D01*
X-9269Y103617D01*
X-9545Y104024D01*
X-6404Y109464D01*
X-11205Y112236D01*
D02*
G37*
G36*
X39836Y102711D02*
X37863Y99293D01*
X41280Y97320D01*
X43254Y100737D01*
X39836Y102711D01*
D02*
G37*
G36*
X44293Y100137D02*
X42320Y96720D01*
X45737Y94746D01*
X47711Y98164D01*
X44293Y100137D01*
D02*
G37*
G36*
X37263Y98254D02*
X35289Y94836D01*
X38707Y92863D01*
X40680Y96280D01*
X37263Y98254D01*
D02*
G37*
G36*
X41720Y95680D02*
X39746Y92263D01*
X43164Y90289D01*
X45137Y93707D01*
X41720Y95680D01*
D02*
G37*
G36*
X36500Y92224D02*
X35365Y92074D01*
X34308Y91636D01*
X33400Y90940D01*
X32703Y90032D01*
X32265Y88974D01*
X32116Y87840D01*
X32265Y86705D01*
X32703Y85648D01*
X33400Y84740D01*
X34308Y84043D01*
X35365Y83605D01*
X36500Y83456D01*
X37635Y83605D01*
X38692Y84043D01*
X39600Y84740D01*
X40297Y85648D01*
X40735Y86705D01*
X40884Y87840D01*
X40735Y88974D01*
X40297Y90032D01*
X39600Y90940D01*
X38692Y91636D01*
X37635Y92074D01*
X36500Y92224D01*
D02*
G37*
G36*
X-28628Y87671D02*
X-30123Y87474D01*
X-30957Y87129D01*
X-28408Y82714D01*
X-23993Y85263D01*
X-24543Y85979D01*
X-25739Y86897D01*
X-27133Y87474D01*
X-28628Y87671D01*
D02*
G37*
G36*
X-31996Y86529D02*
X-32713Y85979D01*
X-33631Y84782D01*
X-34208Y83389D01*
X-34405Y81894D01*
X-34208Y80399D01*
X-33862Y79565D01*
X-29447Y82114D01*
X-31996Y86529D01*
D02*
G37*
G36*
X-23393Y84223D02*
X-27808Y81674D01*
X-25259Y77259D01*
X-24543Y77809D01*
X-23625Y79006D01*
X-23048Y80399D01*
X-22851Y81894D01*
X-23048Y83389D01*
X-23393Y84223D01*
D02*
G37*
G36*
X-28847Y81074D02*
X-33262Y78525D01*
X-32713Y77809D01*
X-31516Y76891D01*
X-30123Y76314D01*
X-28628Y76117D01*
X-27133Y76314D01*
X-26298Y76660D01*
X-28847Y81074D01*
D02*
G37*
G36*
X-14848Y63804D02*
X-16343Y63607D01*
X-17178Y63262D01*
X-14629Y58847D01*
X-10214Y61396D01*
X-10763Y62112D01*
X-11960Y63030D01*
X-13353Y63607D01*
X-14848Y63804D01*
D02*
G37*
G36*
X-25833Y61954D02*
X-27020Y61797D01*
X-27566Y61571D01*
X-25613Y58188D01*
X-22230Y60141D01*
X-22590Y60611D01*
X-23540Y61339D01*
X-24646Y61797D01*
X-25833Y61954D01*
D02*
G37*
G36*
X-18217Y62662D02*
X-18933Y62112D01*
X-19851Y60916D01*
X-20428Y59522D01*
X-20625Y58027D01*
X-20428Y56532D01*
X-20083Y55698D01*
X-15668Y58247D01*
X-18217Y62662D01*
D02*
G37*
G36*
X-21630Y59102D02*
X-25013Y57148D01*
X-23060Y53765D01*
X-22590Y54125D01*
X-21861Y55075D01*
X-21403Y56181D01*
X-21247Y57368D01*
X-21403Y58555D01*
X-21630Y59102D01*
D02*
G37*
G36*
X-9614Y60357D02*
X-14029Y57808D01*
X-11480Y53393D01*
X-10763Y53942D01*
X-9845Y55139D01*
X-9268Y56532D01*
X-9071Y58027D01*
X-9268Y59522D01*
X-9614Y60357D01*
D02*
G37*
G36*
X16030Y56904D02*
X15100Y56782D01*
X14234Y56423D01*
X13490Y55852D01*
X13287Y55588D01*
X18027Y52851D01*
X19523Y55443D01*
X17827Y56423D01*
X16960Y56782D01*
X16030Y56904D01*
D02*
G37*
G36*
X-15068Y57208D02*
X-19483Y54659D01*
X-18933Y53942D01*
X-17737Y53024D01*
X-16343Y52447D01*
X-14848Y52250D01*
X-13353Y52447D01*
X-12519Y52793D01*
X-15068Y57208D01*
D02*
G37*
G36*
X20562Y54843D02*
X19066Y52251D01*
X23806Y49515D01*
X23933Y49822D01*
X24056Y50752D01*
X23933Y51682D01*
X23574Y52549D01*
X23003Y53293D01*
X22259Y53864D01*
X20562Y54843D01*
D02*
G37*
G36*
X12687Y54549D02*
X12560Y54241D01*
X12437Y53311D01*
X12560Y52381D01*
X12919Y51515D01*
X13490Y50771D01*
X14234Y50200D01*
X15930Y49220D01*
X17427Y51812D01*
X12687Y54549D01*
D02*
G37*
G36*
X18466Y51212D02*
X16970Y48620D01*
X18666Y47641D01*
X19533Y47282D01*
X20463Y47159D01*
X21393Y47282D01*
X22259Y47641D01*
X23003Y48212D01*
X23206Y48476D01*
X18466Y51212D01*
D02*
G37*
G36*
X4219Y36447D02*
X3289Y36325D01*
X2423Y35966D01*
X1679Y35395D01*
X1476Y35131D01*
X6216Y32394D01*
X7712Y34986D01*
X6016Y35966D01*
X5149Y36325D01*
X4219Y36447D01*
D02*
G37*
G36*
X8751Y34386D02*
X7255Y31794D01*
X11995Y29058D01*
X12122Y29365D01*
X12245Y30295D01*
X12122Y31225D01*
X11763Y32091D01*
X11192Y32836D01*
X10448Y33407D01*
X8751Y34386D01*
D02*
G37*
G36*
X876Y34091D02*
X749Y33784D01*
X626Y32854D01*
X749Y31924D01*
X1108Y31058D01*
X1679Y30314D01*
X2423Y29743D01*
X4119Y28763D01*
X5616Y31355D01*
X876Y34091D01*
D02*
G37*
G36*
X6655Y30755D02*
X5159Y28163D01*
X6855Y27183D01*
X7722Y26825D01*
X8652Y26702D01*
X9582Y26825D01*
X10448Y27183D01*
X11192Y27754D01*
X11395Y28018D01*
X6655Y30755D01*
D02*
G37*
G36*
X600Y27678D02*
Y20600D01*
X7678D01*
X7589Y21509D01*
X7148Y22961D01*
X6433Y24299D01*
X5471Y25471D01*
X4299Y26433D01*
X2961Y27148D01*
X1510Y27589D01*
X600Y27678D01*
D02*
G37*
G36*
X-600D02*
X-1510Y27589D01*
X-2961Y27148D01*
X-4299Y26433D01*
X-5471Y25471D01*
X-6433Y24299D01*
X-7148Y22961D01*
X-7589Y21509D01*
X-7678Y20600D01*
X-600D01*
Y27678D01*
D02*
G37*
G36*
X7678Y19400D02*
X600D01*
Y12322D01*
X1510Y12411D01*
X2961Y12852D01*
X4299Y13567D01*
X5471Y14529D01*
X6433Y15701D01*
X7148Y17039D01*
X7589Y18490D01*
X7678Y19400D01*
D02*
G37*
G36*
X-600D02*
X-7678D01*
X-7589Y18490D01*
X-7148Y17039D01*
X-6433Y15701D01*
X-5471Y14529D01*
X-4299Y13567D01*
X-2961Y12852D01*
X-1510Y12411D01*
X-600Y12322D01*
Y19400D01*
D02*
G37*
%LPD*%
G36*
X20300Y88000D02*
X22500Y88300D01*
X28574Y84982D01*
X28723Y83936D01*
X26757Y81516D01*
X14300Y78000D01*
X11300Y79800D01*
X11000Y81000D01*
X15000Y89000D01*
X15600Y89250D01*
X20300Y88000D01*
D02*
G37*
D15*
X6755Y102191D02*
G03*
X5889Y104285I-2964J0D01*
G01*
X4453Y105721D02*
G03*
X400Y107400I-4053J-4053D01*
G01*
X4706Y97294D02*
G03*
X6755Y101550I-5055J5055D01*
G01*
X-14800Y104900D02*
G03*
X-12253Y105955I0J3602D01*
G01*
X-19372Y104900D02*
G03*
X-24200Y102900I0J-6828D01*
G01*
X-24581Y102519D02*
G03*
X-25500Y100300I2219J-2219D01*
G01*
X-10300Y101800D02*
G03*
X-6035Y103567I0J6031D01*
G01*
X-19751Y101800D02*
G03*
X-21200Y101200I0J-2049D01*
G01*
X-1996Y99000D02*
G03*
X131Y101127I0J2127D01*
G01*
X4453Y105721D02*
X5889Y104285D01*
X100Y107400D02*
X400D01*
X-18200Y99000D02*
X-1996D01*
X-19751Y101800D02*
X-10300D01*
X-16200Y68000D02*
X13600Y80300D01*
X6755Y101550D02*
Y102191D01*
X-19600Y74000D02*
X4706Y97294D01*
X-12253Y105955D02*
X-10781Y107427D01*
X-19372Y104900D02*
X-14800D01*
X-24581Y102519D02*
X-24200Y102900D01*
X-6035Y103567D02*
X-5325Y104277D01*
X-21400Y101200D02*
X-21200D01*
D56*
X17400Y97058D02*
G03*
X14471Y104129I-10000J0D01*
G01*
X53296Y135326D02*
G03*
X52223Y134334I1014J-2175D01*
G01*
X-2400Y121000D02*
X14471Y104129D01*
X10781Y119573D02*
X16450Y128124D01*
X5325Y122723D02*
X10450Y131624D01*
X-131Y125873D02*
X4450Y135124D01*
X17400Y87500D02*
Y97058D01*
X60988Y138925D02*
X63500Y140100D01*
X53296Y135326D02*
X60988Y138925D01*
X24600Y85600D02*
X52223Y134334D01*
D58*
X36500Y87840D02*
D03*
X-25833Y57368D02*
D03*
X-34691Y72711D02*
D03*
X53000Y116340D02*
D03*
D59*
X-14848Y58027D02*
D03*
X-28628Y81894D02*
D03*
D60*
X0Y160500D02*
D03*
Y20000D02*
D03*
X81200Y160500D02*
D03*
D61*
X41500Y96500D02*
D03*
X58000Y125000D02*
D03*
D62*
X18247Y52032D02*
D03*
X6435Y31574D02*
D03*
D63*
X-30200Y117500D02*
D03*
X-26300Y122100D02*
D03*
X46400Y88200D02*
D03*
X53800Y102700D02*
D03*
X71800Y132400D02*
D03*
X77200Y141300D02*
D03*
X26400Y124100D02*
D03*
X27200Y116700D02*
D03*
X11900Y111600D02*
D03*
X19400Y116700D02*
D03*
X19500Y124100D02*
D03*
X9000Y104700D02*
D03*
X13100Y143300D02*
D03*
X27700Y140300D02*
D03*
X27100Y132000D02*
D03*
X19400Y132300D02*
D03*
X19700Y142300D02*
D03*
X-2400Y121000D02*
D03*
X58500Y112000D02*
D03*
X65000Y122500D02*
D03*
X-11000Y31500D02*
D03*
X3000Y148000D02*
D03*
X44000Y139000D02*
D03*
X38000D02*
D03*
X80000Y150000D02*
D03*
X70000Y166000D02*
D03*
X60000D02*
D03*
X50000D02*
D03*
X40000D02*
D03*
X30000D02*
D03*
X20000D02*
D03*
X10000D02*
D03*
X-20500Y48000D02*
D03*
X-73000Y134000D02*
D03*
X-69000Y126500D02*
D03*
X-14000Y86000D02*
D03*
X-19000D02*
D03*
X-4000Y77000D02*
D03*
X7500Y91000D02*
D03*
Y94500D02*
D03*
X4200Y109500D02*
D03*
X-18200Y99000D02*
D03*
X400Y107400D02*
D03*
X36900Y123400D02*
D03*
X27000Y107000D02*
D03*
X44000Y144000D02*
D03*
X38000D02*
D03*
X44000Y149000D02*
D03*
X38000D02*
D03*
X44000Y154000D02*
D03*
X38000D02*
D03*
X44000Y159000D02*
D03*
X38000D02*
D03*
X15500Y148000D02*
D03*
X12500D02*
D03*
X-1000Y140000D02*
D03*
X-7500D02*
D03*
X-14000D02*
D03*
X-21000D02*
D03*
X-75000D02*
D03*
X-70000D02*
D03*
X-65000D02*
D03*
X-60000D02*
D03*
X-55000D02*
D03*
X-50000D02*
D03*
X-45000D02*
D03*
X-40000D02*
D03*
X-35000D02*
D03*
X-30000D02*
D03*
X-21200Y131400D02*
D03*
X-47800Y91600D02*
D03*
X-41600Y95000D02*
D03*
X-54700Y131000D02*
D03*
X-33600Y95200D02*
D03*
X-30400Y100600D02*
D03*
X-16400Y108200D02*
D03*
X-19500D02*
D03*
X-46200Y111700D02*
D03*
X-46300Y106300D02*
D03*
X-50700Y114100D02*
D03*
X-52100Y108300D02*
D03*
X-57300Y105300D02*
D03*
X-65000Y120400D02*
D03*
X-58700Y124100D02*
D03*
X-31200Y112000D02*
D03*
X-35400Y116700D02*
D03*
X-40600Y120100D02*
D03*
X-44300Y124500D02*
D03*
X-47900Y129700D02*
D03*
X-16200Y68000D02*
D03*
X24600Y85600D02*
D03*
X61000Y138900D02*
D03*
X63500Y140100D02*
D03*
X27000Y84200D02*
D03*
X22300Y86900D02*
D03*
X17400Y87500D02*
D03*
X16100Y85100D02*
D03*
X14900Y82700D02*
D03*
X13600Y80300D02*
D03*
X-19600Y74000D02*
D03*
X-21200Y101200D02*
D03*
X-25500Y100300D02*
D03*
D64*
X4450Y135124D02*
D03*
X7900Y141100D02*
D03*
X10450Y131624D02*
D03*
X13900Y137600D02*
D03*
X16450Y128124D02*
D03*
X19900Y134100D02*
D03*
D65*
X5325Y122723D02*
D03*
X-131Y125873D02*
D03*
X10781Y119573D02*
D03*
X131Y101127D02*
D03*
X-10781Y107427D02*
D03*
X-5325Y104277D02*
D03*
M02*
