G04*
G04 #@! TF.GenerationSoftware,Altium Limited,Altium Designer,20.2.8 (258)*
G04*
G04 Layer_Color=65535*
%FSLAX25Y25*%
%MOIN*%
G70*
G04*
G04 #@! TF.SameCoordinates,CDCB3E45-2178-442F-9089-F16855EB5547*
G04*
G04*
G04 #@! TF.FilePolarity,Positive*
G04*
G01*
G75*
%ADD10C,0.01000*%
%ADD11C,0.00600*%
%ADD12C,0.00394*%
%ADD13C,0.00591*%
%ADD14C,0.00787*%
%ADD15C,0.01200*%
G36*
X-37781Y90970D02*
X-36719Y89131D01*
X-37341Y88772D01*
X-38399Y90605D01*
X-41343Y92314D01*
X-40631Y92725D01*
X-38344Y91397D01*
X-38267Y94090D01*
X-37683Y94427D01*
X-37781Y90970D01*
D02*
G37*
G36*
X-32893Y91340D02*
X-33476Y91003D01*
X-35759Y94957D01*
X-36458Y94554D01*
X-36669Y94919D01*
X-35450Y95768D01*
X-32893Y91340D01*
D02*
G37*
G36*
X-45602Y87053D02*
X-42256Y85934D01*
X-43044Y85479D01*
X-46251Y86593D01*
X-44967Y84369D01*
X-45550Y84032D01*
X-48085Y88422D01*
X-47501Y88759D01*
X-46255Y86599D01*
X-45739Y89776D01*
X-45098Y90146D01*
X-45602Y87053D01*
D02*
G37*
G36*
X-41387Y91665D02*
X-43226Y90603D01*
X-42419Y89206D01*
X-40875Y90098D01*
X-40605Y89630D01*
X-42149Y88738D01*
X-41232Y87149D01*
X-39264Y88285D01*
X-38994Y87817D01*
X-41583Y86322D01*
X-44118Y90712D01*
X-41657Y92133D01*
X-41387Y91665D01*
D02*
G37*
G36*
X7836Y107835D02*
X7932Y107820D01*
X8050Y107798D01*
X8176Y107769D01*
X8302Y107724D01*
X8435Y107665D01*
X8443D01*
X8450Y107658D01*
X8472Y107643D01*
X8494Y107628D01*
X8531Y107606D01*
X8576Y107576D01*
X8620Y107539D01*
X8679Y107495D01*
X8739Y107443D01*
X8813Y107384D01*
X8887Y107310D01*
X8968Y107236D01*
X9057Y107147D01*
X9153Y107043D01*
X9257Y106932D01*
X9360Y106814D01*
X9582Y106548D01*
X9590Y106533D01*
X9627Y106496D01*
X9678Y106444D01*
X9745Y106370D01*
X9826Y106289D01*
X9930Y106192D01*
X10041Y106089D01*
X10167Y105978D01*
X10182Y105963D01*
X10226Y105933D01*
X10293Y105882D01*
X10381Y105822D01*
X10492Y105763D01*
X10618Y105704D01*
X10751Y105652D01*
X10892Y105615D01*
Y107820D01*
X11484D01*
Y104801D01*
X10892D01*
X10885D01*
X10862Y104816D01*
X10825Y104831D01*
X10774Y104860D01*
X10707Y104897D01*
X10633Y104942D01*
X10544Y104994D01*
X10448Y105060D01*
X10344Y105134D01*
X10226Y105216D01*
X10108Y105312D01*
X9974Y105423D01*
X9834Y105541D01*
X9693Y105674D01*
X9545Y105822D01*
X9397Y105985D01*
X9049Y106377D01*
X9042Y106385D01*
X9035Y106400D01*
X9012Y106414D01*
X8983Y106444D01*
X8909Y106518D01*
X8820Y106607D01*
X8709Y106703D01*
X8598Y106799D01*
X8480Y106888D01*
X8361Y106962D01*
X8346Y106969D01*
X8309Y106984D01*
X8243Y107014D01*
X8161Y107043D01*
X8065Y107073D01*
X7954Y107103D01*
X7836Y107117D01*
X7710Y107125D01*
X7703D01*
X7688D01*
X7666D01*
X7643Y107117D01*
X7562Y107110D01*
X7466Y107095D01*
X7362Y107058D01*
X7251Y107014D01*
X7140Y106947D01*
X7044Y106858D01*
X7037Y106844D01*
X7007Y106814D01*
X6970Y106755D01*
X6918Y106673D01*
X6874Y106577D01*
X6837Y106459D01*
X6807Y106318D01*
X6800Y106163D01*
Y106096D01*
X6807Y106052D01*
Y105993D01*
X6815Y105933D01*
X6837Y105800D01*
Y105793D01*
X6844Y105771D01*
X6852Y105734D01*
X6866Y105689D01*
X6881Y105637D01*
X6903Y105571D01*
X6955Y105430D01*
Y105423D01*
X6970Y105393D01*
X6985Y105356D01*
X7014Y105297D01*
X7051Y105223D01*
X7096Y105134D01*
X7148Y105038D01*
X7207Y104927D01*
X6607D01*
X6600Y104934D01*
X6593Y104957D01*
X6578Y104994D01*
X6556Y105045D01*
X6533Y105105D01*
X6504Y105179D01*
X6474Y105260D01*
X6445Y105349D01*
X6415Y105445D01*
X6393Y105549D01*
X6341Y105778D01*
X6304Y106015D01*
X6289Y106141D01*
Y106340D01*
X6297Y106385D01*
X6304Y106451D01*
X6311Y106518D01*
X6326Y106599D01*
X6341Y106688D01*
X6385Y106873D01*
X6459Y107066D01*
X6504Y107154D01*
X6563Y107251D01*
X6622Y107339D01*
X6696Y107421D01*
X6704Y107428D01*
X6711Y107436D01*
X6733Y107458D01*
X6770Y107487D01*
X6807Y107517D01*
X6852Y107554D01*
X6911Y107591D01*
X6970Y107635D01*
X7118Y107709D01*
X7288Y107776D01*
X7377Y107806D01*
X7481Y107828D01*
X7584Y107835D01*
X7695Y107843D01*
X7703D01*
X7710D01*
X7732D01*
X7762D01*
X7836Y107835D01*
D02*
G37*
G36*
X9834Y103602D02*
X9915D01*
X9997Y103595D01*
X10093Y103588D01*
X10285Y103558D01*
X10485Y103521D01*
X10670Y103469D01*
X10751Y103440D01*
X10825Y103403D01*
X10833D01*
X10840Y103395D01*
X10885Y103366D01*
X10951Y103321D01*
X11033Y103255D01*
X11129Y103173D01*
X11225Y103070D01*
X11314Y102959D01*
X11403Y102825D01*
Y102818D01*
X11410Y102811D01*
X11425Y102788D01*
X11432Y102759D01*
X11447Y102722D01*
X11469Y102677D01*
X11484Y102626D01*
X11506Y102566D01*
X11543Y102426D01*
X11580Y102256D01*
X11602Y102063D01*
X11610Y101841D01*
Y101775D01*
X11602Y101730D01*
Y101678D01*
X11595Y101612D01*
X11588Y101538D01*
X11580Y101464D01*
X11558Y101294D01*
X11514Y101116D01*
X11462Y100938D01*
X11388Y100776D01*
Y100768D01*
X11380Y100761D01*
X11366Y100739D01*
X11343Y100709D01*
X11299Y100635D01*
X11225Y100554D01*
X11144Y100450D01*
X11040Y100354D01*
X10914Y100258D01*
X10781Y100169D01*
X10774D01*
X10766Y100161D01*
X10737Y100154D01*
X10707Y100139D01*
X10670Y100124D01*
X10618Y100102D01*
X10559Y100087D01*
X10492Y100073D01*
X10411Y100050D01*
X10330Y100036D01*
X10233Y100013D01*
X10122Y99999D01*
X10011Y99991D01*
X9886Y99976D01*
X9752Y99969D01*
X9612D01*
X6415D01*
Y100687D01*
X9612D01*
X9619D01*
X9649D01*
X9693D01*
X9745Y100694D01*
X9812D01*
X9893Y100702D01*
X9974Y100716D01*
X10071Y100724D01*
X10256Y100761D01*
X10448Y100820D01*
X10537Y100857D01*
X10618Y100894D01*
X10692Y100946D01*
X10759Y100998D01*
X10774Y101012D01*
X10811Y101057D01*
X10855Y101123D01*
X10914Y101227D01*
X10973Y101345D01*
X11018Y101501D01*
X11055Y101671D01*
X11070Y101871D01*
Y101930D01*
X11062Y101997D01*
X11055Y102078D01*
X11040Y102167D01*
X11018Y102270D01*
X10988Y102367D01*
X10951Y102463D01*
X10944Y102470D01*
X10929Y102500D01*
X10899Y102544D01*
X10855Y102603D01*
X10803Y102663D01*
X10737Y102722D01*
X10655Y102788D01*
X10559Y102840D01*
X10544Y102848D01*
X10507Y102862D01*
X10441Y102885D01*
X10396Y102899D01*
X10344Y102914D01*
X10285Y102922D01*
X10211Y102936D01*
X10137Y102951D01*
X10056Y102959D01*
X9967Y102966D01*
X9863Y102973D01*
X9760Y102981D01*
X9641D01*
X6415D01*
Y103610D01*
X9634D01*
X9641D01*
X9671D01*
X9715D01*
X9767D01*
X9834Y103602D01*
D02*
G37*
G36*
X29988Y65067D02*
X30129Y65046D01*
X30286Y65006D01*
X30360Y64972D01*
X30434Y64938D01*
X30441Y64934D01*
X30447Y64930D01*
X30466Y64919D01*
X30492Y64905D01*
X30542Y64858D01*
X30618Y64798D01*
X30700Y64716D01*
X30786Y64615D01*
X30872Y64497D01*
X30947Y64360D01*
X30953Y64356D01*
X30952Y64340D01*
X30976Y64292D01*
X31004Y64207D01*
X31030Y64090D01*
X31058Y63946D01*
X31071Y63776D01*
X31066Y63590D01*
X31057Y63485D01*
X31043Y63373D01*
X31047Y63379D01*
X31061Y63389D01*
X31078Y63404D01*
X31110Y63429D01*
X31180Y63491D01*
X31264Y63562D01*
X31368Y63639D01*
X31482Y63718D01*
X31595Y63781D01*
X31711Y63833D01*
X31725Y63843D01*
X31765Y63853D01*
X31819Y63873D01*
X31896Y63889D01*
X31988Y63913D01*
X32088Y63924D01*
X32198Y63937D01*
X32307Y63934D01*
X32324Y63933D01*
X32357Y63931D01*
X32412Y63924D01*
X32488Y63906D01*
X32569Y63885D01*
X32664Y63856D01*
X32761Y63817D01*
X32854Y63771D01*
X32861Y63768D01*
X32867Y63764D01*
X32906Y63742D01*
X32959Y63702D01*
X33029Y63645D01*
X33108Y63574D01*
X33185Y63486D01*
X33259Y63392D01*
X33332Y63282D01*
X33341Y63268D01*
X33358Y63224D01*
X33385Y63166D01*
X33413Y63082D01*
X33444Y62987D01*
X33467Y62879D01*
X33483Y62759D01*
X33485Y62630D01*
X33484Y62613D01*
X33475Y62567D01*
X33461Y62498D01*
X33448Y62446D01*
X33435Y62394D01*
X33418Y62335D01*
X33394Y62264D01*
X33363Y62196D01*
X33335Y62118D01*
X33294Y62031D01*
X33248Y61938D01*
X33203Y61844D01*
X32392Y60441D01*
X28003Y62975D01*
X28705Y64193D01*
X28741Y64240D01*
X28778Y64305D01*
X28826Y64371D01*
X28883Y64441D01*
X28944Y64517D01*
X29076Y64671D01*
X29227Y64815D01*
X29311Y64886D01*
X29394Y64941D01*
X29479Y64985D01*
X29567Y65020D01*
X29571Y65026D01*
X29588Y65025D01*
X29648Y65041D01*
X29735Y65059D01*
X29852Y65069D01*
X29988Y65067D01*
D02*
G37*
G36*
X35338Y65542D02*
X35001Y64959D01*
X31047Y67242D01*
X30643Y66543D01*
X30278Y66754D01*
X30909Y68099D01*
X35338Y65542D01*
D02*
G37*
G36*
X27990Y61488D02*
X27986Y61481D01*
X27972Y61472D01*
X27944Y61454D01*
X27913Y61429D01*
X27874Y61392D01*
X27829Y61358D01*
X27731Y61278D01*
X27626Y61184D01*
X27525Y61098D01*
X27434Y61014D01*
X27395Y60976D01*
X27367Y60941D01*
X27363Y60935D01*
X27342Y60913D01*
X27313Y60878D01*
X27274Y60841D01*
X27235Y60787D01*
X27195Y60733D01*
X27111Y60602D01*
X27074Y60538D01*
X27050Y60466D01*
X27011Y60369D01*
X26985Y60265D01*
X26961Y60150D01*
X26961Y60031D01*
X26980Y59917D01*
X26983Y59907D01*
X26997Y59873D01*
X27024Y59815D01*
X27057Y59753D01*
X27096Y59688D01*
X27148Y59615D01*
X27213Y59552D01*
X27287Y59501D01*
X27293Y59497D01*
X27312Y59486D01*
X27342Y59478D01*
X27384Y59462D01*
X27432Y59442D01*
X27488Y59435D01*
X27551Y59425D01*
X27623Y59417D01*
X27633Y59420D01*
X27660Y59422D01*
X27697Y59426D01*
X27744Y59434D01*
X27807Y59440D01*
X27867Y59456D01*
X28006Y59504D01*
X28016Y59507D01*
X28040Y59518D01*
X28078Y59539D01*
X28140Y59572D01*
X28212Y59608D01*
X28287Y59649D01*
X28386Y59703D01*
X28489Y59763D01*
X28854Y59980D01*
X28864Y59983D01*
X28881Y59998D01*
X28919Y60019D01*
X28967Y60043D01*
X29029Y60076D01*
X29094Y60115D01*
X29258Y60191D01*
X29432Y60270D01*
X29618Y60342D01*
X29703Y60370D01*
X29794Y60395D01*
X29875Y60416D01*
X29958Y60428D01*
X29975Y60427D01*
X30028Y60430D01*
X30104Y60429D01*
X30213Y60426D01*
X30332Y60409D01*
X30465Y60374D01*
X30608Y60326D01*
X30747Y60254D01*
X30753Y60251D01*
X30772Y60240D01*
X30798Y60225D01*
X30826Y60200D01*
X30867Y60168D01*
X30915Y60132D01*
X31018Y60029D01*
X31133Y59903D01*
X31192Y59827D01*
X31240Y59747D01*
X31291Y59658D01*
X31335Y59556D01*
X31378Y59454D01*
X31408Y59343D01*
X31411Y59333D01*
X31410Y59316D01*
X31418Y59286D01*
X31425Y59239D01*
X31425Y59179D01*
X31427Y59110D01*
X31432Y59030D01*
X31427Y58947D01*
X31415Y58852D01*
X31402Y58740D01*
X31382Y58632D01*
X31345Y58508D01*
X31308Y58384D01*
X31250Y58255D01*
X31189Y58119D01*
X31114Y57975D01*
X31066Y57891D01*
X31022Y57831D01*
X30982Y57761D01*
X30931Y57687D01*
X30819Y57538D01*
X30812Y57525D01*
X30790Y57503D01*
X30744Y57453D01*
X30691Y57390D01*
X30616Y57305D01*
X30518Y57208D01*
X30404Y57086D01*
X30267Y56951D01*
X29651Y57306D01*
X29655Y57313D01*
X29679Y57325D01*
X29707Y57343D01*
X29738Y57368D01*
X29783Y57401D01*
X29832Y57442D01*
X29950Y57527D01*
X30071Y57620D01*
X30190Y57722D01*
X30305Y57818D01*
X30348Y57862D01*
X30390Y57905D01*
X30398Y57918D01*
X30423Y57946D01*
X30455Y57988D01*
X30498Y58048D01*
X30552Y58111D01*
X30599Y58178D01*
X30698Y58334D01*
X30720Y58373D01*
X30728Y58402D01*
X30759Y58470D01*
X30798Y58567D01*
X30828Y58678D01*
X30845Y58796D01*
X30856Y58918D01*
X30837Y59049D01*
X30838Y59065D01*
X30821Y59109D01*
X30801Y59164D01*
X30762Y59246D01*
X30714Y59325D01*
X30653Y59411D01*
X30578Y59489D01*
X30479Y59554D01*
X30466Y59562D01*
X30441Y59577D01*
X30399Y59592D01*
X30337Y59619D01*
X30272Y59640D01*
X30187Y59655D01*
X30102Y59670D01*
X30009Y59672D01*
X29999Y59669D01*
X29962Y59665D01*
X29905Y59655D01*
X29821Y59627D01*
X29712Y59587D01*
X29648Y59565D01*
X29576Y59529D01*
X29504Y59494D01*
X29422Y59455D01*
X29333Y59404D01*
X29234Y59351D01*
X28883Y59143D01*
X28873Y59140D01*
X28855Y59125D01*
X28818Y59104D01*
X28770Y59080D01*
X28708Y59047D01*
X28647Y59015D01*
X28483Y58938D01*
X28309Y58859D01*
X28129Y58784D01*
X27950Y58725D01*
X27862Y58707D01*
X27785Y58692D01*
X27779Y58695D01*
X27769Y58693D01*
X27715Y58689D01*
X27639Y58691D01*
X27540Y58696D01*
X27422Y58714D01*
X27301Y58741D01*
X27164Y58785D01*
X27032Y58853D01*
X27026Y58857D01*
X27020Y58860D01*
X26981Y58882D01*
X26927Y58922D01*
X26858Y58979D01*
X26779Y59050D01*
X26701Y59138D01*
X26621Y59236D01*
X26548Y59346D01*
X26542Y59350D01*
X26539Y59360D01*
X26522Y59404D01*
X26493Y59472D01*
X26454Y59554D01*
X26427Y59655D01*
X26401Y59773D01*
X26383Y59903D01*
X26374Y60036D01*
X26378Y60043D01*
X26375Y60053D01*
X26378Y60102D01*
X26386Y60175D01*
X26402Y60277D01*
X26435Y60394D01*
X26480Y60530D01*
X26538Y60676D01*
X26621Y60834D01*
X26673Y60923D01*
X26705Y60965D01*
X26738Y61022D01*
X26782Y61083D01*
X26829Y61149D01*
X26886Y61219D01*
X26940Y61299D01*
X27080Y61466D01*
X27233Y61642D01*
X27413Y61821D01*
X27990Y61488D01*
D02*
G37*
G36*
X28271Y57002D02*
X28277Y56998D01*
X28303Y56983D01*
X28341Y56961D01*
X28386Y56935D01*
X28440Y56895D01*
X28510Y56854D01*
X28577Y56807D01*
X28657Y56753D01*
X28809Y56631D01*
X28963Y56499D01*
X29097Y56362D01*
X29153Y56295D01*
X29199Y56226D01*
X29205Y56223D01*
X29208Y56213D01*
X29232Y56165D01*
X29267Y56093D01*
X29304Y55995D01*
X29347Y55876D01*
X29378Y55738D01*
X29400Y55598D01*
X29410Y55438D01*
X29406Y55431D01*
X29409Y55421D01*
X29411Y55395D01*
X29402Y55365D01*
X29397Y55326D01*
X29394Y55276D01*
X29381Y55224D01*
X29370Y55162D01*
X29332Y55022D01*
X29279Y54856D01*
X29202Y54678D01*
X29097Y54482D01*
X29064Y54424D01*
X29035Y54390D01*
X29010Y54345D01*
X28970Y54291D01*
X28926Y54230D01*
X28883Y54170D01*
X28779Y54034D01*
X28651Y53902D01*
X28518Y53774D01*
X28372Y53670D01*
X28369Y53664D01*
X28359Y53661D01*
X28335Y53649D01*
X28300Y53635D01*
X28225Y53593D01*
X28120Y53559D01*
X27998Y53510D01*
X27860Y53479D01*
X27703Y53458D01*
X27543Y53448D01*
X27537Y53452D01*
X27527Y53449D01*
X27498Y53457D01*
X27465Y53459D01*
X27425Y53465D01*
X27369Y53472D01*
X27310Y53488D01*
X27245Y53509D01*
X27164Y53531D01*
X27086Y53558D01*
X26991Y53587D01*
X26888Y53630D01*
X26788Y53679D01*
X26672Y53729D01*
X26553Y53789D01*
X26431Y53860D01*
X23662Y55458D01*
X24021Y56080D01*
X26790Y54481D01*
X26796Y54478D01*
X26822Y54463D01*
X26860Y54440D01*
X26909Y54421D01*
X26967Y54388D01*
X27041Y54353D01*
X27119Y54326D01*
X27206Y54284D01*
X27384Y54223D01*
X27581Y54179D01*
X27676Y54166D01*
X27765Y54158D01*
X27855Y54165D01*
X27939Y54177D01*
X27959Y54182D01*
X28013Y54202D01*
X28085Y54238D01*
X28188Y54298D01*
X28298Y54371D01*
X28414Y54483D01*
X28532Y54612D01*
X28644Y54778D01*
X28674Y54829D01*
X28701Y54890D01*
X28735Y54965D01*
X28767Y55049D01*
X28799Y55150D01*
X28822Y55248D01*
X28838Y55350D01*
X28835Y55360D01*
X28837Y55393D01*
X28834Y55446D01*
X28825Y55519D01*
X28809Y55597D01*
X28781Y55681D01*
X28744Y55780D01*
X28687Y55872D01*
X28678Y55886D01*
X28653Y55918D01*
X28607Y55970D01*
X28575Y56005D01*
X28538Y56044D01*
X28490Y56080D01*
X28434Y56130D01*
X28377Y56180D01*
X28310Y56227D01*
X28237Y56278D01*
X28151Y56336D01*
X28065Y56394D01*
X27962Y56453D01*
X25168Y58066D01*
X25483Y58611D01*
X28271Y57002D01*
D02*
G37*
G36*
X-36160Y128759D02*
X-40115Y126476D01*
X-39711Y125778D01*
X-40077Y125567D01*
X-40925Y126786D01*
X-36497Y129342D01*
X-36160Y128759D01*
D02*
G37*
G36*
X-34725Y126273D02*
X-35821Y124161D01*
X-33419Y124010D01*
X-33075Y123414D01*
X-36123Y123603D01*
X-37505Y120950D01*
X-37931Y121687D01*
X-36884Y123693D01*
X-39178Y123847D01*
X-39518Y124437D01*
X-36586Y124258D01*
X-35150Y127010D01*
X-34725Y126273D01*
D02*
G37*
G36*
X24994Y167205D02*
X20428D01*
Y166398D01*
X20006D01*
X19880Y167878D01*
X24994D01*
Y167205D01*
D02*
G37*
G36*
X23344Y164755D02*
X23425D01*
X23506Y164748D01*
X23603Y164741D01*
X23795Y164711D01*
X23995Y164674D01*
X24180Y164622D01*
X24261Y164593D01*
X24335Y164556D01*
X24343D01*
X24350Y164548D01*
X24394Y164518D01*
X24461Y164474D01*
X24542Y164408D01*
X24639Y164326D01*
X24735Y164223D01*
X24824Y164111D01*
X24912Y163978D01*
Y163971D01*
X24920Y163963D01*
X24935Y163941D01*
X24942Y163912D01*
X24957Y163875D01*
X24979Y163830D01*
X24994Y163778D01*
X25016Y163719D01*
X25053Y163579D01*
X25090Y163409D01*
X25112Y163216D01*
X25120Y162994D01*
Y162927D01*
X25112Y162883D01*
Y162831D01*
X25105Y162765D01*
X25097Y162691D01*
X25090Y162617D01*
X25068Y162446D01*
X25023Y162269D01*
X24972Y162091D01*
X24898Y161928D01*
Y161921D01*
X24890Y161914D01*
X24875Y161891D01*
X24853Y161862D01*
X24809Y161788D01*
X24735Y161706D01*
X24653Y161603D01*
X24550Y161507D01*
X24424Y161410D01*
X24291Y161322D01*
X24283D01*
X24276Y161314D01*
X24246Y161307D01*
X24217Y161292D01*
X24180Y161277D01*
X24128Y161255D01*
X24069Y161240D01*
X24002Y161225D01*
X23921Y161203D01*
X23839Y161188D01*
X23743Y161166D01*
X23632Y161152D01*
X23521Y161144D01*
X23395Y161129D01*
X23262Y161122D01*
X23122D01*
X19925D01*
Y161840D01*
X23122D01*
X23129D01*
X23159D01*
X23203D01*
X23255Y161847D01*
X23321D01*
X23403Y161855D01*
X23484Y161869D01*
X23580Y161877D01*
X23765Y161914D01*
X23958Y161973D01*
X24047Y162010D01*
X24128Y162047D01*
X24202Y162099D01*
X24269Y162151D01*
X24283Y162165D01*
X24320Y162210D01*
X24365Y162276D01*
X24424Y162380D01*
X24483Y162498D01*
X24528Y162654D01*
X24565Y162824D01*
X24579Y163024D01*
Y163083D01*
X24572Y163149D01*
X24565Y163231D01*
X24550Y163320D01*
X24528Y163423D01*
X24498Y163520D01*
X24461Y163616D01*
X24454Y163623D01*
X24439Y163653D01*
X24409Y163697D01*
X24365Y163756D01*
X24313Y163815D01*
X24246Y163875D01*
X24165Y163941D01*
X24069Y163993D01*
X24054Y164000D01*
X24017Y164015D01*
X23950Y164038D01*
X23906Y164052D01*
X23854Y164067D01*
X23795Y164075D01*
X23721Y164089D01*
X23647Y164104D01*
X23566Y164111D01*
X23477Y164119D01*
X23373Y164126D01*
X23270Y164134D01*
X23151D01*
X19925D01*
Y164763D01*
X23144D01*
X23151D01*
X23181D01*
X23225D01*
X23277D01*
X23344Y164755D01*
D02*
G37*
G36*
X-33739Y86711D02*
X-33149Y87051D01*
X-32872Y86571D01*
X-33461Y86230D01*
X-32743Y84987D01*
X-33294Y84669D01*
X-34012Y85912D01*
X-35980Y84776D01*
X-36235Y85218D01*
X-35829Y89059D01*
X-35278Y89377D01*
X-33739Y86711D01*
D02*
G37*
G36*
X-37242Y82389D02*
X-37825Y82053D01*
X-40108Y86007D01*
X-40807Y85603D01*
X-41018Y85969D01*
X-39799Y86818D01*
X-37242Y82389D01*
D02*
G37*
G36*
X-42871Y84694D02*
X-42777Y84680D01*
X-42686Y84655D01*
X-42676Y84653D01*
X-42666Y84650D01*
X-42642Y84638D01*
X-42608Y84623D01*
X-42570Y84603D01*
X-42522Y84579D01*
X-42413Y84522D01*
X-42295Y84437D01*
X-42176Y84334D01*
X-42059Y84206D01*
X-42002Y84136D01*
X-41957Y84059D01*
X-41950Y84046D01*
X-41932Y84014D01*
X-41912Y83966D01*
X-41881Y83898D01*
X-41850Y83814D01*
X-41821Y83719D01*
X-41795Y83615D01*
X-41775Y83507D01*
X-41774Y83490D01*
X-41772Y83457D01*
X-41762Y83395D01*
X-41760Y83318D01*
X-41762Y83232D01*
X-41769Y83126D01*
X-41786Y83022D01*
X-41805Y82908D01*
X-41808Y82898D01*
X-41819Y82857D01*
X-41845Y82799D01*
X-41877Y82721D01*
X-41918Y82629D01*
X-41972Y82530D01*
X-42045Y82420D01*
X-42124Y82305D01*
X-39479Y81098D01*
X-40241Y80658D01*
X-42560Y81788D01*
X-43137Y81455D01*
X-42068Y79603D01*
X-42689Y79244D01*
X-45224Y83634D01*
X-43827Y84441D01*
X-43772Y84464D01*
X-43711Y84491D01*
X-43636Y84525D01*
X-43562Y84560D01*
X-43472Y84595D01*
X-43279Y84646D01*
X-43073Y84688D01*
X-42974Y84694D01*
X-42871Y84694D01*
D02*
G37*
G36*
X15218Y66558D02*
X12936Y62604D01*
X13634Y62201D01*
X13423Y61835D01*
X12079Y62467D01*
X14635Y66895D01*
X15218Y66558D01*
D02*
G37*
G36*
X21473Y62947D02*
X21654Y60373D01*
X22230Y60040D01*
X23300Y61892D01*
X23921Y61533D01*
X21387Y57144D01*
X19990Y57950D01*
X19942Y57986D01*
X19888Y58026D01*
X19821Y58073D01*
X19755Y58120D01*
X19679Y58181D01*
X19538Y58322D01*
X19398Y58480D01*
X19344Y58563D01*
X19293Y58652D01*
X19258Y58740D01*
X19234Y58831D01*
X19231Y58841D01*
X19228Y58851D01*
X19227Y58878D01*
X19222Y58915D01*
X19221Y58958D01*
X19218Y59011D01*
X19212Y59134D01*
X19227Y59279D01*
X19257Y59433D01*
X19310Y59599D01*
X19341Y59683D01*
X19386Y59760D01*
X19393Y59773D01*
X19411Y59805D01*
X19444Y59846D01*
X19487Y59907D01*
X19545Y59976D01*
X19612Y60048D01*
X19689Y60123D01*
X19773Y60194D01*
X19787Y60204D01*
X19815Y60222D01*
X19863Y60262D01*
X19929Y60301D01*
X20004Y60343D01*
X20100Y60390D01*
X20198Y60427D01*
X20307Y60467D01*
X20317Y60470D01*
X20357Y60481D01*
X20421Y60487D01*
X20504Y60499D01*
X20604Y60509D01*
X20717Y60512D01*
X20849Y60505D01*
X20988Y60493D01*
X20711Y63387D01*
X21473Y62947D01*
D02*
G37*
G36*
X19057Y64342D02*
X16774Y60388D01*
X17473Y59984D01*
X17262Y59619D01*
X15917Y60250D01*
X18474Y64679D01*
X19057Y64342D01*
D02*
G37*
G36*
X7949Y136196D02*
X8045Y136181D01*
X8164Y136159D01*
X8290Y136130D01*
X8415Y136085D01*
X8549Y136026D01*
X8556D01*
X8563Y136019D01*
X8586Y136004D01*
X8608Y135989D01*
X8645Y135967D01*
X8689Y135937D01*
X8734Y135900D01*
X8793Y135856D01*
X8852Y135804D01*
X8926Y135745D01*
X9000Y135671D01*
X9081Y135597D01*
X9170Y135508D01*
X9266Y135405D01*
X9370Y135293D01*
X9474Y135175D01*
X9696Y134909D01*
X9703Y134894D01*
X9740Y134857D01*
X9792Y134805D01*
X9858Y134731D01*
X9940Y134650D01*
X10043Y134554D01*
X10154Y134450D01*
X10280Y134339D01*
X10295Y134324D01*
X10339Y134294D01*
X10406Y134243D01*
X10495Y134184D01*
X10606Y134124D01*
X10732Y134065D01*
X10865Y134013D01*
X11005Y133976D01*
Y136181D01*
X11597D01*
Y133162D01*
X11005D01*
X10998D01*
X10976Y133177D01*
X10939Y133192D01*
X10887Y133221D01*
X10820Y133258D01*
X10746Y133303D01*
X10658Y133355D01*
X10561Y133421D01*
X10458Y133495D01*
X10339Y133577D01*
X10221Y133673D01*
X10088Y133784D01*
X9947Y133902D01*
X9807Y134036D01*
X9659Y134184D01*
X9511Y134346D01*
X9163Y134739D01*
X9155Y134746D01*
X9148Y134761D01*
X9126Y134775D01*
X9096Y134805D01*
X9022Y134879D01*
X8933Y134968D01*
X8822Y135064D01*
X8711Y135160D01*
X8593Y135249D01*
X8475Y135323D01*
X8460Y135330D01*
X8423Y135345D01*
X8356Y135375D01*
X8275Y135405D01*
X8179Y135434D01*
X8068Y135464D01*
X7949Y135478D01*
X7823Y135486D01*
X7816D01*
X7801D01*
X7779D01*
X7757Y135478D01*
X7675Y135471D01*
X7579Y135456D01*
X7476Y135419D01*
X7365Y135375D01*
X7254Y135308D01*
X7157Y135220D01*
X7150Y135205D01*
X7120Y135175D01*
X7083Y135116D01*
X7032Y135035D01*
X6987Y134938D01*
X6950Y134820D01*
X6921Y134679D01*
X6913Y134524D01*
Y134457D01*
X6921Y134413D01*
Y134354D01*
X6928Y134294D01*
X6950Y134161D01*
Y134154D01*
X6958Y134132D01*
X6965Y134095D01*
X6980Y134050D01*
X6995Y133999D01*
X7017Y133932D01*
X7069Y133791D01*
Y133784D01*
X7083Y133754D01*
X7098Y133717D01*
X7128Y133658D01*
X7165Y133584D01*
X7209Y133495D01*
X7261Y133399D01*
X7320Y133288D01*
X6721D01*
X6713Y133296D01*
X6706Y133318D01*
X6691Y133355D01*
X6669Y133406D01*
X6647Y133466D01*
X6617Y133540D01*
X6588Y133621D01*
X6558Y133710D01*
X6528Y133806D01*
X6506Y133910D01*
X6454Y134139D01*
X6417Y134376D01*
X6403Y134502D01*
Y134702D01*
X6410Y134746D01*
X6417Y134812D01*
X6425Y134879D01*
X6440Y134960D01*
X6454Y135049D01*
X6499Y135234D01*
X6573Y135427D01*
X6617Y135515D01*
X6676Y135612D01*
X6736Y135701D01*
X6810Y135782D01*
X6817Y135789D01*
X6824Y135797D01*
X6847Y135819D01*
X6884Y135848D01*
X6921Y135878D01*
X6965Y135915D01*
X7024Y135952D01*
X7083Y135996D01*
X7231Y136071D01*
X7402Y136137D01*
X7490Y136167D01*
X7594Y136189D01*
X7698Y136196D01*
X7809Y136204D01*
X7816D01*
X7823D01*
X7846D01*
X7875D01*
X7949Y136196D01*
D02*
G37*
G36*
X11597Y131623D02*
X9459Y130180D01*
Y129514D01*
X11597D01*
Y128796D01*
X6528D01*
Y130410D01*
X6536Y130469D01*
X6543Y130535D01*
X6551Y130617D01*
X6558Y130698D01*
X6573Y130794D01*
X6625Y130987D01*
X6691Y131186D01*
X6736Y131275D01*
X6787Y131364D01*
X6847Y131438D01*
X6913Y131505D01*
X6921Y131512D01*
X6928Y131519D01*
X6950Y131534D01*
X6980Y131556D01*
X7017Y131579D01*
X7061Y131608D01*
X7165Y131675D01*
X7298Y131734D01*
X7446Y131786D01*
X7616Y131823D01*
X7705Y131838D01*
X7794D01*
X7809D01*
X7846D01*
X7897Y131830D01*
X7971Y131823D01*
X8060Y131808D01*
X8156Y131786D01*
X8260Y131756D01*
X8364Y131719D01*
X8378Y131712D01*
X8408Y131697D01*
X8467Y131675D01*
X8534Y131638D01*
X8608Y131594D01*
X8697Y131534D01*
X8778Y131468D01*
X8867Y131394D01*
X8874Y131386D01*
X8904Y131357D01*
X8941Y131305D01*
X8993Y131238D01*
X9052Y131157D01*
X9111Y131061D01*
X9170Y130942D01*
X9229Y130816D01*
X11597Y132504D01*
Y131623D01*
D02*
G37*
G36*
X32557Y138472D02*
X27991D01*
Y137665D01*
X27569D01*
X27443Y139145D01*
X32557D01*
Y138472D01*
D02*
G37*
G36*
Y135682D02*
X30418Y134239D01*
Y133573D01*
X32557D01*
Y132855D01*
X27488D01*
Y134468D01*
X27495Y134527D01*
X27503Y134594D01*
X27510Y134675D01*
X27517Y134757D01*
X27532Y134853D01*
X27584Y135045D01*
X27650Y135245D01*
X27695Y135334D01*
X27747Y135423D01*
X27806Y135497D01*
X27872Y135563D01*
X27880Y135571D01*
X27887Y135578D01*
X27909Y135593D01*
X27939Y135615D01*
X27976Y135637D01*
X28021Y135667D01*
X28124Y135734D01*
X28257Y135793D01*
X28405Y135845D01*
X28576Y135882D01*
X28664Y135896D01*
X28753D01*
X28768D01*
X28805D01*
X28857Y135889D01*
X28931Y135882D01*
X29019Y135867D01*
X29116Y135845D01*
X29219Y135815D01*
X29323Y135778D01*
X29338Y135771D01*
X29367Y135756D01*
X29427Y135734D01*
X29493Y135697D01*
X29567Y135652D01*
X29656Y135593D01*
X29737Y135526D01*
X29826Y135452D01*
X29833Y135445D01*
X29863Y135415D01*
X29900Y135364D01*
X29952Y135297D01*
X30011Y135216D01*
X30070Y135119D01*
X30130Y135001D01*
X30189Y134875D01*
X32557Y136562D01*
Y135682D01*
D02*
G37*
G36*
X10806Y75036D02*
X10851Y75027D01*
X10907Y75020D01*
X10970Y75009D01*
X11049Y74998D01*
X11134Y74983D01*
X11228Y74954D01*
X11326Y74932D01*
X11434Y74895D01*
X11541Y74859D01*
X11773Y74759D01*
X12018Y74635D01*
X12024Y74631D01*
X12044Y74620D01*
X12076Y74602D01*
X12117Y74569D01*
X12174Y74536D01*
X12235Y74493D01*
X12302Y74445D01*
X12381Y74391D01*
X12536Y74259D01*
X12706Y74110D01*
X12878Y73933D01*
X13032Y73742D01*
X13038Y73738D01*
X13050Y73714D01*
X13068Y73687D01*
X13089Y73649D01*
X13123Y73604D01*
X13156Y73542D01*
X13233Y73395D01*
X13306Y73225D01*
X13380Y73028D01*
X13433Y72809D01*
X13465Y72569D01*
X13468Y72559D01*
X13467Y72542D01*
X13465Y72509D01*
X13469Y72456D01*
X13458Y72393D01*
X13454Y72327D01*
X13446Y72238D01*
X13427Y72147D01*
X13411Y72045D01*
X13381Y71934D01*
X13350Y71807D01*
X13303Y71680D01*
X13252Y71547D01*
X13193Y71402D01*
X13118Y71257D01*
X13039Y71106D01*
X12192Y69638D01*
X7802Y72173D01*
X8690Y73711D01*
X8730Y73765D01*
X8771Y73835D01*
X8822Y73908D01*
X8880Y73994D01*
X8952Y74089D01*
X9096Y74280D01*
X9263Y74465D01*
X9445Y74634D01*
X9539Y74707D01*
X9632Y74765D01*
X9636Y74771D01*
X9656Y74777D01*
X9684Y74795D01*
X9718Y74809D01*
X9766Y74833D01*
X9824Y74859D01*
X9956Y74911D01*
X10121Y74961D01*
X10310Y75006D01*
X10520Y75030D01*
X10746Y75036D01*
X10752Y75032D01*
X10772Y75038D01*
X10806Y75036D01*
D02*
G37*
G36*
X12459Y78832D02*
X12640Y78805D01*
X12731Y78786D01*
X12832Y78753D01*
X12926Y78708D01*
X13025Y78659D01*
X13032Y78655D01*
X13038Y78651D01*
X13058Y78640D01*
X13083Y78626D01*
X13144Y78582D01*
X13219Y78521D01*
X13311Y78443D01*
X13405Y78354D01*
X13492Y78253D01*
X13577Y78135D01*
X13584Y78131D01*
X13587Y78121D01*
X13598Y78097D01*
X13610Y78073D01*
X13631Y78036D01*
X13655Y77988D01*
X13675Y77934D01*
X13704Y77866D01*
X13729Y77791D01*
X13764Y77703D01*
X13791Y77602D01*
X13824Y77497D01*
X13857Y77376D01*
X13888Y77238D01*
X13923Y77090D01*
X13953Y76936D01*
X14012Y76594D01*
X14011Y76577D01*
X14025Y76527D01*
X14044Y76456D01*
X14064Y76359D01*
X14094Y76248D01*
X14136Y76112D01*
X14180Y75967D01*
X14233Y75808D01*
X14239Y75788D01*
X14263Y75740D01*
X14294Y75662D01*
X14342Y75566D01*
X14408Y75459D01*
X14488Y75345D01*
X14577Y75234D01*
X14680Y75131D01*
X15783Y77041D01*
X16296Y76745D01*
X14786Y74131D01*
X14273Y74427D01*
X14267Y74430D01*
X14255Y74454D01*
X14230Y74485D01*
X14200Y74537D01*
X14161Y74602D01*
X14119Y74678D01*
X14068Y74767D01*
X14018Y74873D01*
X13965Y74989D01*
X13904Y75118D01*
X13849Y75261D01*
X13789Y75424D01*
X13727Y75596D01*
X13672Y75782D01*
X13617Y75984D01*
X13571Y76199D01*
X13466Y76713D01*
X13463Y76723D01*
X13464Y76740D01*
X13452Y76763D01*
X13441Y76804D01*
X13414Y76905D01*
X13382Y77026D01*
X13334Y77165D01*
X13286Y77304D01*
X13227Y77440D01*
X13162Y77563D01*
X13153Y77577D01*
X13128Y77608D01*
X13085Y77667D01*
X13029Y77734D01*
X12961Y77807D01*
X12880Y77889D01*
X12785Y77960D01*
X12679Y78030D01*
X12673Y78034D01*
X12660Y78041D01*
X12641Y78052D01*
X12618Y78057D01*
X12544Y78091D01*
X12453Y78126D01*
X12345Y78146D01*
X12227Y78163D01*
X12097Y78161D01*
X11969Y78132D01*
X11955Y78123D01*
X11915Y78112D01*
X11853Y78079D01*
X11768Y78035D01*
X11681Y77974D01*
X11590Y77890D01*
X11494Y77783D01*
X11410Y77652D01*
X11377Y77594D01*
X11361Y77552D01*
X11331Y77501D01*
X11308Y77446D01*
X11261Y77319D01*
X11257Y77313D01*
X11252Y77290D01*
X11240Y77254D01*
X11231Y77208D01*
X11218Y77156D01*
X11204Y77087D01*
X11178Y76940D01*
X11175Y76933D01*
X11173Y76900D01*
X11167Y76861D01*
X11163Y76795D01*
X11158Y76712D01*
X11152Y76613D01*
X11149Y76504D01*
X11145Y76378D01*
X10626Y76678D01*
X10623Y76688D01*
X10627Y76711D01*
X10633Y76750D01*
X10640Y76806D01*
X10650Y76869D01*
X10662Y76947D01*
X10677Y77033D01*
X10695Y77125D01*
X10718Y77223D01*
X10751Y77323D01*
X10820Y77548D01*
X10907Y77772D01*
X10957Y77888D01*
X11057Y78061D01*
X11085Y78096D01*
X11125Y78150D01*
X11165Y78204D01*
X11218Y78267D01*
X11275Y78336D01*
X11406Y78474D01*
X11567Y78604D01*
X11649Y78659D01*
X11749Y78712D01*
X11845Y78760D01*
X11949Y78793D01*
X11959Y78796D01*
X11970Y78799D01*
X12000Y78807D01*
X12047Y78814D01*
X12094Y78821D01*
X12150Y78831D01*
X12220Y78833D01*
X12294Y78842D01*
X12459Y78832D01*
D02*
G37*
G36*
X-1008Y66801D02*
X-1345Y66218D01*
X-5299Y68501D01*
X-5702Y67802D01*
X-6067Y68013D01*
X-5436Y69358D01*
X-1008Y66801D01*
D02*
G37*
G36*
X-5950Y66040D02*
X-5905Y66031D01*
X-5849Y66024D01*
X-5786Y66014D01*
X-5707Y66002D01*
X-5622Y65987D01*
X-5528Y65958D01*
X-5429Y65936D01*
X-5322Y65900D01*
X-5215Y65863D01*
X-4982Y65763D01*
X-4738Y65639D01*
X-4732Y65635D01*
X-4712Y65624D01*
X-4680Y65606D01*
X-4639Y65573D01*
X-4581Y65540D01*
X-4521Y65497D01*
X-4454Y65450D01*
X-4375Y65395D01*
X-4220Y65263D01*
X-4050Y65114D01*
X-3878Y64938D01*
X-3724Y64746D01*
X-3717Y64742D01*
X-3706Y64718D01*
X-3687Y64691D01*
X-3667Y64653D01*
X-3633Y64608D01*
X-3600Y64546D01*
X-3523Y64399D01*
X-3450Y64229D01*
X-3376Y64032D01*
X-3322Y63814D01*
X-3290Y63573D01*
X-3288Y63563D01*
X-3289Y63546D01*
X-3291Y63513D01*
X-3287Y63460D01*
X-3298Y63398D01*
X-3302Y63332D01*
X-3310Y63243D01*
X-3329Y63151D01*
X-3345Y63049D01*
X-3375Y62938D01*
X-3406Y62811D01*
X-3453Y62684D01*
X-3504Y62551D01*
X-3563Y62406D01*
X-3638Y62261D01*
X-3716Y62110D01*
X-4564Y60642D01*
X-8954Y63177D01*
X-8066Y64715D01*
X-8026Y64769D01*
X-7985Y64839D01*
X-7934Y64913D01*
X-7876Y64999D01*
X-7804Y65094D01*
X-7660Y65284D01*
X-7493Y65470D01*
X-7311Y65638D01*
X-7217Y65712D01*
X-7124Y65769D01*
X-7120Y65775D01*
X-7100Y65781D01*
X-7072Y65799D01*
X-7038Y65814D01*
X-6990Y65837D01*
X-6932Y65864D01*
X-6800Y65915D01*
X-6635Y65965D01*
X-6446Y66010D01*
X-6236Y66034D01*
X-6010Y66040D01*
X-6004Y66037D01*
X-5983Y66042D01*
X-5950Y66040D01*
D02*
G37*
G36*
X33675Y122065D02*
X33856Y122037D01*
X33948Y122019D01*
X34049Y121986D01*
X34142Y121941D01*
X34242Y121892D01*
X34248Y121888D01*
X34255Y121884D01*
X34274Y121873D01*
X34300Y121858D01*
X34360Y121815D01*
X34436Y121754D01*
X34527Y121676D01*
X34621Y121587D01*
X34708Y121486D01*
X34794Y121368D01*
X34800Y121364D01*
X34803Y121354D01*
X34815Y121330D01*
X34827Y121306D01*
X34848Y121268D01*
X34871Y121221D01*
X34891Y121166D01*
X34920Y121098D01*
X34946Y121024D01*
X34980Y120936D01*
X35007Y120835D01*
X35041Y120730D01*
X35073Y120608D01*
X35105Y120471D01*
X35139Y120323D01*
X35170Y120168D01*
X35229Y119827D01*
X35228Y119810D01*
X35241Y119760D01*
X35260Y119689D01*
X35281Y119591D01*
X35311Y119480D01*
X35352Y119345D01*
X35397Y119200D01*
X35450Y119041D01*
X35455Y119021D01*
X35479Y118973D01*
X35511Y118895D01*
X35558Y118799D01*
X35625Y118692D01*
X35704Y118578D01*
X35793Y118467D01*
X35897Y118364D01*
X36999Y120274D01*
X37512Y119978D01*
X36002Y117363D01*
X35490Y117659D01*
X35483Y117663D01*
X35471Y117687D01*
X35447Y117718D01*
X35417Y117770D01*
X35378Y117835D01*
X35336Y117911D01*
X35285Y118000D01*
X35235Y118106D01*
X35182Y118221D01*
X35120Y118351D01*
X35066Y118494D01*
X35006Y118657D01*
X34943Y118829D01*
X34888Y119015D01*
X34834Y119217D01*
X34787Y119432D01*
X34682Y119946D01*
X34679Y119956D01*
X34680Y119972D01*
X34668Y119996D01*
X34658Y120037D01*
X34631Y120138D01*
X34598Y120259D01*
X34550Y120398D01*
X34502Y120537D01*
X34444Y120673D01*
X34378Y120796D01*
X34369Y120810D01*
X34345Y120841D01*
X34302Y120900D01*
X34246Y120966D01*
X34178Y121040D01*
X34096Y121121D01*
X34001Y121193D01*
X33896Y121263D01*
X33889Y121266D01*
X33877Y121274D01*
X33857Y121285D01*
X33834Y121290D01*
X33760Y121324D01*
X33669Y121359D01*
X33561Y121379D01*
X33443Y121396D01*
X33314Y121394D01*
X33186Y121365D01*
X33172Y121356D01*
X33132Y121345D01*
X33070Y121312D01*
X32984Y121268D01*
X32898Y121206D01*
X32807Y121123D01*
X32711Y121016D01*
X32627Y120885D01*
X32593Y120827D01*
X32577Y120785D01*
X32548Y120733D01*
X32525Y120679D01*
X32477Y120552D01*
X32474Y120546D01*
X32469Y120523D01*
X32457Y120487D01*
X32447Y120441D01*
X32434Y120389D01*
X32420Y120320D01*
X32395Y120173D01*
X32391Y120166D01*
X32389Y120133D01*
X32383Y120094D01*
X32379Y120027D01*
X32375Y119945D01*
X32369Y119846D01*
X32365Y119737D01*
X32361Y119611D01*
X31842Y119911D01*
X31839Y119921D01*
X31844Y119944D01*
X31850Y119983D01*
X31856Y120039D01*
X31867Y120101D01*
X31878Y120180D01*
X31893Y120266D01*
X31912Y120357D01*
X31934Y120455D01*
X31967Y120556D01*
X32037Y120781D01*
X32123Y121004D01*
X32173Y121121D01*
X32273Y121294D01*
X32302Y121328D01*
X32342Y121382D01*
X32381Y121436D01*
X32435Y121500D01*
X32492Y121569D01*
X32623Y121707D01*
X32783Y121837D01*
X32866Y121891D01*
X32965Y121945D01*
X33061Y121992D01*
X33166Y122026D01*
X33176Y122029D01*
X33186Y122031D01*
X33216Y122039D01*
X33263Y122047D01*
X33310Y122054D01*
X33367Y122064D01*
X33437Y122066D01*
X33510Y122075D01*
X33675Y122065D01*
D02*
G37*
G36*
X35381Y116287D02*
X35026Y115672D01*
X30366Y115431D01*
X33757Y113473D01*
X33446Y112935D01*
X29056Y115470D01*
X29407Y116078D01*
X34070Y116326D01*
X30680Y118283D01*
X30991Y118821D01*
X35381Y116287D01*
D02*
G37*
G36*
X29197Y114175D02*
X29193Y114168D01*
X29166Y114150D01*
X29141Y114122D01*
X29096Y114088D01*
X29053Y114044D01*
X28997Y113991D01*
X28871Y113876D01*
X28737Y113748D01*
X28603Y113620D01*
X28543Y113561D01*
X28487Y113508D01*
X28437Y113451D01*
X28401Y113404D01*
X28394Y113391D01*
X28369Y113362D01*
X28337Y113321D01*
X28287Y113265D01*
X28240Y113198D01*
X28185Y113118D01*
X28083Y112955D01*
X28064Y112923D01*
X28045Y112875D01*
X28015Y112823D01*
X27991Y112752D01*
X27953Y112671D01*
X27924Y112577D01*
X27891Y112476D01*
X27872Y112368D01*
X27848Y112253D01*
X27838Y112131D01*
X27833Y112005D01*
X27846Y111879D01*
X27868Y111755D01*
X27903Y111623D01*
X27959Y111497D01*
X27961Y111487D01*
X27977Y111470D01*
X27992Y111436D01*
X28021Y111384D01*
X28058Y111329D01*
X28107Y111266D01*
X28159Y111194D01*
X28224Y111113D01*
X28292Y111023D01*
X28369Y110936D01*
X28463Y110847D01*
X28564Y110755D01*
X28671Y110659D01*
X28788Y110566D01*
X28925Y110478D01*
X29063Y110390D01*
X29069Y110386D01*
X29101Y110368D01*
X29139Y110346D01*
X29201Y110319D01*
X29275Y110284D01*
X29356Y110246D01*
X29453Y110207D01*
X29560Y110171D01*
X29797Y110094D01*
X29928Y110070D01*
X30060Y110045D01*
X30195Y110027D01*
X30333Y110015D01*
X30473Y110020D01*
X30609Y110035D01*
X30619Y110038D01*
X30640Y110043D01*
X30680Y110054D01*
X30731Y110068D01*
X30791Y110084D01*
X30859Y110113D01*
X30941Y110151D01*
X31027Y110196D01*
X31122Y110243D01*
X31216Y110301D01*
X31309Y110374D01*
X31407Y110455D01*
X31506Y110552D01*
X31602Y110659D01*
X31688Y110779D01*
X31773Y110910D01*
X31817Y110987D01*
X31844Y111049D01*
X31877Y111106D01*
X31912Y111180D01*
X31981Y111345D01*
X31985Y111352D01*
X31997Y111388D01*
X32006Y111433D01*
X32029Y111488D01*
X32047Y111564D01*
X32069Y111645D01*
X32109Y111818D01*
X32110Y111835D01*
X32118Y111864D01*
X32125Y111920D01*
X32133Y111993D01*
X32145Y112088D01*
X32155Y112194D01*
X32162Y112326D01*
X32168Y112468D01*
X32700Y112161D01*
X32699Y112144D01*
X32699Y112101D01*
X32689Y112039D01*
X32680Y111950D01*
X32672Y111861D01*
X32662Y111755D01*
X32646Y111654D01*
X32624Y111555D01*
X32620Y111549D01*
X32614Y111510D01*
X32598Y111468D01*
X32584Y111399D01*
X32560Y111327D01*
X32535Y111239D01*
X32464Y111058D01*
X32457Y111045D01*
X32449Y111016D01*
X32429Y110967D01*
X32392Y110903D01*
X32358Y110829D01*
X32316Y110742D01*
X32267Y110642D01*
X32182Y110494D01*
X32142Y110441D01*
X32095Y110374D01*
X32033Y110281D01*
X31961Y110186D01*
X31869Y110086D01*
X31769Y109972D01*
X31663Y109863D01*
X31541Y109754D01*
X31408Y109643D01*
X31266Y109545D01*
X31115Y109461D01*
X30962Y109388D01*
X30793Y109331D01*
X30618Y109295D01*
X30608Y109293D01*
X30575Y109295D01*
X30528Y109288D01*
X30458Y109285D01*
X30368Y109277D01*
X30269Y109283D01*
X30150Y109284D01*
X30021Y109298D01*
X29880Y109320D01*
X29722Y109343D01*
X29566Y109382D01*
X29402Y109425D01*
X29220Y109479D01*
X29045Y109546D01*
X28858Y109636D01*
X28675Y109734D01*
X28662Y109741D01*
X28630Y109759D01*
X28583Y109795D01*
X28512Y109836D01*
X28430Y109901D01*
X28337Y109963D01*
X28240Y110045D01*
X28129Y110134D01*
X28019Y110240D01*
X27903Y110350D01*
X27794Y110473D01*
X27683Y110605D01*
X27579Y110751D01*
X27485Y110899D01*
X27401Y111050D01*
X27329Y111220D01*
X27326Y111230D01*
X27318Y111261D01*
X27304Y111311D01*
X27285Y111382D01*
X27267Y111469D01*
X27253Y111563D01*
X27237Y111683D01*
X27235Y111813D01*
X27234Y111959D01*
X27246Y112114D01*
X27273Y112278D01*
X27307Y112455D01*
X27354Y112641D01*
X27422Y112832D01*
X27514Y113036D01*
X27622Y113238D01*
X27681Y113341D01*
X27721Y113395D01*
X27768Y113461D01*
X27813Y113538D01*
X27877Y113621D01*
X27939Y113713D01*
X28011Y113808D01*
X28097Y113912D01*
X28187Y114023D01*
X28280Y114140D01*
X28383Y114260D01*
X28614Y114511D01*
X29197Y114175D01*
D02*
G37*
G36*
X46244Y135013D02*
X45907Y134430D01*
X41953Y136713D01*
X41550Y136015D01*
X41184Y136225D01*
X41815Y137570D01*
X46244Y135013D01*
D02*
G37*
G36*
X44660Y132271D02*
X44305Y131655D01*
X39646Y131414D01*
X43036Y129457D01*
X42725Y128919D01*
X38335Y131453D01*
X38687Y132062D01*
X43350Y132309D01*
X39959Y134267D01*
X40270Y134805D01*
X44660Y132271D01*
D02*
G37*
G36*
X38476Y130158D02*
X38473Y130152D01*
X38445Y130134D01*
X38420Y130106D01*
X38375Y130072D01*
X38333Y130028D01*
X38276Y129975D01*
X38150Y129860D01*
X38016Y129732D01*
X37883Y129604D01*
X37823Y129545D01*
X37767Y129492D01*
X37717Y129435D01*
X37681Y129387D01*
X37673Y129375D01*
X37648Y129346D01*
X37616Y129305D01*
X37566Y129248D01*
X37519Y129182D01*
X37465Y129102D01*
X37362Y128939D01*
X37343Y128907D01*
X37324Y128858D01*
X37295Y128807D01*
X37270Y128736D01*
X37232Y128655D01*
X37203Y128561D01*
X37171Y128460D01*
X37151Y128352D01*
X37128Y128237D01*
X37117Y128115D01*
X37113Y127989D01*
X37125Y127863D01*
X37147Y127738D01*
X37183Y127607D01*
X37238Y127481D01*
X37241Y127471D01*
X37256Y127453D01*
X37271Y127419D01*
X37301Y127368D01*
X37337Y127313D01*
X37387Y127250D01*
X37439Y127177D01*
X37503Y127097D01*
X37571Y127007D01*
X37649Y126919D01*
X37743Y126831D01*
X37843Y126739D01*
X37950Y126643D01*
X38067Y126549D01*
X38205Y126462D01*
X38342Y126374D01*
X38348Y126370D01*
X38380Y126352D01*
X38419Y126330D01*
X38480Y126303D01*
X38554Y126268D01*
X38635Y126230D01*
X38732Y126191D01*
X38839Y126155D01*
X39077Y126078D01*
X39208Y126053D01*
X39339Y126029D01*
X39474Y126011D01*
X39612Y125999D01*
X39752Y126004D01*
X39889Y126019D01*
X39899Y126022D01*
X39919Y126027D01*
X39959Y126038D01*
X40010Y126052D01*
X40071Y126068D01*
X40139Y126097D01*
X40221Y126135D01*
X40306Y126180D01*
X40402Y126227D01*
X40495Y126284D01*
X40589Y126358D01*
X40686Y126439D01*
X40785Y126535D01*
X40881Y126643D01*
X40968Y126763D01*
X41052Y126894D01*
X41096Y126971D01*
X41123Y127032D01*
X41157Y127090D01*
X41191Y127164D01*
X41260Y127329D01*
X41264Y127336D01*
X41276Y127371D01*
X41286Y127417D01*
X41309Y127472D01*
X41326Y127547D01*
X41348Y127629D01*
X41388Y127802D01*
X41389Y127819D01*
X41398Y127848D01*
X41404Y127904D01*
X41412Y127977D01*
X41424Y128072D01*
X41434Y128177D01*
X41442Y128310D01*
X41447Y128452D01*
X41979Y128145D01*
X41978Y128128D01*
X41979Y128085D01*
X41968Y128023D01*
X41960Y127934D01*
X41951Y127845D01*
X41941Y127739D01*
X41925Y127637D01*
X41903Y127539D01*
X41899Y127533D01*
X41894Y127494D01*
X41878Y127451D01*
X41864Y127383D01*
X41840Y127311D01*
X41814Y127223D01*
X41744Y127042D01*
X41736Y127029D01*
X41728Y126999D01*
X41708Y126951D01*
X41671Y126887D01*
X41637Y126813D01*
X41596Y126726D01*
X41546Y126626D01*
X41461Y126478D01*
X41422Y126424D01*
X41374Y126358D01*
X41313Y126265D01*
X41241Y126170D01*
X41148Y126069D01*
X41049Y125956D01*
X40943Y125846D01*
X40820Y125738D01*
X40687Y125626D01*
X40546Y125529D01*
X40395Y125445D01*
X40241Y125371D01*
X40072Y125315D01*
X39897Y125279D01*
X39887Y125277D01*
X39854Y125278D01*
X39807Y125271D01*
X39738Y125269D01*
X39648Y125261D01*
X39549Y125267D01*
X39429Y125268D01*
X39301Y125282D01*
X39160Y125304D01*
X39002Y125326D01*
X38845Y125366D01*
X38682Y125409D01*
X38499Y125463D01*
X38324Y125530D01*
X38138Y125620D01*
X37954Y125717D01*
X37942Y125725D01*
X37909Y125743D01*
X37862Y125779D01*
X37791Y125820D01*
X37709Y125885D01*
X37617Y125947D01*
X37519Y126029D01*
X37408Y126118D01*
X37299Y126224D01*
X37183Y126334D01*
X37074Y126457D01*
X36962Y126589D01*
X36858Y126735D01*
X36764Y126883D01*
X36681Y127034D01*
X36608Y127204D01*
X36605Y127214D01*
X36597Y127244D01*
X36584Y127295D01*
X36565Y127366D01*
X36547Y127453D01*
X36533Y127547D01*
X36516Y127667D01*
X36514Y127796D01*
X36513Y127942D01*
X36526Y128097D01*
X36552Y128262D01*
X36586Y128439D01*
X36634Y128625D01*
X36702Y128816D01*
X36793Y129020D01*
X36902Y129222D01*
X36961Y129324D01*
X37001Y129378D01*
X37048Y129445D01*
X37092Y129522D01*
X37157Y129604D01*
X37218Y129697D01*
X37291Y129792D01*
X37376Y129896D01*
X37466Y130007D01*
X37559Y130124D01*
X37663Y130244D01*
X37893Y130495D01*
X38476Y130158D01*
D02*
G37*
G36*
X-11726Y35171D02*
X-11616Y35158D01*
X-11498Y35131D01*
X-11488Y35129D01*
X-11468Y35123D01*
X-11437Y35115D01*
X-11389Y35092D01*
X-11342Y35068D01*
X-11274Y35039D01*
X-11204Y34993D01*
X-11125Y34945D01*
X-11043Y34890D01*
X-10959Y34819D01*
X-10861Y34739D01*
X-10773Y34645D01*
X-10677Y34538D01*
X-10583Y34420D01*
X-10489Y34287D01*
X-10394Y34137D01*
X-10342Y34047D01*
X-10326Y34005D01*
X-10277Y33905D01*
X-10221Y33792D01*
X-10166Y33653D01*
X-10104Y33501D01*
X-10047Y33329D01*
X-10566Y33029D01*
X-10570Y33036D01*
X-10571Y33052D01*
X-10579Y33081D01*
X-10581Y33114D01*
X-10591Y33160D01*
X-10607Y33219D01*
X-10634Y33340D01*
X-10677Y33487D01*
X-10732Y33643D01*
X-10798Y33801D01*
X-10877Y33952D01*
X-10903Y33997D01*
X-10928Y34025D01*
X-10950Y34064D01*
X-10982Y34105D01*
X-11061Y34196D01*
X-11166Y34290D01*
X-11277Y34379D01*
X-11411Y34447D01*
X-11479Y34476D01*
X-11556Y34492D01*
X-11562Y34488D01*
X-11576Y34497D01*
X-11629Y34500D01*
X-11705Y34499D01*
X-11814Y34496D01*
X-11937Y34485D01*
X-12070Y34451D01*
X-12213Y34402D01*
X-12362Y34334D01*
X-12368Y34330D01*
X-12381Y34323D01*
X-12407Y34308D01*
X-12435Y34283D01*
X-12470Y34254D01*
X-12511Y34222D01*
X-12602Y34143D01*
X-12692Y34032D01*
X-12780Y33904D01*
X-12816Y33832D01*
X-12847Y33754D01*
X-12876Y33670D01*
X-12893Y33582D01*
X-12896Y33572D01*
X-12899Y33562D01*
X-12901Y33536D01*
X-12901Y33492D01*
X-12902Y33449D01*
X-12896Y33393D01*
X-12891Y33327D01*
X-12884Y33255D01*
X-12869Y33169D01*
X-12854Y33084D01*
X-12821Y32983D01*
X-12788Y32882D01*
X-12749Y32769D01*
X-12698Y32653D01*
X-12645Y32530D01*
X-12512Y32299D01*
X-12479Y32258D01*
X-12446Y32200D01*
X-12366Y32092D01*
X-14501Y30860D01*
X-15777Y33071D01*
X-15264Y33367D01*
X-14284Y31669D01*
X-13130Y32335D01*
X-13182Y32425D01*
X-13209Y32486D01*
X-13247Y32566D01*
X-13292Y32660D01*
X-13335Y32763D01*
X-13375Y32877D01*
X-13450Y33125D01*
X-13484Y33259D01*
X-13502Y33393D01*
X-13520Y33528D01*
X-13522Y33664D01*
X-13513Y33797D01*
X-13488Y33931D01*
X-13485Y33941D01*
X-13480Y33962D01*
X-13465Y33996D01*
X-13452Y34046D01*
X-13432Y34100D01*
X-13403Y34168D01*
X-13367Y34240D01*
X-13326Y34316D01*
X-13277Y34395D01*
X-13220Y34488D01*
X-13155Y34568D01*
X-13077Y34655D01*
X-13000Y34743D01*
X-12908Y34821D01*
X-12807Y34897D01*
X-12695Y34970D01*
X-12689Y34974D01*
X-12669Y34985D01*
X-12637Y35003D01*
X-12595Y35019D01*
X-12540Y35042D01*
X-12485Y35066D01*
X-12414Y35090D01*
X-12332Y35111D01*
X-12152Y35155D01*
X-12057Y35168D01*
X-11952Y35177D01*
X-11842Y35180D01*
X-11726Y35171D01*
D02*
G37*
G36*
X-8342Y30331D02*
X-12296Y28048D01*
X-11893Y27350D01*
X-12258Y27139D01*
X-13107Y28358D01*
X-8679Y30915D01*
X-8342Y30331D01*
D02*
G37*
G36*
X-7439Y28264D02*
X-7401Y28243D01*
X-7352Y28203D01*
X-7280Y28151D01*
X-7207Y28099D01*
X-7120Y28038D01*
X-7040Y27973D01*
X-6966Y27904D01*
X-6963Y27898D01*
X-6931Y27873D01*
X-6903Y27838D01*
X-6850Y27792D01*
X-6800Y27735D01*
X-6737Y27669D01*
X-6615Y27518D01*
X-6608Y27505D01*
X-6586Y27483D01*
X-6554Y27442D01*
X-6517Y27378D01*
X-6470Y27311D01*
X-6415Y27231D01*
X-6353Y27139D01*
X-6268Y26991D01*
X-6242Y26930D01*
X-6207Y26856D01*
X-6158Y26756D01*
X-6112Y26646D01*
X-6071Y26516D01*
X-6022Y26373D01*
X-5980Y26226D01*
X-5948Y26066D01*
X-5917Y25895D01*
X-5904Y25723D01*
X-5907Y25551D01*
X-5920Y25381D01*
X-5956Y25207D01*
X-6012Y25037D01*
X-6015Y25027D01*
X-6033Y25000D01*
X-6050Y24956D01*
X-6083Y24894D01*
X-6121Y24812D01*
X-6176Y24729D01*
X-6236Y24626D01*
X-6312Y24522D01*
X-6402Y24411D01*
X-6500Y24285D01*
X-6613Y24169D01*
X-6732Y24049D01*
X-6870Y23918D01*
X-7015Y23800D01*
X-7187Y23684D01*
X-7363Y23574D01*
X-7376Y23566D01*
X-7408Y23548D01*
X-7463Y23525D01*
X-7533Y23484D01*
X-7630Y23445D01*
X-7730Y23396D01*
X-7850Y23352D01*
X-7983Y23301D01*
X-8130Y23259D01*
X-8283Y23214D01*
X-8443Y23181D01*
X-8614Y23151D01*
X-8792Y23133D01*
X-8967Y23126D01*
X-9140Y23129D01*
X-9323Y23151D01*
X-9334Y23154D01*
X-9364Y23162D01*
X-9414Y23176D01*
X-9485Y23194D01*
X-9570Y23223D01*
X-9658Y23257D01*
X-9770Y23303D01*
X-9883Y23366D01*
X-10010Y23438D01*
X-10138Y23527D01*
X-10267Y23631D01*
X-10404Y23749D01*
X-10541Y23884D01*
X-10673Y24038D01*
X-10803Y24219D01*
X-10924Y24414D01*
X-10983Y24517D01*
X-11010Y24578D01*
X-11045Y24652D01*
X-11089Y24729D01*
X-11128Y24826D01*
X-11177Y24926D01*
X-11224Y25036D01*
X-11271Y25163D01*
X-11322Y25295D01*
X-11377Y25435D01*
X-11429Y25584D01*
X-11531Y25910D01*
X-10948Y26246D01*
X-10944Y26240D01*
X-10942Y26207D01*
X-10930Y26171D01*
X-10924Y26115D01*
X-10907Y26056D01*
X-10889Y25981D01*
X-10853Y25814D01*
X-10809Y25635D01*
X-10765Y25455D01*
X-10743Y25373D01*
X-10725Y25298D01*
X-10701Y25227D01*
X-10678Y25172D01*
X-10671Y25159D01*
X-10659Y25123D01*
X-10639Y25075D01*
X-10615Y25003D01*
X-10581Y24929D01*
X-10539Y24842D01*
X-10449Y24672D01*
X-10431Y24640D01*
X-10398Y24598D01*
X-10369Y24547D01*
X-10319Y24490D01*
X-10268Y24417D01*
X-10201Y24345D01*
X-10130Y24266D01*
X-10046Y24195D01*
X-9958Y24117D01*
X-9858Y24047D01*
X-9751Y23981D01*
X-9635Y23928D01*
X-9517Y23885D01*
X-9385Y23850D01*
X-9248Y23835D01*
X-9238Y23832D01*
X-9215Y23837D01*
X-9179Y23833D01*
X-9119Y23833D01*
X-9053Y23837D01*
X-8974Y23848D01*
X-8885Y23857D01*
X-8783Y23873D01*
X-8671Y23886D01*
X-8557Y23910D01*
X-8433Y23947D01*
X-8303Y23988D01*
X-8166Y24033D01*
X-8027Y24088D01*
X-7882Y24163D01*
X-7738Y24238D01*
X-7731Y24241D01*
X-7699Y24260D01*
X-7661Y24282D01*
X-7607Y24322D01*
X-7540Y24369D01*
X-7467Y24420D01*
X-7384Y24484D01*
X-7299Y24559D01*
X-7114Y24726D01*
X-7027Y24827D01*
X-6940Y24929D01*
X-6857Y25036D01*
X-6778Y25150D01*
X-6712Y25274D01*
X-6657Y25400D01*
X-6654Y25410D01*
X-6649Y25430D01*
X-6638Y25471D01*
X-6624Y25521D01*
X-6608Y25582D01*
X-6599Y25655D01*
X-6592Y25745D01*
X-6587Y25842D01*
X-6580Y25948D01*
X-6584Y26057D01*
X-6601Y26176D01*
X-6622Y26300D01*
X-6656Y26434D01*
X-6701Y26571D01*
X-6762Y26706D01*
X-6833Y26845D01*
X-6878Y26922D01*
X-6917Y26976D01*
X-6951Y27033D01*
X-6998Y27100D01*
X-7106Y27243D01*
X-7109Y27249D01*
X-7134Y27277D01*
X-7169Y27308D01*
X-7205Y27356D01*
X-7262Y27409D01*
X-7322Y27468D01*
X-7451Y27590D01*
X-7465Y27599D01*
X-7486Y27621D01*
X-7532Y27655D01*
X-7591Y27698D01*
X-7667Y27756D01*
X-7754Y27817D01*
X-7864Y27890D01*
X-7985Y27966D01*
X-7453Y28273D01*
X-7439Y28264D01*
D02*
G37*
G36*
X13753Y88320D02*
X14094Y88910D01*
X14574Y88632D01*
X14234Y88043D01*
X15477Y87325D01*
X15159Y86774D01*
X13916Y87492D01*
X12780Y85524D01*
X12338Y85780D01*
X10769Y89308D01*
X11087Y89859D01*
X13753Y88320D01*
D02*
G37*
G36*
X12880Y82826D02*
X12543Y82243D01*
X8589Y84526D01*
X8186Y83827D01*
X7820Y84038D01*
X8451Y85383D01*
X12880Y82826D01*
D02*
G37*
G36*
X7702Y82457D02*
X7699Y82451D01*
X7671Y82433D01*
X7646Y82404D01*
X7601Y82371D01*
X7559Y82327D01*
X7502Y82274D01*
X7376Y82159D01*
X7242Y82031D01*
X7109Y81903D01*
X7049Y81843D01*
X6993Y81790D01*
X6943Y81734D01*
X6907Y81686D01*
X6899Y81673D01*
X6875Y81645D01*
X6842Y81604D01*
X6792Y81547D01*
X6745Y81480D01*
X6691Y81401D01*
X6588Y81238D01*
X6570Y81206D01*
X6550Y81157D01*
X6521Y81106D01*
X6496Y81034D01*
X6458Y80954D01*
X6430Y80860D01*
X6397Y80759D01*
X6377Y80651D01*
X6354Y80536D01*
X6343Y80414D01*
X6339Y80288D01*
X6351Y80161D01*
X6374Y80037D01*
X6409Y79906D01*
X6464Y79780D01*
X6467Y79770D01*
X6482Y79752D01*
X6497Y79718D01*
X6527Y79667D01*
X6564Y79611D01*
X6613Y79549D01*
X6665Y79476D01*
X6730Y79396D01*
X6797Y79306D01*
X6875Y79218D01*
X6969Y79130D01*
X7069Y79037D01*
X7176Y78942D01*
X7293Y78848D01*
X7431Y78760D01*
X7568Y78673D01*
X7574Y78669D01*
X7606Y78650D01*
X7645Y78628D01*
X7706Y78601D01*
X7780Y78567D01*
X7861Y78529D01*
X7958Y78490D01*
X8065Y78454D01*
X8303Y78377D01*
X8434Y78352D01*
X8565Y78328D01*
X8700Y78310D01*
X8839Y78298D01*
X8978Y78303D01*
X9115Y78318D01*
X9125Y78321D01*
X9145Y78326D01*
X9186Y78337D01*
X9236Y78350D01*
X9297Y78367D01*
X9365Y78396D01*
X9447Y78434D01*
X9532Y78478D01*
X9628Y78526D01*
X9721Y78583D01*
X9815Y78657D01*
X9912Y78737D01*
X10011Y78834D01*
X10107Y78941D01*
X10194Y79062D01*
X10278Y79193D01*
X10322Y79270D01*
X10349Y79331D01*
X10383Y79389D01*
X10417Y79463D01*
X10486Y79628D01*
X10490Y79634D01*
X10502Y79670D01*
X10512Y79716D01*
X10535Y79771D01*
X10553Y79846D01*
X10574Y79928D01*
X10614Y80101D01*
X10615Y80118D01*
X10624Y80147D01*
X10630Y80203D01*
X10638Y80275D01*
X10650Y80371D01*
X10660Y80476D01*
X10668Y80608D01*
X10673Y80751D01*
X11205Y80444D01*
X11204Y80427D01*
X11205Y80384D01*
X11195Y80322D01*
X11186Y80233D01*
X11177Y80143D01*
X11168Y80038D01*
X11152Y79936D01*
X11129Y79838D01*
X11125Y79832D01*
X11120Y79792D01*
X11104Y79750D01*
X11090Y79681D01*
X11066Y79610D01*
X11040Y79522D01*
X10970Y79340D01*
X10962Y79328D01*
X10954Y79298D01*
X10935Y79250D01*
X10898Y79186D01*
X10863Y79111D01*
X10822Y79024D01*
X10773Y78925D01*
X10687Y78777D01*
X10648Y78723D01*
X10601Y78656D01*
X10539Y78564D01*
X10467Y78469D01*
X10374Y78368D01*
X10275Y78255D01*
X10169Y78145D01*
X10046Y78036D01*
X9913Y77925D01*
X9772Y77828D01*
X9621Y77744D01*
X9467Y77670D01*
X9298Y77614D01*
X9123Y77578D01*
X9113Y77575D01*
X9080Y77577D01*
X9033Y77570D01*
X8964Y77568D01*
X8874Y77560D01*
X8775Y77566D01*
X8655Y77566D01*
X8527Y77581D01*
X8386Y77602D01*
X8228Y77625D01*
X8071Y77664D01*
X7908Y77707D01*
X7726Y77761D01*
X7551Y77828D01*
X7364Y77919D01*
X7181Y78016D01*
X7168Y78024D01*
X7136Y78042D01*
X7088Y78078D01*
X7018Y78119D01*
X6935Y78184D01*
X6843Y78245D01*
X6745Y78328D01*
X6634Y78417D01*
X6525Y78523D01*
X6409Y78633D01*
X6300Y78755D01*
X6188Y78888D01*
X6084Y79034D01*
X5991Y79182D01*
X5907Y79333D01*
X5834Y79503D01*
X5832Y79513D01*
X5823Y79543D01*
X5810Y79594D01*
X5791Y79664D01*
X5773Y79752D01*
X5759Y79845D01*
X5743Y79966D01*
X5740Y80095D01*
X5739Y80241D01*
X5752Y80396D01*
X5778Y80560D01*
X5812Y80737D01*
X5860Y80923D01*
X5928Y81115D01*
X6019Y81318D01*
X6128Y81521D01*
X6187Y81623D01*
X6227Y81677D01*
X6274Y81744D01*
X6318Y81821D01*
X6383Y81903D01*
X6445Y81996D01*
X6517Y82091D01*
X6602Y82195D01*
X6692Y82306D01*
X6785Y82423D01*
X6889Y82543D01*
X7119Y82794D01*
X7702Y82457D01*
D02*
G37*
G36*
X-62757Y138515D02*
X-62643Y138495D01*
X-62633Y138492D01*
X-62613Y138487D01*
X-62583Y138479D01*
X-62538Y138462D01*
X-62484Y138442D01*
X-62426Y138415D01*
X-62354Y138380D01*
X-62282Y138328D01*
X-62199Y138273D01*
X-62112Y138212D01*
X-62025Y138134D01*
X-61930Y138044D01*
X-61838Y137943D01*
X-61744Y137826D01*
X-61650Y137693D01*
X-61559Y137549D01*
X-61518Y137478D01*
X-61498Y137430D01*
X-61473Y137385D01*
X-61446Y137324D01*
X-61419Y137262D01*
X-61384Y137188D01*
X-61347Y137108D01*
X-61308Y137010D01*
X-61269Y136913D01*
X-61192Y136692D01*
X-61111Y136449D01*
X-61656Y136134D01*
X-61660Y136141D01*
X-61658Y136167D01*
X-61670Y136203D01*
X-61677Y136259D01*
X-61687Y136321D01*
X-61705Y136396D01*
X-61723Y136472D01*
X-61742Y136563D01*
X-61786Y136743D01*
X-61843Y136932D01*
X-61906Y137100D01*
X-61979Y137255D01*
X-62001Y137294D01*
X-62026Y137322D01*
X-62048Y137361D01*
X-62077Y137395D01*
X-62151Y137480D01*
X-62240Y137574D01*
X-62351Y137664D01*
X-62476Y137746D01*
X-62618Y137800D01*
X-62638Y137806D01*
X-62689Y137819D01*
X-62762Y137828D01*
X-62869Y137835D01*
X-62988Y137835D01*
X-63113Y137814D01*
X-63260Y137772D01*
X-63402Y137707D01*
X-63408Y137703D01*
X-63421Y137696D01*
X-63440Y137685D01*
X-63462Y137663D01*
X-63529Y137616D01*
X-63607Y137545D01*
X-63691Y137454D01*
X-63771Y137340D01*
X-63839Y137207D01*
X-63874Y137135D01*
X-63896Y137054D01*
X-63902Y137050D01*
X-63902Y137034D01*
X-63903Y137007D01*
X-63911Y136977D01*
X-63912Y136934D01*
X-63915Y136880D01*
X-63912Y136814D01*
X-63904Y136742D01*
X-63893Y136663D01*
X-63871Y136581D01*
X-63845Y136477D01*
X-63812Y136376D01*
X-63772Y136262D01*
X-63719Y136140D01*
X-63657Y136004D01*
X-63446Y135639D01*
X-63837Y135413D01*
X-63959Y135608D01*
X-63995Y135672D01*
X-64031Y135720D01*
X-64065Y135777D01*
X-64108Y135838D01*
X-64213Y135974D01*
X-64337Y136116D01*
X-64468Y136254D01*
X-64541Y136306D01*
X-64613Y136358D01*
X-64689Y136400D01*
X-64763Y136425D01*
X-64784Y136430D01*
X-64830Y136438D01*
X-64914Y136449D01*
X-65010Y136453D01*
X-65126Y136446D01*
X-65254Y136432D01*
X-65378Y136395D01*
X-65514Y136334D01*
X-65520Y136330D01*
X-65527Y136326D01*
X-65565Y136304D01*
X-65609Y136261D01*
X-65672Y136208D01*
X-65734Y136138D01*
X-65799Y136058D01*
X-65846Y135962D01*
X-65882Y135847D01*
X-65885Y135837D01*
X-65892Y135790D01*
X-65892Y135731D01*
X-65890Y135638D01*
X-65874Y135536D01*
X-65847Y135415D01*
X-65796Y135282D01*
X-65721Y135138D01*
X-65695Y135093D01*
X-65670Y135064D01*
X-65648Y135026D01*
X-65615Y134985D01*
X-65575Y134931D01*
X-65526Y134874D01*
X-65419Y134748D01*
X-65281Y134614D01*
X-65120Y134467D01*
X-64932Y134320D01*
X-65438Y134027D01*
X-65442Y134034D01*
X-65456Y134043D01*
X-65473Y134058D01*
X-65495Y134080D01*
X-65551Y134133D01*
X-65625Y134202D01*
X-65706Y134283D01*
X-65787Y134364D01*
X-65862Y134450D01*
X-65922Y134525D01*
X-65930Y134538D01*
X-65951Y134560D01*
X-65973Y134599D01*
X-66009Y134646D01*
X-66053Y134706D01*
X-66093Y134777D01*
X-66185Y134921D01*
X-66222Y134985D01*
X-66245Y135040D01*
X-66278Y135098D01*
X-66309Y135165D01*
X-66341Y135249D01*
X-66379Y135330D01*
X-66436Y135519D01*
X-66485Y135722D01*
X-66513Y135919D01*
X-66509Y136015D01*
X-66495Y136109D01*
X-66499Y136115D01*
X-66489Y136129D01*
X-66473Y136190D01*
X-66445Y136274D01*
X-66399Y136387D01*
X-66327Y136513D01*
X-66228Y136639D01*
X-66110Y136759D01*
X-66030Y136813D01*
X-65950Y136868D01*
X-65938Y136875D01*
X-65905Y136894D01*
X-65857Y136913D01*
X-65789Y136944D01*
X-65711Y136971D01*
X-65627Y137003D01*
X-65535Y137022D01*
X-65440Y137034D01*
X-65430Y137031D01*
X-65397Y137033D01*
X-65347Y137037D01*
X-65284Y137030D01*
X-65200Y137019D01*
X-65117Y137007D01*
X-65019Y136986D01*
X-64915Y136953D01*
X-64904Y136950D01*
X-64870Y136936D01*
X-64812Y136909D01*
X-64737Y136867D01*
X-64648Y136817D01*
X-64545Y136756D01*
X-64430Y136677D01*
X-64315Y136581D01*
X-64319Y136588D01*
X-64320Y136604D01*
X-64328Y136634D01*
X-64337Y136663D01*
X-64362Y136751D01*
X-64385Y136865D01*
X-64406Y136990D01*
X-64424Y137125D01*
X-64432Y137257D01*
X-64423Y137374D01*
X-64420Y137384D01*
X-64415Y137421D01*
X-64399Y137481D01*
X-64384Y137558D01*
X-64362Y137639D01*
X-64321Y137731D01*
X-64274Y137827D01*
X-64217Y137920D01*
X-64208Y137934D01*
X-64189Y137961D01*
X-64145Y138004D01*
X-64096Y138066D01*
X-64030Y138130D01*
X-63954Y138191D01*
X-63866Y138259D01*
X-63767Y138325D01*
X-63760Y138329D01*
X-63741Y138340D01*
X-63716Y138354D01*
X-63680Y138366D01*
X-63631Y138386D01*
X-63570Y138413D01*
X-63505Y138433D01*
X-63433Y138458D01*
X-63266Y138494D01*
X-63076Y138519D01*
X-62976Y138525D01*
X-62867Y138528D01*
X-62757Y138515D01*
D02*
G37*
G36*
X-59425Y133602D02*
X-63380Y131320D01*
X-62976Y130621D01*
X-63341Y130410D01*
X-64190Y131629D01*
X-59762Y134186D01*
X-59425Y133602D01*
D02*
G37*
G36*
X-58522Y131535D02*
X-58485Y131514D01*
X-58436Y131474D01*
X-58363Y131422D01*
X-58290Y131370D01*
X-58204Y131309D01*
X-58123Y131244D01*
X-58050Y131175D01*
X-58046Y131169D01*
X-58015Y131144D01*
X-57986Y131109D01*
X-57934Y131063D01*
X-57884Y131006D01*
X-57820Y130940D01*
X-57698Y130789D01*
X-57691Y130776D01*
X-57670Y130754D01*
X-57637Y130713D01*
X-57600Y130649D01*
X-57553Y130582D01*
X-57499Y130502D01*
X-57437Y130410D01*
X-57352Y130262D01*
X-57325Y130201D01*
X-57291Y130127D01*
X-57241Y130027D01*
X-57195Y129917D01*
X-57154Y129787D01*
X-57106Y129644D01*
X-57064Y129497D01*
X-57031Y129337D01*
X-57001Y129166D01*
X-56987Y128995D01*
X-56990Y128822D01*
X-57003Y128652D01*
X-57039Y128478D01*
X-57095Y128308D01*
X-57098Y128298D01*
X-57116Y128271D01*
X-57133Y128227D01*
X-57166Y128165D01*
X-57204Y128083D01*
X-57259Y128000D01*
X-57319Y127897D01*
X-57396Y127793D01*
X-57485Y127682D01*
X-57584Y127556D01*
X-57696Y127440D01*
X-57815Y127320D01*
X-57953Y127190D01*
X-58099Y127071D01*
X-58271Y126955D01*
X-58446Y126845D01*
X-58459Y126838D01*
X-58491Y126819D01*
X-58546Y126796D01*
X-58617Y126755D01*
X-58714Y126716D01*
X-58814Y126667D01*
X-58934Y126623D01*
X-59066Y126572D01*
X-59213Y126530D01*
X-59366Y126485D01*
X-59527Y126452D01*
X-59697Y126422D01*
X-59875Y126404D01*
X-60050Y126397D01*
X-60223Y126400D01*
X-60407Y126422D01*
X-60417Y126425D01*
X-60447Y126433D01*
X-60498Y126447D01*
X-60568Y126466D01*
X-60653Y126494D01*
X-60741Y126528D01*
X-60853Y126574D01*
X-60967Y126637D01*
X-61094Y126709D01*
X-61222Y126798D01*
X-61351Y126903D01*
X-61487Y127021D01*
X-61624Y127155D01*
X-61756Y127309D01*
X-61887Y127490D01*
X-62008Y127685D01*
X-62067Y127788D01*
X-62094Y127849D01*
X-62128Y127924D01*
X-62172Y128000D01*
X-62211Y128098D01*
X-62261Y128197D01*
X-62307Y128307D01*
X-62354Y128434D01*
X-62405Y128567D01*
X-62460Y128706D01*
X-62512Y128855D01*
X-62615Y129181D01*
X-62031Y129517D01*
X-62028Y129511D01*
X-62026Y129478D01*
X-62014Y129442D01*
X-62007Y129386D01*
X-61990Y129328D01*
X-61972Y129252D01*
X-61936Y129086D01*
X-61892Y128906D01*
X-61848Y128726D01*
X-61826Y128645D01*
X-61809Y128569D01*
X-61785Y128498D01*
X-61761Y128443D01*
X-61754Y128430D01*
X-61742Y128394D01*
X-61722Y128346D01*
X-61698Y128274D01*
X-61664Y128200D01*
X-61622Y128113D01*
X-61532Y127943D01*
X-61514Y127911D01*
X-61482Y127869D01*
X-61452Y127818D01*
X-61402Y127762D01*
X-61351Y127688D01*
X-61284Y127616D01*
X-61213Y127538D01*
X-61129Y127466D01*
X-61042Y127389D01*
X-60941Y127318D01*
X-60834Y127252D01*
X-60719Y127199D01*
X-60600Y127157D01*
X-60469Y127121D01*
X-60332Y127106D01*
X-60322Y127104D01*
X-60299Y127108D01*
X-60262Y127104D01*
X-60202Y127104D01*
X-60136Y127108D01*
X-60057Y127120D01*
X-59968Y127128D01*
X-59867Y127144D01*
X-59755Y127158D01*
X-59640Y127181D01*
X-59516Y127218D01*
X-59386Y127259D01*
X-59250Y127304D01*
X-59110Y127359D01*
X-58966Y127434D01*
X-58821Y127509D01*
X-58815Y127512D01*
X-58783Y127531D01*
X-58744Y127553D01*
X-58690Y127593D01*
X-58623Y127640D01*
X-58550Y127691D01*
X-58468Y127755D01*
X-58383Y127830D01*
X-58197Y127997D01*
X-58110Y128098D01*
X-58024Y128200D01*
X-57941Y128307D01*
X-57861Y128422D01*
X-57796Y128545D01*
X-57740Y128671D01*
X-57738Y128681D01*
X-57732Y128701D01*
X-57721Y128742D01*
X-57708Y128792D01*
X-57692Y128853D01*
X-57683Y128926D01*
X-57675Y129016D01*
X-57671Y129113D01*
X-57664Y129219D01*
X-57667Y129329D01*
X-57684Y129447D01*
X-57705Y129571D01*
X-57739Y129705D01*
X-57784Y129842D01*
X-57845Y129978D01*
X-57916Y130116D01*
X-57961Y130193D01*
X-58001Y130247D01*
X-58034Y130304D01*
X-58081Y130371D01*
X-58189Y130514D01*
X-58193Y130520D01*
X-58218Y130549D01*
X-58253Y130580D01*
X-58289Y130627D01*
X-58345Y130680D01*
X-58405Y130740D01*
X-58535Y130861D01*
X-58549Y130870D01*
X-58570Y130892D01*
X-58615Y130926D01*
X-58674Y130969D01*
X-58750Y131027D01*
X-58837Y131088D01*
X-58947Y131161D01*
X-59068Y131237D01*
X-58536Y131544D01*
X-58522Y131535D01*
D02*
G37*
G36*
X-66526Y132974D02*
X-67038Y132678D01*
X-67045Y132675D01*
X-67071Y132676D01*
X-67111Y132671D01*
X-67171Y132670D01*
X-67247Y132669D01*
X-67333Y132670D01*
X-67436Y132671D01*
X-67552Y132680D01*
X-67679Y132693D01*
X-67822Y132704D01*
X-67973Y132728D01*
X-68144Y132758D01*
X-68325Y132790D01*
X-68513Y132835D01*
X-68715Y132889D01*
X-68925Y132956D01*
X-69422Y133122D01*
X-69432Y133125D01*
X-69446Y133134D01*
X-69473Y133135D01*
X-69513Y133146D01*
X-69614Y133173D01*
X-69736Y133206D01*
X-69880Y133234D01*
X-70024Y133262D01*
X-70171Y133279D01*
X-70310Y133284D01*
X-70327Y133283D01*
X-70366Y133277D01*
X-70439Y133270D01*
X-70524Y133255D01*
X-70622Y133232D01*
X-70733Y133202D01*
X-70843Y133156D01*
X-70956Y133099D01*
X-70962Y133096D01*
X-70975Y133088D01*
X-70994Y133077D01*
X-71010Y133060D01*
X-71077Y133013D01*
X-71153Y132952D01*
X-71224Y132868D01*
X-71298Y132774D01*
X-71360Y132661D01*
X-71399Y132536D01*
X-71398Y132519D01*
X-71409Y132479D01*
X-71412Y132409D01*
X-71416Y132313D01*
X-71406Y132207D01*
X-71379Y132086D01*
X-71334Y131950D01*
X-71263Y131811D01*
X-71230Y131754D01*
X-71201Y131719D01*
X-71172Y131668D01*
X-71136Y131620D01*
X-71050Y131516D01*
X-71046Y131509D01*
X-71029Y131494D01*
X-71004Y131465D01*
X-70969Y131434D01*
X-70930Y131397D01*
X-70877Y131350D01*
X-70762Y131254D01*
X-70758Y131248D01*
X-70731Y131230D01*
X-70700Y131205D01*
X-70644Y131169D01*
X-70575Y131123D01*
X-70492Y131069D01*
X-70399Y131011D01*
X-70293Y130945D01*
X-70812Y130645D01*
X-70822Y130648D01*
X-70839Y130663D01*
X-70871Y130688D01*
X-70916Y130721D01*
X-70965Y130762D01*
X-71027Y130811D01*
X-71094Y130867D01*
X-71164Y130929D01*
X-71237Y130997D01*
X-71308Y131076D01*
X-71468Y131249D01*
X-71618Y131435D01*
X-71694Y131537D01*
X-71794Y131710D01*
X-71810Y131752D01*
X-71837Y131813D01*
X-71864Y131875D01*
X-71891Y131953D01*
X-71923Y132037D01*
X-71977Y132219D01*
X-72009Y132423D01*
X-72015Y132522D01*
X-72012Y132635D01*
X-72005Y132741D01*
X-71982Y132849D01*
X-71979Y132859D01*
X-71976Y132869D01*
X-71968Y132899D01*
X-71951Y132944D01*
X-71934Y132988D01*
X-71914Y133042D01*
X-71881Y133104D01*
X-71852Y133172D01*
X-71761Y133310D01*
X-71647Y133453D01*
X-71585Y133523D01*
X-71506Y133594D01*
X-71420Y133652D01*
X-71328Y133714D01*
X-71321Y133717D01*
X-71315Y133721D01*
X-71295Y133732D01*
X-71270Y133747D01*
X-71202Y133778D01*
X-71111Y133813D01*
X-70998Y133853D01*
X-70874Y133890D01*
X-70743Y133915D01*
X-70598Y133930D01*
X-70591Y133934D01*
X-70581Y133931D01*
X-70555Y133929D01*
X-70528Y133928D01*
X-70485Y133927D01*
X-70432Y133923D01*
X-70375Y133914D01*
X-70301Y133905D01*
X-70224Y133889D01*
X-70130Y133875D01*
X-70029Y133848D01*
X-69922Y133825D01*
X-69801Y133792D01*
X-69665Y133750D01*
X-69520Y133706D01*
X-69371Y133655D01*
X-69046Y133536D01*
X-69032Y133527D01*
X-68981Y133513D01*
X-68911Y133494D01*
X-68816Y133463D01*
X-68705Y133433D01*
X-68567Y133402D01*
X-68419Y133368D01*
X-68255Y133335D01*
X-68234Y133329D01*
X-68181Y133326D01*
X-68098Y133314D01*
X-67991Y133307D01*
X-67865Y133311D01*
X-67727Y133323D01*
X-67586Y133345D01*
X-67445Y133383D01*
X-68548Y135293D01*
X-68035Y135589D01*
X-66526Y132974D01*
D02*
G37*
G36*
X-64935Y130219D02*
X-68889Y127936D01*
X-68485Y127237D01*
X-68851Y127026D01*
X-69700Y128245D01*
X-65271Y130802D01*
X-64935Y130219D01*
D02*
G37*
G36*
X-64031Y128151D02*
X-63994Y128130D01*
X-63945Y128090D01*
X-63872Y128038D01*
X-63799Y127986D01*
X-63713Y127925D01*
X-63633Y127860D01*
X-63559Y127791D01*
X-63555Y127785D01*
X-63524Y127760D01*
X-63495Y127726D01*
X-63443Y127679D01*
X-63393Y127622D01*
X-63329Y127557D01*
X-63208Y127405D01*
X-63200Y127392D01*
X-63179Y127370D01*
X-63147Y127329D01*
X-63110Y127265D01*
X-63063Y127198D01*
X-63008Y127118D01*
X-62946Y127026D01*
X-62861Y126878D01*
X-62834Y126817D01*
X-62800Y126743D01*
X-62751Y126643D01*
X-62704Y126533D01*
X-62663Y126403D01*
X-62615Y126260D01*
X-62573Y126113D01*
X-62540Y125953D01*
X-62510Y125782D01*
X-62497Y125611D01*
X-62499Y125438D01*
X-62512Y125268D01*
X-62548Y125094D01*
X-62604Y124925D01*
X-62607Y124914D01*
X-62625Y124887D01*
X-62643Y124843D01*
X-62675Y124781D01*
X-62714Y124699D01*
X-62768Y124616D01*
X-62828Y124513D01*
X-62905Y124409D01*
X-62995Y124298D01*
X-63093Y124172D01*
X-63205Y124056D01*
X-63324Y123936D01*
X-63462Y123805D01*
X-63608Y123687D01*
X-63780Y123571D01*
X-63955Y123461D01*
X-63968Y123454D01*
X-64000Y123435D01*
X-64055Y123412D01*
X-64126Y123371D01*
X-64223Y123332D01*
X-64323Y123283D01*
X-64443Y123239D01*
X-64576Y123188D01*
X-64722Y123146D01*
X-64875Y123101D01*
X-65036Y123068D01*
X-65206Y123038D01*
X-65385Y123021D01*
X-65560Y123013D01*
X-65732Y123016D01*
X-65916Y123038D01*
X-65926Y123041D01*
X-65956Y123049D01*
X-66007Y123063D01*
X-66078Y123082D01*
X-66162Y123110D01*
X-66251Y123144D01*
X-66363Y123190D01*
X-66476Y123253D01*
X-66603Y123325D01*
X-66731Y123414D01*
X-66860Y123519D01*
X-66996Y123636D01*
X-67134Y123771D01*
X-67265Y123925D01*
X-67396Y124107D01*
X-67517Y124302D01*
X-67576Y124404D01*
X-67603Y124465D01*
X-67637Y124540D01*
X-67682Y124617D01*
X-67721Y124714D01*
X-67770Y124813D01*
X-67816Y124923D01*
X-67864Y125050D01*
X-67915Y125183D01*
X-67969Y125322D01*
X-68021Y125471D01*
X-68124Y125797D01*
X-67541Y126133D01*
X-67537Y126127D01*
X-67535Y126094D01*
X-67523Y126058D01*
X-67516Y126002D01*
X-67499Y125944D01*
X-67482Y125868D01*
X-67445Y125701D01*
X-67401Y125522D01*
X-67357Y125342D01*
X-67336Y125260D01*
X-67318Y125185D01*
X-67294Y125114D01*
X-67271Y125059D01*
X-67263Y125046D01*
X-67251Y125010D01*
X-67232Y124962D01*
X-67207Y124890D01*
X-67173Y124816D01*
X-67131Y124729D01*
X-67042Y124559D01*
X-67023Y124527D01*
X-66991Y124486D01*
X-66961Y124434D01*
X-66911Y124378D01*
X-66861Y124304D01*
X-66793Y124232D01*
X-66722Y124154D01*
X-66638Y124082D01*
X-66551Y124005D01*
X-66451Y123934D01*
X-66344Y123868D01*
X-66228Y123815D01*
X-66109Y123773D01*
X-65978Y123737D01*
X-65841Y123722D01*
X-65831Y123720D01*
X-65808Y123724D01*
X-65771Y123720D01*
X-65712Y123720D01*
X-65645Y123724D01*
X-65567Y123736D01*
X-65478Y123744D01*
X-65376Y123760D01*
X-65264Y123774D01*
X-65149Y123797D01*
X-65026Y123834D01*
X-64895Y123875D01*
X-64759Y123920D01*
X-64620Y123975D01*
X-64475Y124050D01*
X-64330Y124125D01*
X-64324Y124128D01*
X-64292Y124147D01*
X-64253Y124169D01*
X-64199Y124209D01*
X-64132Y124256D01*
X-64059Y124307D01*
X-63977Y124371D01*
X-63892Y124446D01*
X-63706Y124613D01*
X-63620Y124714D01*
X-63533Y124816D01*
X-63450Y124924D01*
X-63371Y125038D01*
X-63305Y125161D01*
X-63249Y125287D01*
X-63247Y125297D01*
X-63241Y125317D01*
X-63231Y125358D01*
X-63217Y125408D01*
X-63201Y125469D01*
X-63192Y125542D01*
X-63184Y125632D01*
X-63180Y125729D01*
X-63173Y125835D01*
X-63176Y125944D01*
X-63193Y126063D01*
X-63214Y126188D01*
X-63249Y126321D01*
X-63293Y126458D01*
X-63354Y126594D01*
X-63426Y126732D01*
X-63470Y126809D01*
X-63510Y126863D01*
X-63543Y126920D01*
X-63590Y126987D01*
X-63698Y127130D01*
X-63702Y127136D01*
X-63727Y127165D01*
X-63762Y127196D01*
X-63798Y127243D01*
X-63854Y127296D01*
X-63914Y127356D01*
X-64044Y127477D01*
X-64058Y127486D01*
X-64079Y127508D01*
X-64124Y127542D01*
X-64183Y127585D01*
X-64260Y127643D01*
X-64346Y127704D01*
X-64457Y127777D01*
X-64577Y127853D01*
X-64045Y128160D01*
X-64031Y128151D01*
D02*
G37*
G36*
X11535Y121551D02*
X6969D01*
Y120744D01*
X6547D01*
X6421Y122224D01*
X11535D01*
Y121551D01*
D02*
G37*
G36*
Y117118D02*
X6969D01*
Y116311D01*
X6547D01*
X6421Y117791D01*
X11535D01*
Y117118D01*
D02*
G37*
G36*
X11283Y114876D02*
X11305Y114839D01*
X11327Y114779D01*
X11364Y114698D01*
X11401Y114617D01*
X11446Y114521D01*
X11483Y114424D01*
X11512Y114328D01*
Y114321D01*
X11527Y114284D01*
X11535Y114239D01*
X11557Y114173D01*
X11571Y114099D01*
X11594Y114010D01*
X11623Y113818D01*
Y113803D01*
X11631Y113773D01*
X11638Y113721D01*
Y113647D01*
X11646Y113566D01*
X11653Y113470D01*
X11660Y113359D01*
Y113189D01*
X11653Y113122D01*
X11646Y113040D01*
X11638Y112929D01*
X11623Y112811D01*
X11594Y112678D01*
X11564Y112530D01*
X11527Y112382D01*
X11475Y112226D01*
X11416Y112064D01*
X11342Y111908D01*
X11253Y111760D01*
X11157Y111620D01*
X11039Y111486D01*
X10905Y111368D01*
X10898Y111361D01*
X10869Y111346D01*
X10831Y111316D01*
X10772Y111279D01*
X10698Y111228D01*
X10610Y111183D01*
X10506Y111124D01*
X10387Y111072D01*
X10254Y111020D01*
X10106Y110961D01*
X9951Y110917D01*
X9788Y110872D01*
X9603Y110828D01*
X9418Y110798D01*
X9211Y110784D01*
X9004Y110776D01*
X8989D01*
X8952D01*
X8893Y110784D01*
X8811D01*
X8708Y110798D01*
X8597Y110806D01*
X8471Y110828D01*
X8330Y110850D01*
X8182Y110887D01*
X8027Y110924D01*
X7871Y110976D01*
X7709Y111035D01*
X7546Y111109D01*
X7390Y111190D01*
X7243Y111279D01*
X7095Y111390D01*
X7087Y111398D01*
X7065Y111420D01*
X7028Y111457D01*
X6976Y111509D01*
X6917Y111575D01*
X6858Y111649D01*
X6784Y111746D01*
X6717Y111856D01*
X6643Y111982D01*
X6577Y112123D01*
X6517Y112278D01*
X6458Y112449D01*
X6406Y112634D01*
X6369Y112833D01*
X6347Y113055D01*
X6340Y113285D01*
Y113403D01*
X6347Y113470D01*
X6355Y113551D01*
Y113640D01*
X6369Y113743D01*
X6377Y113855D01*
X6391Y113973D01*
X6414Y114106D01*
X6436Y114247D01*
X6458Y114395D01*
X6488Y114550D01*
X6562Y114883D01*
X7235D01*
Y114876D01*
X7220Y114846D01*
X7213Y114809D01*
X7191Y114757D01*
X7176Y114698D01*
X7154Y114624D01*
X7102Y114461D01*
X7050Y114284D01*
X6998Y114106D01*
X6976Y114025D01*
X6954Y113951D01*
X6939Y113877D01*
X6932Y113818D01*
Y113803D01*
X6924Y113766D01*
X6917Y113714D01*
X6902Y113640D01*
X6895Y113558D01*
X6887Y113462D01*
X6880Y113270D01*
Y113233D01*
X6887Y113181D01*
Y113122D01*
X6902Y113048D01*
X6910Y112959D01*
X6932Y112863D01*
X6954Y112759D01*
X6991Y112656D01*
X7028Y112545D01*
X7080Y112434D01*
X7139Y112323D01*
X7213Y112219D01*
X7294Y112123D01*
X7390Y112027D01*
X7502Y111945D01*
X7509Y111938D01*
X7531Y111931D01*
X7561Y111908D01*
X7613Y111879D01*
X7672Y111849D01*
X7746Y111820D01*
X7827Y111783D01*
X7923Y111746D01*
X8027Y111701D01*
X8138Y111664D01*
X8264Y111635D01*
X8397Y111605D01*
X8538Y111575D01*
X8686Y111553D01*
X8848Y111546D01*
X9011Y111538D01*
X9019D01*
X9055D01*
X9100D01*
X9166Y111546D01*
X9248Y111553D01*
X9337Y111560D01*
X9440Y111575D01*
X9551Y111598D01*
X9796Y111649D01*
X9921Y111694D01*
X10047Y111738D01*
X10173Y111790D01*
X10299Y111849D01*
X10417Y111923D01*
X10528Y112004D01*
X10536Y112012D01*
X10550Y112027D01*
X10580Y112056D01*
X10617Y112093D01*
X10661Y112138D01*
X10706Y112197D01*
X10757Y112271D01*
X10809Y112352D01*
X10869Y112441D01*
X10920Y112537D01*
X10965Y112648D01*
X11009Y112767D01*
X11046Y112900D01*
X11076Y113040D01*
X11090Y113189D01*
X11098Y113344D01*
Y113433D01*
X11090Y113499D01*
Y113566D01*
X11083Y113647D01*
X11061Y113825D01*
Y113832D01*
X11054Y113869D01*
X11039Y113914D01*
X11031Y113973D01*
X11009Y114047D01*
X10987Y114128D01*
X10935Y114298D01*
X10928Y114313D01*
X10920Y114343D01*
X10898Y114395D01*
X10869Y114461D01*
X10831Y114550D01*
X10787Y114646D01*
X10728Y114765D01*
X10661Y114891D01*
X11276D01*
X11283Y114876D01*
D02*
G37*
G36*
X2181Y152456D02*
X2255D01*
X2337Y152449D01*
X2426Y152442D01*
X2625Y152419D01*
X2847Y152383D01*
X3077Y152338D01*
X3314Y152271D01*
X3321D01*
X3343Y152264D01*
X3373Y152249D01*
X3417Y152234D01*
X3469Y152212D01*
X3528Y152190D01*
X3669Y152123D01*
X3824Y152042D01*
X3987Y151931D01*
X4150Y151813D01*
X4298Y151665D01*
X4305Y151657D01*
X4312Y151650D01*
X4327Y151620D01*
X4357Y151591D01*
X4379Y151554D01*
X4409Y151509D01*
X4475Y151391D01*
X4542Y151250D01*
X4601Y151080D01*
X4645Y150895D01*
X4653Y150792D01*
X4660Y150688D01*
Y150636D01*
X4653Y150592D01*
X4645Y150540D01*
X4638Y150488D01*
X4616Y150355D01*
X4572Y150199D01*
X4505Y150037D01*
X4468Y149955D01*
X4416Y149866D01*
X4364Y149793D01*
X4298Y149711D01*
X4290Y149704D01*
X4283Y149696D01*
X4261Y149674D01*
X4231Y149644D01*
X4194Y149608D01*
X4150Y149571D01*
X4098Y149526D01*
X4039Y149482D01*
X3898Y149385D01*
X3728Y149289D01*
X3536Y149193D01*
X3314Y149112D01*
X3306D01*
X3284Y149104D01*
X3254Y149097D01*
X3202Y149082D01*
X3151Y149067D01*
X3077Y149053D01*
X3003Y149030D01*
X2914Y149015D01*
X2825Y149001D01*
X2722Y148978D01*
X2499Y148949D01*
X2255Y148927D01*
X2004Y148919D01*
X1996D01*
X1974D01*
X1937D01*
X1885D01*
X1826Y148927D01*
X1752D01*
X1671Y148934D01*
X1582Y148942D01*
X1382Y148964D01*
X1160Y149001D01*
X931Y149045D01*
X701Y149112D01*
X694D01*
X672Y149119D01*
X642Y149134D01*
X598Y149149D01*
X546Y149171D01*
X487Y149193D01*
X346Y149260D01*
X183Y149341D01*
X21Y149445D01*
X-142Y149571D01*
X-290Y149711D01*
X-298Y149718D01*
X-305Y149733D01*
X-327Y149756D01*
X-350Y149785D01*
X-379Y149822D01*
X-409Y149874D01*
X-475Y149992D01*
X-542Y150133D01*
X-601Y150296D01*
X-646Y150488D01*
X-653Y150584D01*
X-660Y150688D01*
Y150740D01*
X-653Y150784D01*
Y150836D01*
X-638Y150888D01*
X-616Y151021D01*
X-571Y151176D01*
X-505Y151339D01*
X-460Y151420D01*
X-416Y151509D01*
X-357Y151583D01*
X-290Y151665D01*
X-283Y151672D01*
X-276Y151680D01*
X-253Y151702D01*
X-224Y151731D01*
X-187Y151768D01*
X-142Y151805D01*
X-91Y151850D01*
X-31Y151894D01*
X109Y151990D01*
X280Y152086D01*
X472Y152183D01*
X694Y152264D01*
X701D01*
X723Y152271D01*
X753Y152286D01*
X805Y152294D01*
X857Y152308D01*
X923Y152331D01*
X1005Y152346D01*
X1094Y152368D01*
X1182Y152383D01*
X1286Y152397D01*
X1508Y152434D01*
X1752Y152456D01*
X2004Y152464D01*
X2011D01*
X2033D01*
X2070D01*
X2122D01*
X2181Y152456D01*
D02*
G37*
G36*
X4535Y145878D02*
X-31D01*
Y145071D01*
X-453D01*
X-579Y146551D01*
X4535D01*
Y145878D01*
D02*
G37*
G36*
X4283Y143636D02*
X4305Y143599D01*
X4327Y143540D01*
X4364Y143458D01*
X4401Y143377D01*
X4446Y143280D01*
X4483Y143184D01*
X4512Y143088D01*
Y143081D01*
X4527Y143044D01*
X4535Y142999D01*
X4557Y142933D01*
X4572Y142859D01*
X4594Y142770D01*
X4623Y142578D01*
Y142563D01*
X4631Y142533D01*
X4638Y142481D01*
Y142407D01*
X4645Y142326D01*
X4653Y142230D01*
X4660Y142119D01*
Y141948D01*
X4653Y141882D01*
X4645Y141800D01*
X4638Y141690D01*
X4623Y141571D01*
X4594Y141438D01*
X4564Y141290D01*
X4527Y141142D01*
X4475Y140987D01*
X4416Y140824D01*
X4342Y140668D01*
X4253Y140520D01*
X4157Y140380D01*
X4039Y140246D01*
X3906Y140128D01*
X3898Y140121D01*
X3869Y140106D01*
X3831Y140076D01*
X3772Y140039D01*
X3698Y139988D01*
X3610Y139943D01*
X3506Y139884D01*
X3387Y139832D01*
X3254Y139780D01*
X3106Y139721D01*
X2951Y139677D01*
X2788Y139632D01*
X2603Y139588D01*
X2418Y139558D01*
X2211Y139543D01*
X2004Y139536D01*
X1989D01*
X1952D01*
X1893Y139543D01*
X1811D01*
X1708Y139558D01*
X1597Y139566D01*
X1471Y139588D01*
X1330Y139610D01*
X1182Y139647D01*
X1027Y139684D01*
X872Y139736D01*
X709Y139795D01*
X546Y139869D01*
X390Y139951D01*
X243Y140039D01*
X94Y140150D01*
X87Y140158D01*
X65Y140180D01*
X28Y140217D01*
X-24Y140269D01*
X-83Y140335D01*
X-142Y140409D01*
X-216Y140506D01*
X-283Y140617D01*
X-357Y140742D01*
X-423Y140883D01*
X-483Y141038D01*
X-542Y141209D01*
X-594Y141393D01*
X-631Y141593D01*
X-653Y141815D01*
X-660Y142045D01*
Y142163D01*
X-653Y142230D01*
X-646Y142311D01*
Y142400D01*
X-631Y142503D01*
X-623Y142614D01*
X-609Y142733D01*
X-586Y142866D01*
X-564Y143007D01*
X-542Y143155D01*
X-512Y143310D01*
X-438Y143643D01*
X235D01*
Y143636D01*
X220Y143606D01*
X213Y143569D01*
X191Y143517D01*
X176Y143458D01*
X154Y143384D01*
X102Y143221D01*
X50Y143044D01*
X-2Y142866D01*
X-24Y142785D01*
X-46Y142711D01*
X-61Y142637D01*
X-68Y142578D01*
Y142563D01*
X-76Y142526D01*
X-83Y142474D01*
X-98Y142400D01*
X-105Y142318D01*
X-113Y142222D01*
X-120Y142030D01*
Y141993D01*
X-113Y141941D01*
Y141882D01*
X-98Y141808D01*
X-91Y141719D01*
X-68Y141623D01*
X-46Y141519D01*
X-9Y141416D01*
X28Y141305D01*
X80Y141194D01*
X139Y141083D01*
X213Y140979D01*
X294Y140883D01*
X390Y140787D01*
X501Y140705D01*
X509Y140698D01*
X531Y140691D01*
X561Y140668D01*
X612Y140639D01*
X672Y140609D01*
X746Y140579D01*
X827Y140542D01*
X923Y140506D01*
X1027Y140461D01*
X1138Y140424D01*
X1264Y140394D01*
X1397Y140365D01*
X1538Y140335D01*
X1685Y140313D01*
X1848Y140306D01*
X2011Y140298D01*
X2018D01*
X2056D01*
X2100D01*
X2166Y140306D01*
X2248Y140313D01*
X2337Y140321D01*
X2440Y140335D01*
X2551Y140357D01*
X2795Y140409D01*
X2921Y140454D01*
X3047Y140498D01*
X3173Y140550D01*
X3299Y140609D01*
X3417Y140683D01*
X3528Y140764D01*
X3536Y140772D01*
X3550Y140787D01*
X3580Y140816D01*
X3617Y140853D01*
X3661Y140898D01*
X3706Y140957D01*
X3757Y141031D01*
X3809Y141112D01*
X3869Y141201D01*
X3920Y141297D01*
X3965Y141408D01*
X4009Y141527D01*
X4046Y141660D01*
X4076Y141800D01*
X4090Y141948D01*
X4098Y142104D01*
Y142193D01*
X4090Y142259D01*
Y142326D01*
X4083Y142407D01*
X4061Y142585D01*
Y142592D01*
X4053Y142629D01*
X4039Y142674D01*
X4031Y142733D01*
X4009Y142807D01*
X3987Y142888D01*
X3935Y143059D01*
X3928Y143073D01*
X3920Y143103D01*
X3898Y143155D01*
X3869Y143221D01*
X3831Y143310D01*
X3787Y143406D01*
X3728Y143525D01*
X3661Y143650D01*
X4276D01*
X4283Y143636D01*
D02*
G37*
G36*
X-4548Y147733D02*
X-4482D01*
X-4400Y147725D01*
X-4311Y147718D01*
X-4208Y147711D01*
X-4097Y147696D01*
X-3986Y147674D01*
X-3734Y147629D01*
X-3475Y147570D01*
X-3216Y147481D01*
X-3209D01*
X-3187Y147466D01*
X-3150Y147452D01*
X-3105Y147437D01*
X-3046Y147407D01*
X-2979Y147378D01*
X-2831Y147296D01*
X-2661Y147193D01*
X-2491Y147067D01*
X-2328Y146919D01*
X-2247Y146845D01*
X-2180Y146756D01*
Y146749D01*
X-2165Y146734D01*
X-2151Y146712D01*
X-2128Y146675D01*
X-2099Y146630D01*
X-2069Y146571D01*
X-2039Y146512D01*
X-2010Y146438D01*
X-1980Y146356D01*
X-1951Y146268D01*
X-1921Y146179D01*
X-1891Y146075D01*
X-1854Y145846D01*
X-1847Y145720D01*
X-1840Y145594D01*
Y145520D01*
X-1847Y145483D01*
Y145431D01*
X-1854Y145380D01*
X-1862Y145313D01*
X-1877Y145165D01*
X-1906Y144995D01*
X-1943Y144788D01*
X-1995Y144566D01*
X-2565D01*
Y144573D01*
X-2558Y144595D01*
X-2543Y144625D01*
X-2535Y144669D01*
X-2513Y144728D01*
X-2498Y144788D01*
X-2476Y144862D01*
X-2461Y144943D01*
X-2417Y145113D01*
X-2387Y145291D01*
X-2358Y145476D01*
X-2350Y145653D01*
Y145720D01*
X-2365Y145801D01*
X-2380Y145898D01*
X-2402Y146009D01*
X-2439Y146127D01*
X-2491Y146245D01*
X-2565Y146364D01*
X-2572Y146379D01*
X-2609Y146416D01*
X-2661Y146467D01*
X-2735Y146534D01*
X-2839Y146608D01*
X-2964Y146682D01*
X-3112Y146756D01*
X-3283Y146823D01*
X-3290D01*
X-3305Y146830D01*
X-3334Y146837D01*
X-3371Y146852D01*
X-3416Y146860D01*
X-3468Y146874D01*
X-3534Y146889D01*
X-3601Y146911D01*
X-3764Y146941D01*
X-3949Y146963D01*
X-4149Y146985D01*
X-4363Y146993D01*
X-4348Y146985D01*
X-4319Y146956D01*
X-4267Y146911D01*
X-4215Y146860D01*
X-4149Y146793D01*
X-4082Y146734D01*
X-4023Y146667D01*
X-3971Y146601D01*
X-3963Y146593D01*
X-3949Y146571D01*
X-3934Y146541D01*
X-3904Y146497D01*
X-3875Y146438D01*
X-3845Y146379D01*
X-3793Y146238D01*
Y146231D01*
X-3786Y146208D01*
X-3779Y146164D01*
X-3764Y146112D01*
X-3756Y146053D01*
X-3742Y145979D01*
X-3734Y145824D01*
Y145779D01*
X-3742Y145750D01*
X-3749Y145668D01*
X-3764Y145572D01*
X-3786Y145446D01*
X-3830Y145320D01*
X-3882Y145180D01*
X-3956Y145047D01*
Y145039D01*
X-3963Y145032D01*
X-3993Y144987D01*
X-4045Y144921D01*
X-4112Y144847D01*
X-4200Y144758D01*
X-4296Y144662D01*
X-4415Y144573D01*
X-4541Y144492D01*
X-4548D01*
X-4555Y144484D01*
X-4578Y144477D01*
X-4607Y144462D01*
X-4681Y144432D01*
X-4778Y144395D01*
X-4896Y144358D01*
X-5037Y144329D01*
X-5192Y144307D01*
X-5355Y144299D01*
X-5362D01*
X-5377D01*
X-5399D01*
X-5436D01*
X-5473Y144307D01*
X-5525Y144314D01*
X-5643Y144329D01*
X-5776Y144351D01*
X-5932Y144388D01*
X-6087Y144440D01*
X-6250Y144514D01*
X-6257D01*
X-6272Y144521D01*
X-6295Y144536D01*
X-6324Y144551D01*
X-6398Y144603D01*
X-6502Y144669D01*
X-6605Y144751D01*
X-6716Y144847D01*
X-6827Y144965D01*
X-6923Y145091D01*
Y145098D01*
X-6931Y145106D01*
X-6946Y145128D01*
X-6961Y145158D01*
X-6998Y145232D01*
X-7042Y145335D01*
X-7086Y145461D01*
X-7123Y145609D01*
X-7153Y145779D01*
X-7160Y145964D01*
Y146001D01*
X-7153Y146053D01*
X-7146Y146112D01*
X-7138Y146186D01*
X-7123Y146275D01*
X-7101Y146371D01*
X-7072Y146467D01*
X-7027Y146578D01*
X-6983Y146689D01*
X-6923Y146800D01*
X-6849Y146911D01*
X-6768Y147015D01*
X-6672Y147119D01*
X-6554Y147215D01*
X-6428Y147304D01*
X-6420Y147311D01*
X-6398Y147326D01*
X-6354Y147341D01*
X-6302Y147370D01*
X-6228Y147407D01*
X-6146Y147444D01*
X-6050Y147481D01*
X-5939Y147526D01*
X-5813Y147563D01*
X-5680Y147600D01*
X-5540Y147637D01*
X-5384Y147674D01*
X-5221Y147703D01*
X-5051Y147718D01*
X-4866Y147733D01*
X-4681Y147740D01*
X-4674D01*
X-4644D01*
X-4607D01*
X-4548Y147733D01*
D02*
G37*
G36*
X-2217Y143359D02*
X-2195Y143322D01*
X-2173Y143263D01*
X-2136Y143182D01*
X-2099Y143100D01*
X-2054Y143004D01*
X-2017Y142908D01*
X-1988Y142812D01*
Y142804D01*
X-1973Y142767D01*
X-1966Y142723D01*
X-1943Y142656D01*
X-1929Y142582D01*
X-1906Y142494D01*
X-1877Y142301D01*
Y142286D01*
X-1869Y142257D01*
X-1862Y142205D01*
Y142131D01*
X-1854Y142050D01*
X-1847Y141953D01*
X-1840Y141842D01*
Y141672D01*
X-1847Y141606D01*
X-1854Y141524D01*
X-1862Y141413D01*
X-1877Y141295D01*
X-1906Y141162D01*
X-1936Y141014D01*
X-1973Y140866D01*
X-2025Y140710D01*
X-2084Y140547D01*
X-2158Y140392D01*
X-2247Y140244D01*
X-2343Y140103D01*
X-2461Y139970D01*
X-2595Y139852D01*
X-2602Y139844D01*
X-2631Y139830D01*
X-2668Y139800D01*
X-2728Y139763D01*
X-2802Y139711D01*
X-2891Y139667D01*
X-2994Y139608D01*
X-3112Y139556D01*
X-3246Y139504D01*
X-3394Y139445D01*
X-3549Y139400D01*
X-3712Y139356D01*
X-3897Y139312D01*
X-4082Y139282D01*
X-4289Y139267D01*
X-4496Y139260D01*
X-4511D01*
X-4548D01*
X-4607Y139267D01*
X-4689D01*
X-4792Y139282D01*
X-4903Y139289D01*
X-5029Y139312D01*
X-5170Y139334D01*
X-5318Y139371D01*
X-5473Y139408D01*
X-5629Y139460D01*
X-5791Y139519D01*
X-5954Y139593D01*
X-6109Y139674D01*
X-6257Y139763D01*
X-6406Y139874D01*
X-6413Y139881D01*
X-6435Y139904D01*
X-6472Y139941D01*
X-6524Y139992D01*
X-6583Y140059D01*
X-6642Y140133D01*
X-6716Y140229D01*
X-6783Y140340D01*
X-6857Y140466D01*
X-6923Y140607D01*
X-6983Y140762D01*
X-7042Y140932D01*
X-7094Y141117D01*
X-7131Y141317D01*
X-7153Y141539D01*
X-7160Y141768D01*
Y141887D01*
X-7153Y141953D01*
X-7146Y142035D01*
Y142124D01*
X-7131Y142227D01*
X-7123Y142338D01*
X-7108Y142457D01*
X-7086Y142590D01*
X-7064Y142730D01*
X-7042Y142878D01*
X-7012Y143034D01*
X-6938Y143367D01*
X-6265D01*
Y143359D01*
X-6280Y143330D01*
X-6287Y143293D01*
X-6309Y143241D01*
X-6324Y143182D01*
X-6346Y143108D01*
X-6398Y142945D01*
X-6450Y142767D01*
X-6502Y142590D01*
X-6524Y142508D01*
X-6546Y142434D01*
X-6561Y142360D01*
X-6568Y142301D01*
Y142286D01*
X-6576Y142249D01*
X-6583Y142198D01*
X-6598Y142124D01*
X-6605Y142042D01*
X-6613Y141946D01*
X-6620Y141754D01*
Y141717D01*
X-6613Y141665D01*
Y141606D01*
X-6598Y141532D01*
X-6590Y141443D01*
X-6568Y141347D01*
X-6546Y141243D01*
X-6509Y141139D01*
X-6472Y141028D01*
X-6420Y140917D01*
X-6361Y140806D01*
X-6287Y140703D01*
X-6206Y140607D01*
X-6109Y140510D01*
X-5999Y140429D01*
X-5991Y140422D01*
X-5969Y140414D01*
X-5939Y140392D01*
X-5887Y140362D01*
X-5828Y140333D01*
X-5754Y140303D01*
X-5673Y140266D01*
X-5577Y140229D01*
X-5473Y140185D01*
X-5362Y140148D01*
X-5236Y140118D01*
X-5103Y140089D01*
X-4963Y140059D01*
X-4814Y140037D01*
X-4652Y140029D01*
X-4489Y140022D01*
X-4482D01*
X-4445D01*
X-4400D01*
X-4333Y140029D01*
X-4252Y140037D01*
X-4163Y140044D01*
X-4060Y140059D01*
X-3949Y140081D01*
X-3704Y140133D01*
X-3579Y140177D01*
X-3453Y140222D01*
X-3327Y140274D01*
X-3201Y140333D01*
X-3083Y140407D01*
X-2972Y140488D01*
X-2964Y140496D01*
X-2950Y140510D01*
X-2920Y140540D01*
X-2883Y140577D01*
X-2839Y140621D01*
X-2794Y140681D01*
X-2743Y140755D01*
X-2691Y140836D01*
X-2631Y140925D01*
X-2580Y141021D01*
X-2535Y141132D01*
X-2491Y141250D01*
X-2454Y141384D01*
X-2424Y141524D01*
X-2410Y141672D01*
X-2402Y141828D01*
Y141916D01*
X-2410Y141983D01*
Y142050D01*
X-2417Y142131D01*
X-2439Y142309D01*
Y142316D01*
X-2447Y142353D01*
X-2461Y142397D01*
X-2469Y142457D01*
X-2491Y142531D01*
X-2513Y142612D01*
X-2565Y142782D01*
X-2572Y142797D01*
X-2580Y142827D01*
X-2602Y142878D01*
X-2631Y142945D01*
X-2668Y143034D01*
X-2713Y143130D01*
X-2772Y143248D01*
X-2839Y143374D01*
X-2224D01*
X-2217Y143359D01*
D02*
G37*
G36*
X64821Y169244D02*
X64873Y169237D01*
X64932Y169229D01*
X65073Y169192D01*
X65235Y169140D01*
X65317Y169103D01*
X65405Y169059D01*
X65487Y169007D01*
X65576Y168940D01*
X65657Y168874D01*
X65738Y168792D01*
X65746Y168785D01*
X65753Y168770D01*
X65776Y168748D01*
X65805Y168711D01*
X65835Y168659D01*
X65872Y168607D01*
X65909Y168541D01*
X65946Y168467D01*
X65990Y168378D01*
X66027Y168282D01*
X66064Y168178D01*
X66094Y168067D01*
X66123Y167949D01*
X66145Y167816D01*
X66153Y167683D01*
X66160Y167534D01*
Y167453D01*
X66153Y167401D01*
X66145Y167335D01*
X66138Y167253D01*
X66123Y167165D01*
X66109Y167076D01*
X66064Y166876D01*
X65990Y166669D01*
X65946Y166565D01*
X65894Y166469D01*
X65827Y166373D01*
X65761Y166291D01*
X65753Y166284D01*
X65738Y166277D01*
X65716Y166254D01*
X65687Y166225D01*
X65650Y166195D01*
X65605Y166158D01*
X65487Y166077D01*
X65346Y165995D01*
X65176Y165929D01*
X65087Y165899D01*
X64991Y165884D01*
X64895Y165869D01*
X64791Y165862D01*
X64784D01*
X64776D01*
X64754D01*
X64725Y165869D01*
X64643Y165877D01*
X64540Y165892D01*
X64421Y165921D01*
X64288Y165958D01*
X64140Y166017D01*
X63992Y166092D01*
X63985D01*
X63977Y166106D01*
X63955Y166114D01*
X63925Y166136D01*
X63851Y166195D01*
X63755Y166277D01*
X63644Y166380D01*
X63526Y166513D01*
X63400Y166676D01*
X63282Y166861D01*
X63274Y166854D01*
X63267Y166839D01*
X63252Y166817D01*
X63222Y166787D01*
X63163Y166706D01*
X63082Y166602D01*
X62993Y166498D01*
X62889Y166402D01*
X62786Y166314D01*
X62742Y166277D01*
X62690Y166247D01*
X62675Y166240D01*
X62645Y166225D01*
X62594Y166210D01*
X62520Y166188D01*
X62438Y166158D01*
X62349Y166143D01*
X62246Y166129D01*
X62135Y166121D01*
X62127D01*
X62112D01*
X62083D01*
X62038Y166129D01*
X61994Y166136D01*
X61942Y166143D01*
X61809Y166173D01*
X61661Y166225D01*
X61513Y166299D01*
X61432Y166343D01*
X61358Y166402D01*
X61284Y166462D01*
X61210Y166535D01*
X61202Y166543D01*
X61195Y166558D01*
X61173Y166580D01*
X61150Y166610D01*
X61121Y166654D01*
X61091Y166706D01*
X61062Y166765D01*
X61025Y166832D01*
X60988Y166905D01*
X60958Y166987D01*
X60928Y167076D01*
X60899Y167179D01*
X60855Y167394D01*
X60847Y167512D01*
X60840Y167638D01*
Y167697D01*
X60847Y167742D01*
Y167794D01*
X60855Y167860D01*
X60877Y168001D01*
X60914Y168164D01*
X60973Y168334D01*
X61047Y168504D01*
X61150Y168659D01*
Y168667D01*
X61165Y168674D01*
X61202Y168719D01*
X61269Y168785D01*
X61365Y168859D01*
X61476Y168926D01*
X61609Y168992D01*
X61765Y169037D01*
X61853Y169044D01*
X61942Y169052D01*
X61957D01*
X62002D01*
X62068Y169044D01*
X62150Y169029D01*
X62246Y169000D01*
X62357Y168970D01*
X62483Y168918D01*
X62601Y168852D01*
X62616Y168844D01*
X62660Y168815D01*
X62719Y168763D01*
X62808Y168682D01*
X62912Y168585D01*
X63023Y168452D01*
X63089Y168378D01*
X63148Y168297D01*
X63215Y168201D01*
X63282Y168104D01*
Y168112D01*
X63297Y168134D01*
X63311Y168164D01*
X63333Y168208D01*
X63363Y168260D01*
X63400Y168319D01*
X63481Y168452D01*
X63578Y168600D01*
X63689Y168748D01*
X63815Y168881D01*
X63874Y168940D01*
X63940Y168992D01*
X63955Y169007D01*
X63999Y169037D01*
X64073Y169074D01*
X64162Y169125D01*
X64281Y169170D01*
X64414Y169214D01*
X64562Y169244D01*
X64725Y169251D01*
X64732D01*
X64754D01*
X64784D01*
X64821Y169244D01*
D02*
G37*
G36*
X65783Y164848D02*
X65805Y164811D01*
X65827Y164752D01*
X65864Y164671D01*
X65901Y164589D01*
X65946Y164493D01*
X65983Y164397D01*
X66012Y164301D01*
Y164293D01*
X66027Y164256D01*
X66035Y164212D01*
X66057Y164145D01*
X66071Y164071D01*
X66094Y163982D01*
X66123Y163790D01*
Y163775D01*
X66131Y163746D01*
X66138Y163694D01*
Y163620D01*
X66145Y163539D01*
X66153Y163442D01*
X66160Y163331D01*
Y163161D01*
X66153Y163094D01*
X66145Y163013D01*
X66138Y162902D01*
X66123Y162784D01*
X66094Y162651D01*
X66064Y162503D01*
X66027Y162355D01*
X65975Y162199D01*
X65916Y162036D01*
X65842Y161881D01*
X65753Y161733D01*
X65657Y161592D01*
X65539Y161459D01*
X65405Y161341D01*
X65398Y161333D01*
X65368Y161319D01*
X65332Y161289D01*
X65272Y161252D01*
X65198Y161200D01*
X65109Y161156D01*
X65006Y161097D01*
X64887Y161045D01*
X64754Y160993D01*
X64606Y160934D01*
X64451Y160889D01*
X64288Y160845D01*
X64103Y160801D01*
X63918Y160771D01*
X63711Y160756D01*
X63504Y160749D01*
X63489D01*
X63452D01*
X63393Y160756D01*
X63311D01*
X63208Y160771D01*
X63097Y160778D01*
X62971Y160801D01*
X62830Y160823D01*
X62682Y160860D01*
X62527Y160897D01*
X62371Y160949D01*
X62209Y161008D01*
X62046Y161082D01*
X61891Y161163D01*
X61743Y161252D01*
X61594Y161363D01*
X61587Y161370D01*
X61565Y161392D01*
X61528Y161430D01*
X61476Y161481D01*
X61417Y161548D01*
X61358Y161622D01*
X61284Y161718D01*
X61217Y161829D01*
X61143Y161955D01*
X61076Y162095D01*
X61017Y162251D01*
X60958Y162421D01*
X60906Y162606D01*
X60869Y162806D01*
X60847Y163028D01*
X60840Y163257D01*
Y163376D01*
X60847Y163442D01*
X60855Y163524D01*
Y163612D01*
X60869Y163716D01*
X60877Y163827D01*
X60891Y163945D01*
X60914Y164079D01*
X60936Y164219D01*
X60958Y164367D01*
X60988Y164523D01*
X61062Y164856D01*
X61735D01*
Y164848D01*
X61720Y164819D01*
X61713Y164782D01*
X61691Y164730D01*
X61676Y164671D01*
X61654Y164597D01*
X61602Y164434D01*
X61550Y164256D01*
X61498Y164079D01*
X61476Y163997D01*
X61454Y163923D01*
X61439Y163849D01*
X61432Y163790D01*
Y163775D01*
X61424Y163738D01*
X61417Y163687D01*
X61402Y163612D01*
X61395Y163531D01*
X61387Y163435D01*
X61380Y163242D01*
Y163206D01*
X61387Y163154D01*
Y163094D01*
X61402Y163021D01*
X61409Y162932D01*
X61432Y162836D01*
X61454Y162732D01*
X61491Y162628D01*
X61528Y162517D01*
X61580Y162406D01*
X61639Y162295D01*
X61713Y162192D01*
X61794Y162095D01*
X61891Y161999D01*
X62002Y161918D01*
X62009Y161910D01*
X62031Y161903D01*
X62061Y161881D01*
X62112Y161851D01*
X62172Y161822D01*
X62246Y161792D01*
X62327Y161755D01*
X62423Y161718D01*
X62527Y161674D01*
X62638Y161637D01*
X62764Y161607D01*
X62897Y161577D01*
X63038Y161548D01*
X63186Y161526D01*
X63348Y161518D01*
X63511Y161511D01*
X63519D01*
X63556D01*
X63600D01*
X63666Y161518D01*
X63748Y161526D01*
X63837Y161533D01*
X63940Y161548D01*
X64051Y161570D01*
X64296Y161622D01*
X64421Y161666D01*
X64547Y161711D01*
X64673Y161762D01*
X64799Y161822D01*
X64917Y161896D01*
X65028Y161977D01*
X65035Y161985D01*
X65050Y161999D01*
X65080Y162029D01*
X65117Y162066D01*
X65161Y162110D01*
X65206Y162170D01*
X65258Y162243D01*
X65309Y162325D01*
X65368Y162414D01*
X65420Y162510D01*
X65465Y162621D01*
X65509Y162739D01*
X65546Y162873D01*
X65576Y163013D01*
X65591Y163161D01*
X65598Y163317D01*
Y163405D01*
X65591Y163472D01*
Y163539D01*
X65583Y163620D01*
X65561Y163797D01*
Y163805D01*
X65553Y163842D01*
X65539Y163886D01*
X65531Y163945D01*
X65509Y164020D01*
X65487Y164101D01*
X65435Y164271D01*
X65428Y164286D01*
X65420Y164315D01*
X65398Y164367D01*
X65368Y164434D01*
X65332Y164523D01*
X65287Y164619D01*
X65228Y164737D01*
X65161Y164863D01*
X65776D01*
X65783Y164848D01*
D02*
G37*
G36*
X-16391Y84251D02*
X-16354Y84229D01*
X-16302Y84192D01*
X-16235Y84148D01*
X-16147Y84096D01*
X-16050Y84029D01*
X-15939Y83955D01*
X-15821Y83874D01*
X-15688Y83793D01*
X-15547Y83704D01*
X-15258Y83519D01*
X-14955Y83341D01*
X-14659Y83171D01*
X-14652Y83163D01*
X-14622Y83156D01*
X-14585Y83134D01*
X-14526Y83104D01*
X-14459Y83067D01*
X-14378Y83023D01*
X-14289Y82971D01*
X-14193Y82927D01*
X-14082Y82867D01*
X-13963Y82808D01*
X-13719Y82690D01*
X-13468Y82572D01*
X-13209Y82453D01*
X-13201D01*
X-13179Y82438D01*
X-13142Y82424D01*
X-13090Y82409D01*
X-13031Y82386D01*
X-12965Y82357D01*
X-12883Y82327D01*
X-12802Y82298D01*
X-12609Y82239D01*
X-12395Y82172D01*
X-12180Y82120D01*
X-11965Y82083D01*
Y81306D01*
X-11973D01*
X-11995Y81314D01*
X-12032Y81321D01*
X-12077Y81328D01*
X-12136Y81336D01*
X-12202Y81350D01*
X-12276Y81373D01*
X-12365Y81388D01*
X-12543Y81432D01*
X-12728Y81491D01*
X-12913Y81558D01*
X-13090Y81632D01*
X-13098D01*
X-13113Y81639D01*
X-13135Y81654D01*
X-13172Y81669D01*
X-13216Y81691D01*
X-13268Y81721D01*
X-13327Y81750D01*
X-13394Y81787D01*
X-13549Y81876D01*
X-13734Y81972D01*
X-13941Y82098D01*
X-14171Y82231D01*
X-16398Y83615D01*
Y81010D01*
X-17034D01*
Y84259D01*
X-16398D01*
X-16391Y84251D01*
D02*
G37*
G36*
X-12217Y79841D02*
X-12195Y79804D01*
X-12173Y79745D01*
X-12136Y79663D01*
X-12099Y79582D01*
X-12054Y79486D01*
X-12017Y79390D01*
X-11988Y79293D01*
Y79286D01*
X-11973Y79249D01*
X-11965Y79204D01*
X-11943Y79138D01*
X-11929Y79064D01*
X-11906Y78975D01*
X-11877Y78783D01*
Y78768D01*
X-11869Y78738D01*
X-11862Y78686D01*
Y78613D01*
X-11855Y78531D01*
X-11847Y78435D01*
X-11840Y78324D01*
Y78154D01*
X-11847Y78087D01*
X-11855Y78006D01*
X-11862Y77895D01*
X-11877Y77776D01*
X-11906Y77643D01*
X-11936Y77495D01*
X-11973Y77347D01*
X-12025Y77192D01*
X-12084Y77029D01*
X-12158Y76873D01*
X-12247Y76726D01*
X-12343Y76585D01*
X-12461Y76452D01*
X-12595Y76333D01*
X-12602Y76326D01*
X-12631Y76311D01*
X-12668Y76281D01*
X-12728Y76244D01*
X-12802Y76193D01*
X-12890Y76148D01*
X-12994Y76089D01*
X-13113Y76037D01*
X-13246Y75985D01*
X-13394Y75926D01*
X-13549Y75882D01*
X-13712Y75837D01*
X-13897Y75793D01*
X-14082Y75763D01*
X-14289Y75749D01*
X-14496Y75741D01*
X-14511D01*
X-14548D01*
X-14607Y75749D01*
X-14689D01*
X-14792Y75763D01*
X-14903Y75771D01*
X-15029Y75793D01*
X-15170Y75815D01*
X-15318Y75852D01*
X-15473Y75889D01*
X-15629Y75941D01*
X-15791Y76000D01*
X-15954Y76074D01*
X-16109Y76156D01*
X-16258Y76244D01*
X-16406Y76355D01*
X-16413Y76363D01*
X-16435Y76385D01*
X-16472Y76422D01*
X-16524Y76474D01*
X-16583Y76540D01*
X-16642Y76614D01*
X-16716Y76711D01*
X-16783Y76822D01*
X-16857Y76947D01*
X-16924Y77088D01*
X-16983Y77244D01*
X-17042Y77414D01*
X-17094Y77599D01*
X-17131Y77798D01*
X-17153Y78021D01*
X-17160Y78250D01*
Y78368D01*
X-17153Y78435D01*
X-17145Y78516D01*
Y78605D01*
X-17131Y78709D01*
X-17123Y78820D01*
X-17109Y78938D01*
X-17086Y79071D01*
X-17064Y79212D01*
X-17042Y79360D01*
X-17012Y79515D01*
X-16938Y79848D01*
X-16265D01*
Y79841D01*
X-16280Y79811D01*
X-16287Y79774D01*
X-16309Y79722D01*
X-16324Y79663D01*
X-16346Y79589D01*
X-16398Y79426D01*
X-16450Y79249D01*
X-16502Y79071D01*
X-16524Y78990D01*
X-16546Y78916D01*
X-16561Y78842D01*
X-16568Y78783D01*
Y78768D01*
X-16576Y78731D01*
X-16583Y78679D01*
X-16598Y78605D01*
X-16605Y78524D01*
X-16613Y78427D01*
X-16620Y78235D01*
Y78198D01*
X-16613Y78146D01*
Y78087D01*
X-16598Y78013D01*
X-16590Y77924D01*
X-16568Y77828D01*
X-16546Y77724D01*
X-16509Y77621D01*
X-16472Y77510D01*
X-16420Y77399D01*
X-16361Y77288D01*
X-16287Y77184D01*
X-16206Y77088D01*
X-16109Y76992D01*
X-15999Y76911D01*
X-15991Y76903D01*
X-15969Y76896D01*
X-15939Y76873D01*
X-15888Y76844D01*
X-15828Y76814D01*
X-15754Y76785D01*
X-15673Y76748D01*
X-15577Y76711D01*
X-15473Y76666D01*
X-15362Y76629D01*
X-15236Y76600D01*
X-15103Y76570D01*
X-14963Y76540D01*
X-14815Y76518D01*
X-14652Y76511D01*
X-14489Y76503D01*
X-14481D01*
X-14445D01*
X-14400D01*
X-14333Y76511D01*
X-14252Y76518D01*
X-14163Y76526D01*
X-14060Y76540D01*
X-13949Y76563D01*
X-13704Y76614D01*
X-13579Y76659D01*
X-13453Y76703D01*
X-13327Y76755D01*
X-13201Y76814D01*
X-13083Y76888D01*
X-12972Y76970D01*
X-12965Y76977D01*
X-12950Y76992D01*
X-12920Y77021D01*
X-12883Y77059D01*
X-12839Y77103D01*
X-12794Y77162D01*
X-12743Y77236D01*
X-12691Y77318D01*
X-12631Y77406D01*
X-12580Y77503D01*
X-12535Y77614D01*
X-12491Y77732D01*
X-12454Y77865D01*
X-12424Y78006D01*
X-12410Y78154D01*
X-12402Y78309D01*
Y78398D01*
X-12410Y78465D01*
Y78531D01*
X-12417Y78613D01*
X-12439Y78790D01*
Y78798D01*
X-12447Y78834D01*
X-12461Y78879D01*
X-12469Y78938D01*
X-12491Y79012D01*
X-12513Y79093D01*
X-12565Y79264D01*
X-12572Y79278D01*
X-12580Y79308D01*
X-12602Y79360D01*
X-12631Y79426D01*
X-12668Y79515D01*
X-12713Y79611D01*
X-12772Y79730D01*
X-12839Y79856D01*
X-12224D01*
X-12217Y79841D01*
D02*
G37*
G36*
X-9570Y147616D02*
X-9518Y147609D01*
X-9400Y147594D01*
X-9259Y147572D01*
X-9111Y147528D01*
X-8948Y147476D01*
X-8786Y147402D01*
X-8778D01*
X-8771Y147394D01*
X-8749Y147380D01*
X-8719Y147365D01*
X-8638Y147313D01*
X-8549Y147246D01*
X-8438Y147165D01*
X-8327Y147069D01*
X-8223Y146950D01*
X-8127Y146825D01*
Y146817D01*
X-8120Y146810D01*
X-8105Y146788D01*
X-8090Y146758D01*
X-8053Y146684D01*
X-8009Y146580D01*
X-7964Y146455D01*
X-7927Y146299D01*
X-7898Y146129D01*
X-7890Y145937D01*
Y145900D01*
X-7898Y145848D01*
X-7905Y145789D01*
X-7912Y145715D01*
X-7927Y145626D01*
X-7949Y145530D01*
X-7979Y145433D01*
X-8023Y145322D01*
X-8068Y145211D01*
X-8127Y145100D01*
X-8201Y144989D01*
X-8282Y144886D01*
X-8379Y144782D01*
X-8497Y144686D01*
X-8623Y144597D01*
X-8630Y144590D01*
X-8660Y144575D01*
X-8697Y144560D01*
X-8756Y144531D01*
X-8823Y144494D01*
X-8911Y144457D01*
X-9015Y144420D01*
X-9126Y144383D01*
X-9252Y144338D01*
X-9385Y144301D01*
X-9540Y144264D01*
X-9696Y144227D01*
X-9866Y144198D01*
X-10051Y144183D01*
X-10236Y144168D01*
X-10436Y144161D01*
X-10443D01*
X-10465D01*
X-10502D01*
X-10554D01*
X-10621Y144168D01*
X-10695Y144175D01*
X-10776D01*
X-10872Y144190D01*
X-10976Y144198D01*
X-11080Y144212D01*
X-11309Y144249D01*
X-11553Y144301D01*
X-11797Y144368D01*
X-11805D01*
X-11827Y144375D01*
X-11857Y144390D01*
X-11908Y144405D01*
X-11960Y144434D01*
X-12027Y144457D01*
X-12167Y144531D01*
X-12338Y144619D01*
X-12508Y144730D01*
X-12671Y144864D01*
X-12826Y145019D01*
X-12833Y145026D01*
X-12841Y145041D01*
X-12863Y145063D01*
X-12885Y145100D01*
X-12915Y145145D01*
X-12944Y145197D01*
X-12981Y145263D01*
X-13018Y145330D01*
X-13055Y145411D01*
X-13092Y145507D01*
X-13122Y145604D01*
X-13152Y145707D01*
X-13174Y145826D01*
X-13196Y145944D01*
X-13203Y146077D01*
X-13211Y146218D01*
Y146307D01*
X-13203Y146366D01*
Y146432D01*
X-13196Y146506D01*
X-13174Y146669D01*
Y146677D01*
X-13166Y146714D01*
X-13159Y146765D01*
X-13144Y146839D01*
X-13122Y146936D01*
X-13092Y147054D01*
X-13063Y147195D01*
X-13018Y147357D01*
X-12434D01*
Y147350D01*
X-12449Y147328D01*
X-12456Y147291D01*
X-12478Y147239D01*
X-12493Y147180D01*
X-12515Y147106D01*
X-12545Y147024D01*
X-12567Y146943D01*
X-12619Y146751D01*
X-12656Y146558D01*
X-12685Y146358D01*
X-12700Y146173D01*
Y146107D01*
X-12693Y146062D01*
X-12685Y146011D01*
X-12671Y145944D01*
X-12626Y145796D01*
X-12597Y145722D01*
X-12560Y145641D01*
X-12515Y145559D01*
X-12463Y145478D01*
X-12397Y145396D01*
X-12315Y145322D01*
X-12234Y145256D01*
X-12130Y145197D01*
X-12123D01*
X-12101Y145182D01*
X-12071Y145167D01*
X-12027Y145152D01*
X-11968Y145130D01*
X-11901Y145100D01*
X-11820Y145071D01*
X-11731Y145049D01*
X-11627Y145019D01*
X-11516Y144989D01*
X-11398Y144967D01*
X-11265Y144938D01*
X-11124Y144923D01*
X-10969Y144908D01*
X-10813Y144893D01*
X-10643D01*
X-10658Y144901D01*
X-10687Y144923D01*
X-10732Y144967D01*
X-10784Y145012D01*
X-10843Y145071D01*
X-10902Y145130D01*
X-10961Y145197D01*
X-11013Y145263D01*
X-11020Y145271D01*
X-11035Y145293D01*
X-11057Y145330D01*
X-11087Y145382D01*
X-11117Y145441D01*
X-11146Y145507D01*
X-11205Y145655D01*
Y145663D01*
X-11213Y145692D01*
X-11228Y145737D01*
X-11242Y145796D01*
X-11250Y145863D01*
X-11265Y145937D01*
X-11272Y146107D01*
Y146181D01*
X-11265Y146262D01*
X-11250Y146366D01*
X-11220Y146484D01*
X-11183Y146617D01*
X-11131Y146758D01*
X-11065Y146891D01*
Y146899D01*
X-11057Y146906D01*
X-11028Y146950D01*
X-10983Y147017D01*
X-10917Y147091D01*
X-10835Y147180D01*
X-10739Y147269D01*
X-10621Y147357D01*
X-10495Y147431D01*
X-10488D01*
X-10480Y147439D01*
X-10458Y147446D01*
X-10436Y147461D01*
X-10362Y147491D01*
X-10266Y147528D01*
X-10147Y147565D01*
X-10007Y147594D01*
X-9859Y147616D01*
X-9696Y147624D01*
X-9688D01*
X-9674D01*
X-9651D01*
X-9614D01*
X-9570Y147616D01*
D02*
G37*
G36*
X-8268Y143287D02*
X-8245Y143250D01*
X-8223Y143191D01*
X-8186Y143110D01*
X-8149Y143028D01*
X-8105Y142932D01*
X-8068Y142836D01*
X-8038Y142740D01*
Y142732D01*
X-8023Y142695D01*
X-8016Y142651D01*
X-7994Y142584D01*
X-7979Y142510D01*
X-7957Y142422D01*
X-7927Y142229D01*
Y142214D01*
X-7920Y142185D01*
X-7912Y142133D01*
Y142059D01*
X-7905Y141978D01*
X-7898Y141881D01*
X-7890Y141770D01*
Y141600D01*
X-7898Y141534D01*
X-7905Y141452D01*
X-7912Y141341D01*
X-7927Y141223D01*
X-7957Y141090D01*
X-7986Y140942D01*
X-8023Y140794D01*
X-8075Y140638D01*
X-8134Y140475D01*
X-8208Y140320D01*
X-8297Y140172D01*
X-8393Y140031D01*
X-8512Y139898D01*
X-8645Y139780D01*
X-8652Y139772D01*
X-8682Y139758D01*
X-8719Y139728D01*
X-8778Y139691D01*
X-8852Y139639D01*
X-8941Y139595D01*
X-9045Y139536D01*
X-9163Y139484D01*
X-9296Y139432D01*
X-9444Y139373D01*
X-9600Y139328D01*
X-9762Y139284D01*
X-9947Y139240D01*
X-10132Y139210D01*
X-10340Y139195D01*
X-10547Y139188D01*
X-10562D01*
X-10599D01*
X-10658Y139195D01*
X-10739D01*
X-10843Y139210D01*
X-10954Y139217D01*
X-11080Y139240D01*
X-11220Y139262D01*
X-11368Y139299D01*
X-11524Y139336D01*
X-11679Y139388D01*
X-11842Y139447D01*
X-12005Y139521D01*
X-12160Y139602D01*
X-12308Y139691D01*
X-12456Y139802D01*
X-12463Y139809D01*
X-12486Y139832D01*
X-12523Y139869D01*
X-12574Y139920D01*
X-12634Y139987D01*
X-12693Y140061D01*
X-12767Y140157D01*
X-12833Y140268D01*
X-12907Y140394D01*
X-12974Y140535D01*
X-13033Y140690D01*
X-13092Y140860D01*
X-13144Y141045D01*
X-13181Y141245D01*
X-13203Y141467D01*
X-13211Y141696D01*
Y141815D01*
X-13203Y141881D01*
X-13196Y141963D01*
Y142052D01*
X-13181Y142155D01*
X-13174Y142266D01*
X-13159Y142385D01*
X-13137Y142518D01*
X-13115Y142658D01*
X-13092Y142806D01*
X-13063Y142962D01*
X-12989Y143295D01*
X-12315D01*
Y143287D01*
X-12330Y143258D01*
X-12338Y143221D01*
X-12360Y143169D01*
X-12375Y143110D01*
X-12397Y143036D01*
X-12449Y142873D01*
X-12500Y142695D01*
X-12552Y142518D01*
X-12574Y142436D01*
X-12597Y142362D01*
X-12611Y142288D01*
X-12619Y142229D01*
Y142214D01*
X-12626Y142177D01*
X-12634Y142126D01*
X-12648Y142052D01*
X-12656Y141970D01*
X-12663Y141874D01*
X-12671Y141682D01*
Y141645D01*
X-12663Y141593D01*
Y141534D01*
X-12648Y141460D01*
X-12641Y141371D01*
X-12619Y141275D01*
X-12597Y141171D01*
X-12560Y141067D01*
X-12523Y140956D01*
X-12471Y140845D01*
X-12412Y140734D01*
X-12338Y140631D01*
X-12256Y140535D01*
X-12160Y140438D01*
X-12049Y140357D01*
X-12042Y140350D01*
X-12019Y140342D01*
X-11990Y140320D01*
X-11938Y140290D01*
X-11879Y140261D01*
X-11805Y140231D01*
X-11723Y140194D01*
X-11627Y140157D01*
X-11524Y140113D01*
X-11413Y140076D01*
X-11287Y140046D01*
X-11154Y140017D01*
X-11013Y139987D01*
X-10865Y139965D01*
X-10702Y139957D01*
X-10539Y139950D01*
X-10532D01*
X-10495D01*
X-10451D01*
X-10384Y139957D01*
X-10303Y139965D01*
X-10214Y139972D01*
X-10110Y139987D01*
X-9999Y140009D01*
X-9755Y140061D01*
X-9629Y140105D01*
X-9503Y140150D01*
X-9378Y140202D01*
X-9252Y140261D01*
X-9133Y140335D01*
X-9022Y140416D01*
X-9015Y140424D01*
X-9000Y140438D01*
X-8971Y140468D01*
X-8934Y140505D01*
X-8889Y140549D01*
X-8845Y140609D01*
X-8793Y140683D01*
X-8741Y140764D01*
X-8682Y140853D01*
X-8630Y140949D01*
X-8586Y141060D01*
X-8541Y141178D01*
X-8504Y141312D01*
X-8475Y141452D01*
X-8460Y141600D01*
X-8453Y141756D01*
Y141844D01*
X-8460Y141911D01*
Y141978D01*
X-8467Y142059D01*
X-8490Y142237D01*
Y142244D01*
X-8497Y142281D01*
X-8512Y142325D01*
X-8519Y142385D01*
X-8541Y142459D01*
X-8564Y142540D01*
X-8615Y142710D01*
X-8623Y142725D01*
X-8630Y142755D01*
X-8652Y142806D01*
X-8682Y142873D01*
X-8719Y142962D01*
X-8763Y143058D01*
X-8823Y143176D01*
X-8889Y143302D01*
X-8275D01*
X-8268Y143287D01*
D02*
G37*
G36*
X-19305Y84044D02*
X-19246Y84037D01*
X-19186Y84029D01*
X-19113Y84014D01*
X-19031Y83992D01*
X-18854Y83941D01*
X-18765Y83903D01*
X-18668Y83859D01*
X-18572Y83807D01*
X-18476Y83741D01*
X-18387Y83674D01*
X-18298Y83593D01*
X-18291Y83585D01*
X-18276Y83570D01*
X-18254Y83548D01*
X-18225Y83504D01*
X-18195Y83460D01*
X-18150Y83400D01*
X-18113Y83326D01*
X-18069Y83245D01*
X-18025Y83156D01*
X-17988Y83052D01*
X-17943Y82934D01*
X-17914Y82808D01*
X-17884Y82668D01*
X-17862Y82520D01*
X-17847Y82357D01*
X-17840Y82179D01*
Y82076D01*
X-17847Y82031D01*
X-17854Y81920D01*
X-17862Y81795D01*
X-17884Y81647D01*
X-17906Y81484D01*
X-17943Y81306D01*
X-18543D01*
Y81314D01*
X-18535Y81328D01*
X-18528Y81358D01*
X-18513Y81388D01*
X-18498Y81432D01*
X-18484Y81491D01*
X-18447Y81609D01*
X-18409Y81757D01*
X-18380Y81920D01*
X-18358Y82091D01*
X-18350Y82261D01*
Y82313D01*
X-18358Y82349D01*
Y82394D01*
X-18365Y82446D01*
X-18387Y82564D01*
X-18432Y82697D01*
X-18484Y82831D01*
X-18565Y82956D01*
X-18609Y83016D01*
X-18668Y83067D01*
X-18676D01*
X-18683Y83082D01*
X-18728Y83112D01*
X-18794Y83149D01*
X-18891Y83201D01*
X-19002Y83252D01*
X-19135Y83289D01*
X-19283Y83319D01*
X-19445Y83334D01*
X-19453D01*
X-19468D01*
X-19497D01*
X-19534Y83326D01*
X-19579Y83319D01*
X-19631Y83311D01*
X-19749Y83289D01*
X-19882Y83237D01*
X-20023Y83171D01*
X-20089Y83126D01*
X-20156Y83075D01*
X-20222Y83016D01*
X-20282Y82949D01*
X-20289Y82942D01*
X-20297Y82934D01*
X-20311Y82912D01*
X-20334Y82875D01*
X-20356Y82838D01*
X-20378Y82786D01*
X-20407Y82727D01*
X-20437Y82660D01*
X-20467Y82579D01*
X-20496Y82498D01*
X-20518Y82394D01*
X-20541Y82290D01*
X-20563Y82172D01*
X-20578Y82046D01*
X-20593Y81913D01*
Y81647D01*
X-20585Y81595D01*
Y81528D01*
X-20570Y81395D01*
X-23034D01*
Y83948D01*
X-22443D01*
Y81987D01*
X-21111D01*
Y82091D01*
X-21103Y82157D01*
X-21096Y82246D01*
X-21088Y82349D01*
X-21073Y82460D01*
X-21051Y82579D01*
X-20992Y82831D01*
X-20955Y82964D01*
X-20903Y83090D01*
X-20852Y83215D01*
X-20785Y83334D01*
X-20711Y83445D01*
X-20622Y83548D01*
X-20615Y83556D01*
X-20600Y83570D01*
X-20570Y83593D01*
X-20533Y83630D01*
X-20489Y83667D01*
X-20430Y83711D01*
X-20363Y83755D01*
X-20289Y83800D01*
X-20208Y83844D01*
X-20111Y83896D01*
X-20015Y83933D01*
X-19904Y83970D01*
X-19793Y84007D01*
X-19675Y84029D01*
X-19549Y84044D01*
X-19416Y84052D01*
X-19409D01*
X-19386D01*
X-19349D01*
X-19305Y84044D01*
D02*
G37*
G36*
X-18217Y80048D02*
X-18195Y80011D01*
X-18173Y79952D01*
X-18136Y79870D01*
X-18099Y79789D01*
X-18054Y79693D01*
X-18017Y79597D01*
X-17988Y79501D01*
Y79493D01*
X-17973Y79456D01*
X-17966Y79412D01*
X-17943Y79345D01*
X-17929Y79271D01*
X-17906Y79182D01*
X-17877Y78990D01*
Y78975D01*
X-17869Y78945D01*
X-17862Y78894D01*
Y78820D01*
X-17854Y78738D01*
X-17847Y78642D01*
X-17840Y78531D01*
Y78361D01*
X-17847Y78294D01*
X-17854Y78213D01*
X-17862Y78102D01*
X-17877Y77983D01*
X-17906Y77850D01*
X-17936Y77702D01*
X-17973Y77554D01*
X-18025Y77399D01*
X-18084Y77236D01*
X-18158Y77081D01*
X-18247Y76933D01*
X-18343Y76792D01*
X-18461Y76659D01*
X-18595Y76540D01*
X-18602Y76533D01*
X-18632Y76518D01*
X-18668Y76489D01*
X-18728Y76452D01*
X-18802Y76400D01*
X-18891Y76355D01*
X-18994Y76296D01*
X-19113Y76244D01*
X-19246Y76193D01*
X-19394Y76134D01*
X-19549Y76089D01*
X-19712Y76045D01*
X-19897Y76000D01*
X-20082Y75971D01*
X-20289Y75956D01*
X-20496Y75949D01*
X-20511D01*
X-20548D01*
X-20607Y75956D01*
X-20689D01*
X-20792Y75971D01*
X-20903Y75978D01*
X-21029Y76000D01*
X-21170Y76022D01*
X-21318Y76060D01*
X-21473Y76096D01*
X-21629Y76148D01*
X-21791Y76208D01*
X-21954Y76281D01*
X-22109Y76363D01*
X-22257Y76452D01*
X-22406Y76563D01*
X-22413Y76570D01*
X-22435Y76592D01*
X-22472Y76629D01*
X-22524Y76681D01*
X-22583Y76748D01*
X-22642Y76822D01*
X-22716Y76918D01*
X-22783Y77029D01*
X-22857Y77155D01*
X-22923Y77295D01*
X-22983Y77451D01*
X-23042Y77621D01*
X-23094Y77806D01*
X-23131Y78006D01*
X-23153Y78228D01*
X-23160Y78457D01*
Y78575D01*
X-23153Y78642D01*
X-23145Y78724D01*
Y78812D01*
X-23131Y78916D01*
X-23123Y79027D01*
X-23109Y79145D01*
X-23086Y79278D01*
X-23064Y79419D01*
X-23042Y79567D01*
X-23012Y79722D01*
X-22938Y80055D01*
X-22265D01*
Y80048D01*
X-22280Y80019D01*
X-22287Y79981D01*
X-22309Y79930D01*
X-22324Y79870D01*
X-22346Y79796D01*
X-22398Y79634D01*
X-22450Y79456D01*
X-22502Y79278D01*
X-22524Y79197D01*
X-22546Y79123D01*
X-22561Y79049D01*
X-22568Y78990D01*
Y78975D01*
X-22576Y78938D01*
X-22583Y78886D01*
X-22598Y78812D01*
X-22605Y78731D01*
X-22613Y78635D01*
X-22620Y78442D01*
Y78405D01*
X-22613Y78354D01*
Y78294D01*
X-22598Y78220D01*
X-22591Y78132D01*
X-22568Y78035D01*
X-22546Y77932D01*
X-22509Y77828D01*
X-22472Y77717D01*
X-22420Y77606D01*
X-22361Y77495D01*
X-22287Y77391D01*
X-22206Y77295D01*
X-22109Y77199D01*
X-21998Y77118D01*
X-21991Y77110D01*
X-21969Y77103D01*
X-21939Y77081D01*
X-21888Y77051D01*
X-21828Y77021D01*
X-21754Y76992D01*
X-21673Y76955D01*
X-21577Y76918D01*
X-21473Y76873D01*
X-21362Y76837D01*
X-21236Y76807D01*
X-21103Y76777D01*
X-20963Y76748D01*
X-20814Y76726D01*
X-20652Y76718D01*
X-20489Y76711D01*
X-20482D01*
X-20445D01*
X-20400D01*
X-20334Y76718D01*
X-20252Y76726D01*
X-20163Y76733D01*
X-20060Y76748D01*
X-19949Y76770D01*
X-19704Y76822D01*
X-19579Y76866D01*
X-19453Y76911D01*
X-19327Y76962D01*
X-19201Y77021D01*
X-19083Y77096D01*
X-18972Y77177D01*
X-18965Y77184D01*
X-18950Y77199D01*
X-18920Y77229D01*
X-18883Y77266D01*
X-18839Y77310D01*
X-18794Y77369D01*
X-18743Y77443D01*
X-18691Y77525D01*
X-18632Y77614D01*
X-18580Y77710D01*
X-18535Y77821D01*
X-18491Y77939D01*
X-18454Y78072D01*
X-18424Y78213D01*
X-18409Y78361D01*
X-18402Y78516D01*
Y78605D01*
X-18409Y78672D01*
Y78738D01*
X-18417Y78820D01*
X-18439Y78997D01*
Y79005D01*
X-18447Y79042D01*
X-18461Y79086D01*
X-18469Y79145D01*
X-18491Y79219D01*
X-18513Y79301D01*
X-18565Y79471D01*
X-18572Y79486D01*
X-18580Y79515D01*
X-18602Y79567D01*
X-18632Y79634D01*
X-18668Y79722D01*
X-18713Y79819D01*
X-18772Y79937D01*
X-18839Y80063D01*
X-18225D01*
X-18217Y80048D01*
D02*
G37*
G36*
X31099Y131048D02*
X32535D01*
Y130412D01*
X31099D01*
Y128140D01*
X30588D01*
X27466Y130412D01*
Y131048D01*
X30544D01*
Y131729D01*
X31099D01*
Y131048D01*
D02*
G37*
G36*
X32283Y127371D02*
X32305Y127333D01*
X32327Y127274D01*
X32364Y127193D01*
X32401Y127111D01*
X32446Y127015D01*
X32483Y126919D01*
X32512Y126823D01*
Y126815D01*
X32527Y126778D01*
X32535Y126734D01*
X32557Y126667D01*
X32572Y126593D01*
X32594Y126505D01*
X32623Y126312D01*
Y126297D01*
X32631Y126268D01*
X32638Y126216D01*
Y126142D01*
X32645Y126061D01*
X32653Y125964D01*
X32660Y125854D01*
Y125683D01*
X32653Y125617D01*
X32645Y125535D01*
X32638Y125424D01*
X32623Y125306D01*
X32594Y125173D01*
X32564Y125025D01*
X32527Y124877D01*
X32475Y124721D01*
X32416Y124558D01*
X32342Y124403D01*
X32253Y124255D01*
X32157Y124115D01*
X32039Y123981D01*
X31905Y123863D01*
X31898Y123855D01*
X31868Y123841D01*
X31831Y123811D01*
X31772Y123774D01*
X31698Y123722D01*
X31609Y123678D01*
X31506Y123619D01*
X31387Y123567D01*
X31254Y123515D01*
X31106Y123456D01*
X30951Y123412D01*
X30788Y123367D01*
X30603Y123323D01*
X30418Y123293D01*
X30211Y123278D01*
X30004Y123271D01*
X29989D01*
X29952D01*
X29893Y123278D01*
X29811D01*
X29708Y123293D01*
X29597Y123301D01*
X29471Y123323D01*
X29330Y123345D01*
X29182Y123382D01*
X29027Y123419D01*
X28872Y123471D01*
X28709Y123530D01*
X28546Y123604D01*
X28390Y123685D01*
X28242Y123774D01*
X28095Y123885D01*
X28087Y123892D01*
X28065Y123915D01*
X28028Y123952D01*
X27976Y124004D01*
X27917Y124070D01*
X27858Y124144D01*
X27784Y124240D01*
X27717Y124351D01*
X27643Y124477D01*
X27577Y124618D01*
X27517Y124773D01*
X27458Y124943D01*
X27406Y125128D01*
X27369Y125328D01*
X27347Y125550D01*
X27340Y125779D01*
Y125898D01*
X27347Y125964D01*
X27354Y126046D01*
Y126135D01*
X27369Y126238D01*
X27377Y126349D01*
X27391Y126468D01*
X27414Y126601D01*
X27436Y126742D01*
X27458Y126890D01*
X27488Y127045D01*
X27562Y127378D01*
X28235D01*
Y127371D01*
X28220Y127341D01*
X28213Y127304D01*
X28191Y127252D01*
X28176Y127193D01*
X28154Y127119D01*
X28102Y126956D01*
X28050Y126778D01*
X27998Y126601D01*
X27976Y126520D01*
X27954Y126445D01*
X27939Y126372D01*
X27932Y126312D01*
Y126297D01*
X27924Y126260D01*
X27917Y126209D01*
X27902Y126135D01*
X27895Y126053D01*
X27887Y125957D01*
X27880Y125765D01*
Y125728D01*
X27887Y125676D01*
Y125617D01*
X27902Y125543D01*
X27909Y125454D01*
X27932Y125358D01*
X27954Y125254D01*
X27991Y125151D01*
X28028Y125040D01*
X28080Y124928D01*
X28139Y124818D01*
X28213Y124714D01*
X28294Y124618D01*
X28390Y124522D01*
X28501Y124440D01*
X28509Y124433D01*
X28531Y124425D01*
X28561Y124403D01*
X28613Y124373D01*
X28672Y124344D01*
X28746Y124314D01*
X28827Y124277D01*
X28923Y124240D01*
X29027Y124196D01*
X29138Y124159D01*
X29264Y124129D01*
X29397Y124100D01*
X29537Y124070D01*
X29686Y124048D01*
X29848Y124040D01*
X30011Y124033D01*
X30018D01*
X30055D01*
X30100D01*
X30167Y124040D01*
X30248Y124048D01*
X30337Y124055D01*
X30440Y124070D01*
X30551Y124092D01*
X30795Y124144D01*
X30921Y124188D01*
X31047Y124233D01*
X31173Y124285D01*
X31299Y124344D01*
X31417Y124418D01*
X31528Y124499D01*
X31536Y124507D01*
X31550Y124522D01*
X31580Y124551D01*
X31617Y124588D01*
X31661Y124633D01*
X31706Y124692D01*
X31758Y124766D01*
X31809Y124847D01*
X31868Y124936D01*
X31920Y125032D01*
X31965Y125143D01*
X32009Y125261D01*
X32046Y125395D01*
X32076Y125535D01*
X32090Y125683D01*
X32098Y125839D01*
Y125927D01*
X32090Y125994D01*
Y126061D01*
X32083Y126142D01*
X32061Y126320D01*
Y126327D01*
X32054Y126364D01*
X32039Y126409D01*
X32031Y126468D01*
X32009Y126542D01*
X31987Y126623D01*
X31935Y126793D01*
X31928Y126808D01*
X31920Y126838D01*
X31898Y126890D01*
X31868Y126956D01*
X31831Y127045D01*
X31787Y127141D01*
X31728Y127260D01*
X31661Y127385D01*
X32276D01*
X32283Y127371D01*
D02*
G37*
G36*
X-15818Y147383D02*
X-15767Y147376D01*
X-15700Y147368D01*
X-15633Y147354D01*
X-15559Y147339D01*
X-15397Y147287D01*
X-15219Y147213D01*
X-15130Y147169D01*
X-15034Y147117D01*
X-14945Y147050D01*
X-14856Y146976D01*
X-14849Y146969D01*
X-14834Y146954D01*
X-14812Y146932D01*
X-14782Y146895D01*
X-14745Y146850D01*
X-14708Y146799D01*
X-14664Y146732D01*
X-14627Y146651D01*
X-14583Y146562D01*
X-14538Y146466D01*
X-14501Y146355D01*
X-14464Y146229D01*
X-14435Y146096D01*
X-14412Y145948D01*
X-14398Y145785D01*
X-14390Y145615D01*
Y145533D01*
X-14398Y145481D01*
Y145430D01*
X-14405Y145363D01*
X-14412Y145296D01*
X-14420Y145215D01*
X-14427Y145126D01*
X-14442Y145023D01*
X-14457Y144919D01*
X-14501Y144690D01*
X-14553Y144438D01*
X-15182D01*
Y144445D01*
X-15167Y144468D01*
X-15160Y144505D01*
X-15138Y144556D01*
X-15115Y144616D01*
X-15093Y144690D01*
X-15071Y144764D01*
X-15041Y144852D01*
X-14990Y145030D01*
X-14945Y145222D01*
X-14916Y145400D01*
X-14901Y145570D01*
Y145615D01*
X-14908Y145652D01*
Y145696D01*
X-14916Y145740D01*
X-14938Y145851D01*
X-14967Y145977D01*
X-15019Y146110D01*
X-15086Y146244D01*
X-15182Y146362D01*
X-15197Y146377D01*
X-15234Y146414D01*
X-15293Y146458D01*
X-15382Y146517D01*
X-15485Y146577D01*
X-15604Y146621D01*
X-15752Y146658D01*
X-15907Y146673D01*
X-15915D01*
X-15929D01*
X-15952D01*
X-15981Y146665D01*
X-16063Y146658D01*
X-16166Y146636D01*
X-16285Y146599D01*
X-16410Y146540D01*
X-16536Y146458D01*
X-16603Y146414D01*
X-16662Y146355D01*
X-16669D01*
X-16677Y146340D01*
X-16692Y146318D01*
X-16714Y146295D01*
X-16736Y146258D01*
X-16766Y146214D01*
X-16795Y146155D01*
X-16825Y146088D01*
X-16854Y146014D01*
X-16877Y145933D01*
X-16906Y145829D01*
X-16928Y145726D01*
X-16951Y145607D01*
X-16965Y145474D01*
X-16980Y145326D01*
Y144904D01*
X-17432D01*
X-17439Y145134D01*
Y145208D01*
X-17446Y145267D01*
Y145333D01*
X-17454Y145407D01*
X-17476Y145578D01*
X-17513Y145763D01*
X-17557Y145948D01*
X-17594Y146029D01*
X-17631Y146110D01*
X-17676Y146184D01*
X-17728Y146244D01*
X-17742Y146258D01*
X-17779Y146288D01*
X-17846Y146340D01*
X-17927Y146392D01*
X-18031Y146443D01*
X-18149Y146495D01*
X-18275Y146525D01*
X-18423Y146540D01*
X-18431D01*
X-18438D01*
X-18482D01*
X-18542Y146525D01*
X-18623Y146510D01*
X-18712Y146480D01*
X-18808Y146443D01*
X-18897Y146384D01*
X-18986Y146303D01*
X-18993Y146295D01*
X-19023Y146258D01*
X-19052Y146207D01*
X-19097Y146125D01*
X-19134Y146029D01*
X-19171Y145911D01*
X-19193Y145770D01*
X-19200Y145607D01*
Y145555D01*
X-19193Y145518D01*
Y145474D01*
X-19185Y145422D01*
X-19178Y145356D01*
X-19163Y145282D01*
X-19134Y145119D01*
X-19082Y144934D01*
X-19015Y144727D01*
X-18926Y144505D01*
X-19511D01*
Y144512D01*
X-19518Y144527D01*
X-19526Y144549D01*
X-19533Y144579D01*
X-19555Y144653D01*
X-19585Y144749D01*
X-19615Y144860D01*
X-19644Y144971D01*
X-19666Y145082D01*
X-19681Y145178D01*
Y145193D01*
X-19689Y145222D01*
Y145267D01*
X-19696Y145326D01*
X-19703Y145400D01*
Y145481D01*
X-19711Y145652D01*
Y145726D01*
X-19703Y145785D01*
Y145851D01*
X-19696Y145925D01*
X-19681Y146014D01*
X-19674Y146103D01*
X-19629Y146295D01*
X-19570Y146495D01*
X-19496Y146680D01*
X-19444Y146762D01*
X-19385Y146836D01*
Y146843D01*
X-19370Y146850D01*
X-19326Y146895D01*
X-19259Y146954D01*
X-19163Y147028D01*
X-19037Y147102D01*
X-18889Y147161D01*
X-18727Y147206D01*
X-18630Y147213D01*
X-18534Y147220D01*
X-18519D01*
X-18482D01*
X-18431Y147213D01*
X-18357Y147206D01*
X-18275Y147191D01*
X-18186Y147176D01*
X-18098Y147146D01*
X-18009Y147109D01*
X-18001Y147102D01*
X-17972Y147087D01*
X-17927Y147065D01*
X-17876Y147028D01*
X-17809Y146976D01*
X-17742Y146924D01*
X-17668Y146858D01*
X-17594Y146776D01*
X-17587Y146769D01*
X-17565Y146739D01*
X-17528Y146688D01*
X-17483Y146614D01*
X-17432Y146525D01*
X-17372Y146421D01*
X-17313Y146295D01*
X-17261Y146155D01*
Y146162D01*
X-17254Y146177D01*
X-17247Y146207D01*
X-17239Y146236D01*
X-17217Y146325D01*
X-17180Y146436D01*
X-17136Y146554D01*
X-17084Y146680D01*
X-17025Y146799D01*
X-16958Y146895D01*
X-16951Y146902D01*
X-16928Y146932D01*
X-16884Y146976D01*
X-16832Y147035D01*
X-16773Y147095D01*
X-16692Y147154D01*
X-16603Y147213D01*
X-16507Y147265D01*
X-16492Y147272D01*
X-16462Y147287D01*
X-16403Y147302D01*
X-16329Y147331D01*
X-16240Y147354D01*
X-16144Y147368D01*
X-16033Y147383D01*
X-15915Y147391D01*
X-15907D01*
X-15885D01*
X-15855D01*
X-15818Y147383D01*
D02*
G37*
G36*
X-14768Y143321D02*
X-14745Y143284D01*
X-14723Y143224D01*
X-14686Y143143D01*
X-14649Y143062D01*
X-14605Y142965D01*
X-14568Y142869D01*
X-14538Y142773D01*
Y142766D01*
X-14523Y142729D01*
X-14516Y142684D01*
X-14494Y142618D01*
X-14479Y142544D01*
X-14457Y142455D01*
X-14427Y142262D01*
Y142248D01*
X-14420Y142218D01*
X-14412Y142166D01*
Y142092D01*
X-14405Y142011D01*
X-14398Y141915D01*
X-14390Y141804D01*
Y141633D01*
X-14398Y141567D01*
X-14405Y141485D01*
X-14412Y141374D01*
X-14427Y141256D01*
X-14457Y141123D01*
X-14486Y140975D01*
X-14523Y140827D01*
X-14575Y140671D01*
X-14634Y140509D01*
X-14708Y140353D01*
X-14797Y140205D01*
X-14893Y140065D01*
X-15012Y139931D01*
X-15145Y139813D01*
X-15152Y139806D01*
X-15182Y139791D01*
X-15219Y139761D01*
X-15278Y139724D01*
X-15352Y139672D01*
X-15441Y139628D01*
X-15545Y139569D01*
X-15663Y139517D01*
X-15796Y139465D01*
X-15944Y139406D01*
X-16100Y139362D01*
X-16262Y139317D01*
X-16447Y139273D01*
X-16632Y139243D01*
X-16840Y139228D01*
X-17047Y139221D01*
X-17062D01*
X-17099D01*
X-17158Y139228D01*
X-17239D01*
X-17343Y139243D01*
X-17454Y139251D01*
X-17580Y139273D01*
X-17720Y139295D01*
X-17868Y139332D01*
X-18024Y139369D01*
X-18179Y139421D01*
X-18342Y139480D01*
X-18505Y139554D01*
X-18660Y139635D01*
X-18808Y139724D01*
X-18956Y139835D01*
X-18963Y139843D01*
X-18986Y139865D01*
X-19023Y139902D01*
X-19074Y139954D01*
X-19134Y140020D01*
X-19193Y140094D01*
X-19267Y140190D01*
X-19333Y140301D01*
X-19407Y140427D01*
X-19474Y140568D01*
X-19533Y140723D01*
X-19592Y140893D01*
X-19644Y141078D01*
X-19681Y141278D01*
X-19703Y141500D01*
X-19711Y141730D01*
Y141848D01*
X-19703Y141915D01*
X-19696Y141996D01*
Y142085D01*
X-19681Y142188D01*
X-19674Y142299D01*
X-19659Y142418D01*
X-19637Y142551D01*
X-19615Y142692D01*
X-19592Y142840D01*
X-19563Y142995D01*
X-19489Y143328D01*
X-18815D01*
Y143321D01*
X-18830Y143291D01*
X-18838Y143254D01*
X-18860Y143202D01*
X-18875Y143143D01*
X-18897Y143069D01*
X-18949Y142906D01*
X-19000Y142729D01*
X-19052Y142551D01*
X-19074Y142470D01*
X-19097Y142396D01*
X-19111Y142322D01*
X-19119Y142262D01*
Y142248D01*
X-19126Y142211D01*
X-19134Y142159D01*
X-19148Y142085D01*
X-19156Y142003D01*
X-19163Y141907D01*
X-19171Y141715D01*
Y141678D01*
X-19163Y141626D01*
Y141567D01*
X-19148Y141493D01*
X-19141Y141404D01*
X-19119Y141308D01*
X-19097Y141204D01*
X-19060Y141101D01*
X-19023Y140990D01*
X-18971Y140879D01*
X-18912Y140768D01*
X-18838Y140664D01*
X-18756Y140568D01*
X-18660Y140472D01*
X-18549Y140390D01*
X-18542Y140383D01*
X-18519Y140375D01*
X-18490Y140353D01*
X-18438Y140324D01*
X-18379Y140294D01*
X-18305Y140264D01*
X-18223Y140227D01*
X-18127Y140190D01*
X-18024Y140146D01*
X-17913Y140109D01*
X-17787Y140079D01*
X-17654Y140050D01*
X-17513Y140020D01*
X-17365Y139998D01*
X-17202Y139991D01*
X-17039Y139983D01*
X-17032D01*
X-16995D01*
X-16951D01*
X-16884Y139991D01*
X-16803Y139998D01*
X-16714Y140005D01*
X-16610Y140020D01*
X-16499Y140042D01*
X-16255Y140094D01*
X-16129Y140139D01*
X-16003Y140183D01*
X-15878Y140235D01*
X-15752Y140294D01*
X-15633Y140368D01*
X-15522Y140449D01*
X-15515Y140457D01*
X-15500Y140472D01*
X-15471Y140501D01*
X-15434Y140538D01*
X-15389Y140583D01*
X-15345Y140642D01*
X-15293Y140716D01*
X-15241Y140797D01*
X-15182Y140886D01*
X-15130Y140982D01*
X-15086Y141093D01*
X-15041Y141212D01*
X-15004Y141345D01*
X-14975Y141485D01*
X-14960Y141633D01*
X-14953Y141789D01*
Y141878D01*
X-14960Y141944D01*
Y142011D01*
X-14967Y142092D01*
X-14990Y142270D01*
Y142277D01*
X-14997Y142314D01*
X-15012Y142359D01*
X-15019Y142418D01*
X-15041Y142492D01*
X-15064Y142573D01*
X-15115Y142743D01*
X-15123Y142758D01*
X-15130Y142788D01*
X-15152Y142840D01*
X-15182Y142906D01*
X-15219Y142995D01*
X-15263Y143091D01*
X-15323Y143210D01*
X-15389Y143335D01*
X-14775D01*
X-14768Y143321D01*
D02*
G37*
G36*
X-33614Y138559D02*
X-33518Y138544D01*
X-33399Y138522D01*
X-33273Y138492D01*
X-33147Y138448D01*
X-33014Y138389D01*
X-33007D01*
X-33000Y138381D01*
X-32977Y138366D01*
X-32955Y138352D01*
X-32918Y138330D01*
X-32874Y138300D01*
X-32829Y138263D01*
X-32770Y138218D01*
X-32711Y138167D01*
X-32637Y138108D01*
X-32563Y138033D01*
X-32482Y137960D01*
X-32393Y137871D01*
X-32296Y137767D01*
X-32193Y137656D01*
X-32089Y137538D01*
X-31867Y137271D01*
X-31860Y137257D01*
X-31823Y137220D01*
X-31771Y137168D01*
X-31705Y137094D01*
X-31623Y137012D01*
X-31519Y136916D01*
X-31409Y136812D01*
X-31283Y136702D01*
X-31268Y136687D01*
X-31223Y136657D01*
X-31157Y136605D01*
X-31068Y136546D01*
X-30957Y136487D01*
X-30831Y136428D01*
X-30698Y136376D01*
X-30558Y136339D01*
Y138544D01*
X-29965D01*
Y135525D01*
X-30558D01*
X-30565D01*
X-30587Y135540D01*
X-30624Y135555D01*
X-30676Y135584D01*
X-30742Y135621D01*
X-30817Y135666D01*
X-30905Y135717D01*
X-31001Y135784D01*
X-31105Y135858D01*
X-31223Y135939D01*
X-31342Y136036D01*
X-31475Y136146D01*
X-31616Y136265D01*
X-31756Y136398D01*
X-31904Y136546D01*
X-32052Y136709D01*
X-32400Y137101D01*
X-32408Y137109D01*
X-32415Y137123D01*
X-32437Y137138D01*
X-32467Y137168D01*
X-32541Y137242D01*
X-32629Y137330D01*
X-32741Y137427D01*
X-32851Y137523D01*
X-32970Y137612D01*
X-33088Y137686D01*
X-33103Y137693D01*
X-33140Y137708D01*
X-33207Y137738D01*
X-33288Y137767D01*
X-33384Y137797D01*
X-33495Y137826D01*
X-33614Y137841D01*
X-33740Y137848D01*
X-33747D01*
X-33762D01*
X-33784D01*
X-33806Y137841D01*
X-33887Y137834D01*
X-33984Y137819D01*
X-34087Y137782D01*
X-34198Y137738D01*
X-34309Y137671D01*
X-34405Y137582D01*
X-34413Y137567D01*
X-34442Y137538D01*
X-34479Y137478D01*
X-34531Y137397D01*
X-34576Y137301D01*
X-34613Y137182D01*
X-34642Y137042D01*
X-34650Y136887D01*
Y136820D01*
X-34642Y136776D01*
Y136716D01*
X-34635Y136657D01*
X-34613Y136524D01*
Y136516D01*
X-34605Y136494D01*
X-34598Y136457D01*
X-34583Y136413D01*
X-34568Y136361D01*
X-34546Y136294D01*
X-34494Y136154D01*
Y136146D01*
X-34479Y136117D01*
X-34465Y136080D01*
X-34435Y136021D01*
X-34398Y135947D01*
X-34354Y135858D01*
X-34302Y135762D01*
X-34243Y135651D01*
X-34842D01*
X-34850Y135658D01*
X-34857Y135680D01*
X-34872Y135717D01*
X-34894Y135769D01*
X-34916Y135828D01*
X-34946Y135902D01*
X-34975Y135984D01*
X-35005Y136073D01*
X-35034Y136169D01*
X-35057Y136272D01*
X-35109Y136502D01*
X-35146Y136739D01*
X-35160Y136864D01*
Y137064D01*
X-35153Y137109D01*
X-35146Y137175D01*
X-35138Y137242D01*
X-35123Y137323D01*
X-35109Y137412D01*
X-35064Y137597D01*
X-34990Y137789D01*
X-34946Y137878D01*
X-34887Y137974D01*
X-34827Y138063D01*
X-34753Y138145D01*
X-34746Y138152D01*
X-34738Y138159D01*
X-34716Y138181D01*
X-34679Y138211D01*
X-34642Y138241D01*
X-34598Y138278D01*
X-34539Y138315D01*
X-34479Y138359D01*
X-34332Y138433D01*
X-34161Y138500D01*
X-34073Y138529D01*
X-33969Y138551D01*
X-33865Y138559D01*
X-33754Y138566D01*
X-33747D01*
X-33740D01*
X-33717D01*
X-33688D01*
X-33614Y138559D01*
D02*
G37*
G36*
X-30217Y134533D02*
X-30195Y134496D01*
X-30173Y134437D01*
X-30136Y134356D01*
X-30099Y134274D01*
X-30054Y134178D01*
X-30017Y134082D01*
X-29988Y133986D01*
Y133978D01*
X-29973Y133941D01*
X-29965Y133897D01*
X-29943Y133830D01*
X-29928Y133756D01*
X-29906Y133668D01*
X-29877Y133475D01*
Y133460D01*
X-29869Y133431D01*
X-29862Y133379D01*
Y133305D01*
X-29855Y133223D01*
X-29847Y133127D01*
X-29840Y133016D01*
Y132846D01*
X-29847Y132780D01*
X-29855Y132698D01*
X-29862Y132587D01*
X-29877Y132469D01*
X-29906Y132335D01*
X-29936Y132187D01*
X-29973Y132039D01*
X-30025Y131884D01*
X-30084Y131721D01*
X-30158Y131566D01*
X-30247Y131418D01*
X-30343Y131277D01*
X-30461Y131144D01*
X-30595Y131026D01*
X-30602Y131018D01*
X-30632Y131003D01*
X-30669Y130974D01*
X-30728Y130937D01*
X-30802Y130885D01*
X-30891Y130841D01*
X-30994Y130781D01*
X-31113Y130730D01*
X-31246Y130678D01*
X-31394Y130619D01*
X-31549Y130574D01*
X-31712Y130530D01*
X-31897Y130485D01*
X-32082Y130456D01*
X-32289Y130441D01*
X-32496Y130434D01*
X-32511D01*
X-32548D01*
X-32607Y130441D01*
X-32689D01*
X-32792Y130456D01*
X-32903Y130463D01*
X-33029Y130485D01*
X-33170Y130508D01*
X-33318Y130545D01*
X-33473Y130582D01*
X-33628Y130633D01*
X-33791Y130693D01*
X-33954Y130767D01*
X-34110Y130848D01*
X-34258Y130937D01*
X-34405Y131048D01*
X-34413Y131055D01*
X-34435Y131078D01*
X-34472Y131114D01*
X-34524Y131166D01*
X-34583Y131233D01*
X-34642Y131307D01*
X-34716Y131403D01*
X-34783Y131514D01*
X-34857Y131640D01*
X-34923Y131781D01*
X-34983Y131936D01*
X-35042Y132106D01*
X-35094Y132291D01*
X-35131Y132491D01*
X-35153Y132713D01*
X-35160Y132942D01*
Y133061D01*
X-35153Y133127D01*
X-35146Y133209D01*
Y133298D01*
X-35131Y133401D01*
X-35123Y133512D01*
X-35109Y133631D01*
X-35086Y133764D01*
X-35064Y133904D01*
X-35042Y134052D01*
X-35012Y134208D01*
X-34938Y134541D01*
X-34265D01*
Y134533D01*
X-34280Y134504D01*
X-34287Y134467D01*
X-34309Y134415D01*
X-34324Y134356D01*
X-34346Y134282D01*
X-34398Y134119D01*
X-34450Y133941D01*
X-34502Y133764D01*
X-34524Y133682D01*
X-34546Y133608D01*
X-34561Y133534D01*
X-34568Y133475D01*
Y133460D01*
X-34576Y133423D01*
X-34583Y133371D01*
X-34598Y133298D01*
X-34605Y133216D01*
X-34613Y133120D01*
X-34620Y132928D01*
Y132890D01*
X-34613Y132839D01*
Y132780D01*
X-34598Y132705D01*
X-34591Y132617D01*
X-34568Y132520D01*
X-34546Y132417D01*
X-34509Y132313D01*
X-34472Y132202D01*
X-34420Y132091D01*
X-34361Y131980D01*
X-34287Y131877D01*
X-34206Y131781D01*
X-34110Y131684D01*
X-33999Y131603D01*
X-33991Y131596D01*
X-33969Y131588D01*
X-33939Y131566D01*
X-33887Y131536D01*
X-33828Y131507D01*
X-33754Y131477D01*
X-33673Y131440D01*
X-33577Y131403D01*
X-33473Y131359D01*
X-33362Y131322D01*
X-33236Y131292D01*
X-33103Y131263D01*
X-32963Y131233D01*
X-32814Y131211D01*
X-32652Y131203D01*
X-32489Y131196D01*
X-32482D01*
X-32445D01*
X-32400D01*
X-32333Y131203D01*
X-32252Y131211D01*
X-32163Y131218D01*
X-32060Y131233D01*
X-31949Y131255D01*
X-31705Y131307D01*
X-31579Y131351D01*
X-31453Y131396D01*
X-31327Y131448D01*
X-31201Y131507D01*
X-31083Y131581D01*
X-30972Y131662D01*
X-30964Y131669D01*
X-30950Y131684D01*
X-30920Y131714D01*
X-30883Y131751D01*
X-30839Y131795D01*
X-30794Y131854D01*
X-30742Y131929D01*
X-30691Y132010D01*
X-30632Y132099D01*
X-30580Y132195D01*
X-30535Y132306D01*
X-30491Y132424D01*
X-30454Y132557D01*
X-30424Y132698D01*
X-30410Y132846D01*
X-30402Y133001D01*
Y133090D01*
X-30410Y133157D01*
Y133223D01*
X-30417Y133305D01*
X-30439Y133483D01*
Y133490D01*
X-30446Y133527D01*
X-30461Y133571D01*
X-30469Y133631D01*
X-30491Y133704D01*
X-30513Y133786D01*
X-30565Y133956D01*
X-30572Y133971D01*
X-30580Y134001D01*
X-30602Y134052D01*
X-30632Y134119D01*
X-30669Y134208D01*
X-30713Y134304D01*
X-30772Y134422D01*
X-30839Y134548D01*
X-30224D01*
X-30217Y134533D01*
D02*
G37*
G36*
X19044Y149775D02*
X14478D01*
Y148969D01*
X14056D01*
X13930Y150449D01*
X19044D01*
Y149775D01*
D02*
G37*
G36*
X18792Y147533D02*
X18814Y147496D01*
X18837Y147437D01*
X18874Y147355D01*
X18911Y147274D01*
X18955Y147178D01*
X18992Y147082D01*
X19022Y146985D01*
Y146978D01*
X19036Y146941D01*
X19044Y146897D01*
X19066Y146830D01*
X19081Y146756D01*
X19103Y146667D01*
X19133Y146475D01*
Y146460D01*
X19140Y146430D01*
X19147Y146379D01*
Y146305D01*
X19155Y146223D01*
X19162Y146127D01*
X19170Y146016D01*
Y145846D01*
X19162Y145779D01*
X19155Y145698D01*
X19147Y145587D01*
X19133Y145468D01*
X19103Y145335D01*
X19073Y145187D01*
X19036Y145039D01*
X18985Y144884D01*
X18925Y144721D01*
X18851Y144566D01*
X18763Y144418D01*
X18666Y144277D01*
X18548Y144144D01*
X18415Y144025D01*
X18407Y144018D01*
X18378Y144003D01*
X18341Y143974D01*
X18282Y143937D01*
X18208Y143885D01*
X18119Y143840D01*
X18015Y143781D01*
X17897Y143729D01*
X17764Y143678D01*
X17616Y143618D01*
X17460Y143574D01*
X17297Y143530D01*
X17112Y143485D01*
X16927Y143456D01*
X16720Y143441D01*
X16513Y143433D01*
X16498D01*
X16461D01*
X16402Y143441D01*
X16321D01*
X16217Y143456D01*
X16106Y143463D01*
X15980Y143485D01*
X15840Y143507D01*
X15692Y143544D01*
X15536Y143581D01*
X15381Y143633D01*
X15218Y143692D01*
X15055Y143766D01*
X14900Y143848D01*
X14752Y143937D01*
X14604Y144048D01*
X14596Y144055D01*
X14574Y144077D01*
X14537Y144114D01*
X14485Y144166D01*
X14426Y144233D01*
X14367Y144307D01*
X14293Y144403D01*
X14226Y144514D01*
X14152Y144640D01*
X14086Y144780D01*
X14027Y144936D01*
X13967Y145106D01*
X13916Y145291D01*
X13879Y145491D01*
X13856Y145713D01*
X13849Y145942D01*
Y146060D01*
X13856Y146127D01*
X13864Y146208D01*
Y146297D01*
X13879Y146401D01*
X13886Y146512D01*
X13901Y146630D01*
X13923Y146763D01*
X13945Y146904D01*
X13967Y147052D01*
X13997Y147207D01*
X14071Y147540D01*
X14744D01*
Y147533D01*
X14730Y147503D01*
X14722Y147466D01*
X14700Y147415D01*
X14685Y147355D01*
X14663Y147281D01*
X14611Y147119D01*
X14559Y146941D01*
X14508Y146763D01*
X14485Y146682D01*
X14463Y146608D01*
X14448Y146534D01*
X14441Y146475D01*
Y146460D01*
X14434Y146423D01*
X14426Y146371D01*
X14411Y146297D01*
X14404Y146216D01*
X14397Y146120D01*
X14389Y145927D01*
Y145890D01*
X14397Y145838D01*
Y145779D01*
X14411Y145705D01*
X14419Y145616D01*
X14441Y145520D01*
X14463Y145417D01*
X14500Y145313D01*
X14537Y145202D01*
X14589Y145091D01*
X14648Y144980D01*
X14722Y144876D01*
X14804Y144780D01*
X14900Y144684D01*
X15011Y144603D01*
X15018Y144595D01*
X15040Y144588D01*
X15070Y144566D01*
X15122Y144536D01*
X15181Y144506D01*
X15255Y144477D01*
X15336Y144440D01*
X15433Y144403D01*
X15536Y144358D01*
X15647Y144321D01*
X15773Y144292D01*
X15906Y144262D01*
X16047Y144233D01*
X16195Y144210D01*
X16358Y144203D01*
X16520Y144196D01*
X16528D01*
X16565D01*
X16609D01*
X16676Y144203D01*
X16757Y144210D01*
X16846Y144218D01*
X16950Y144233D01*
X17061Y144255D01*
X17305Y144307D01*
X17431Y144351D01*
X17556Y144395D01*
X17682Y144447D01*
X17808Y144506D01*
X17926Y144580D01*
X18037Y144662D01*
X18045Y144669D01*
X18060Y144684D01*
X18089Y144714D01*
X18126Y144751D01*
X18171Y144795D01*
X18215Y144854D01*
X18267Y144928D01*
X18319Y145010D01*
X18378Y145098D01*
X18430Y145195D01*
X18474Y145306D01*
X18518Y145424D01*
X18555Y145557D01*
X18585Y145698D01*
X18600Y145846D01*
X18607Y146001D01*
Y146090D01*
X18600Y146157D01*
Y146223D01*
X18592Y146305D01*
X18570Y146482D01*
Y146490D01*
X18563Y146527D01*
X18548Y146571D01*
X18541Y146630D01*
X18518Y146704D01*
X18496Y146786D01*
X18444Y146956D01*
X18437Y146971D01*
X18430Y147000D01*
X18407Y147052D01*
X18378Y147119D01*
X18341Y147207D01*
X18296Y147304D01*
X18237Y147422D01*
X18171Y147548D01*
X18785D01*
X18792Y147533D01*
D02*
G37*
%LPC*%
G36*
X29810Y64316D02*
X29706Y64299D01*
X29592Y64262D01*
X29578Y64253D01*
X29540Y64232D01*
X29481Y64189D01*
X29440Y64162D01*
X29405Y64131D01*
X29362Y64087D01*
X29310Y64041D01*
X29260Y63984D01*
X29203Y63914D01*
X29145Y63845D01*
X29091Y63765D01*
X29029Y63673D01*
X28829Y63327D01*
X30290Y62483D01*
X30435Y62733D01*
X30450Y62775D01*
X30476Y62820D01*
X30500Y62875D01*
X30551Y63008D01*
X30603Y63157D01*
X30638Y63308D01*
X30655Y63469D01*
X30649Y63549D01*
X30641Y63623D01*
X30635Y63643D01*
X30618Y63687D01*
X30599Y63758D01*
X30554Y63843D01*
X30497Y63936D01*
X30420Y64040D01*
X30320Y64132D01*
X30199Y64219D01*
X30193Y64223D01*
X30186Y64227D01*
X30144Y64243D01*
X30083Y64269D01*
X30011Y64294D01*
X29916Y64306D01*
X29810Y64316D01*
D02*
G37*
G36*
X32047Y63246D02*
X31901Y63245D01*
X31821Y63240D01*
X31740Y63218D01*
X31659Y63197D01*
X31571Y63162D01*
X31561Y63160D01*
X31551Y63157D01*
X31523Y63139D01*
X31489Y63124D01*
X31451Y63103D01*
X31406Y63069D01*
X31355Y63039D01*
X31296Y62996D01*
X31171Y62898D01*
X31043Y62766D01*
X30911Y62612D01*
X30788Y62427D01*
X30688Y62254D01*
X32283Y61332D01*
X32450Y61621D01*
X32480Y61689D01*
X32558Y61823D01*
X32631Y61978D01*
X32699Y62126D01*
X32730Y62194D01*
X32757Y62256D01*
X32773Y62314D01*
X32787Y62366D01*
X32784Y62377D01*
X32792Y62406D01*
X32795Y62455D01*
X32795Y62515D01*
X32789Y62578D01*
X32780Y62652D01*
X32759Y62733D01*
X32727Y62811D01*
X32724Y62821D01*
X32706Y62849D01*
X32685Y62887D01*
X32651Y62932D01*
X32605Y62984D01*
X32552Y63040D01*
X32489Y63094D01*
X32415Y63145D01*
X32409Y63148D01*
X32396Y63156D01*
X32377Y63167D01*
X32348Y63175D01*
X32270Y63203D01*
X32165Y63229D01*
X32047Y63246D01*
D02*
G37*
G36*
X-35376Y88363D02*
X-35687Y85586D01*
X-34251Y86415D01*
X-35376Y88363D01*
D02*
G37*
G36*
X-43198Y84018D02*
X-43287Y84009D01*
X-43297Y84012D01*
X-43333Y84000D01*
X-43385Y83987D01*
X-43460Y83969D01*
X-43555Y83940D01*
X-43665Y83894D01*
X-43797Y83826D01*
X-43948Y83747D01*
X-44332Y83525D01*
X-43407Y81923D01*
X-43145Y82075D01*
X-43103Y82107D01*
X-43046Y82141D01*
X-42985Y82184D01*
X-42853Y82295D01*
X-42717Y82415D01*
X-42593Y82556D01*
X-42541Y82628D01*
X-42499Y82704D01*
X-42464Y82776D01*
X-42442Y82856D01*
X-42446Y82863D01*
X-42437Y82877D01*
X-42433Y82930D01*
X-42428Y83010D01*
X-42428Y83113D01*
X-42438Y83235D01*
X-42463Y83366D01*
X-42504Y83496D01*
X-42565Y83631D01*
X-42569Y83638D01*
X-42583Y83663D01*
X-42612Y83698D01*
X-42648Y83746D01*
X-42694Y83796D01*
X-42740Y83846D01*
X-42803Y83896D01*
X-42868Y83935D01*
X-42878Y83938D01*
X-42902Y83949D01*
X-42936Y83964D01*
X-42991Y83984D01*
X-43051Y84000D01*
X-43118Y84013D01*
X-43198Y84018D01*
D02*
G37*
G36*
X20917Y59970D02*
X20830Y59969D01*
X20751Y59963D01*
X20670Y59942D01*
X20666Y59935D01*
X20649Y59936D01*
X20602Y59913D01*
X20530Y59877D01*
X20440Y59826D01*
X20340Y59756D01*
X20239Y59669D01*
X20147Y59569D01*
X20060Y59448D01*
X20056Y59442D01*
X20041Y59416D01*
X20026Y59374D01*
X20002Y59319D01*
X19982Y59254D01*
X19961Y59189D01*
X19950Y59110D01*
X19949Y59034D01*
X19951Y59023D01*
X19953Y58997D01*
X19958Y58960D01*
X19967Y58903D01*
X19984Y58842D01*
X20006Y58778D01*
X20042Y58706D01*
X20094Y58634D01*
X20097Y58623D01*
X20125Y58599D01*
X20162Y58560D01*
X20215Y58504D01*
X20288Y58436D01*
X20383Y58364D01*
X20507Y58284D01*
X20651Y58192D01*
X21035Y57970D01*
X21960Y59572D01*
X21698Y59724D01*
X21649Y59744D01*
X21591Y59777D01*
X21523Y59808D01*
X21361Y59867D01*
X21189Y59924D01*
X21006Y59961D01*
X20917Y59970D01*
D02*
G37*
G36*
X7860Y131098D02*
X7853D01*
X7823D01*
X7779Y131090D01*
X7720Y131083D01*
X7653Y131068D01*
X7587Y131053D01*
X7513Y131024D01*
X7446Y130987D01*
X7439Y130979D01*
X7416Y130965D01*
X7387Y130942D01*
X7342Y130905D01*
X7298Y130861D01*
X7254Y130809D01*
X7209Y130743D01*
X7172Y130661D01*
X7165Y130654D01*
X7157Y130617D01*
X7143Y130565D01*
X7120Y130491D01*
X7098Y130395D01*
X7083Y130276D01*
X7076Y130128D01*
X7069Y129958D01*
Y129514D01*
X8919D01*
Y129817D01*
X8911Y129869D01*
Y129936D01*
X8904Y130010D01*
X8874Y130180D01*
X8837Y130358D01*
X8778Y130535D01*
X8741Y130617D01*
X8697Y130691D01*
X8652Y130757D01*
X8593Y130816D01*
X8586D01*
X8578Y130831D01*
X8534Y130861D01*
X8467Y130905D01*
X8378Y130957D01*
X8267Y131009D01*
X8142Y131053D01*
X8008Y131083D01*
X7860Y131098D01*
D02*
G37*
G36*
X28820Y135156D02*
X28812D01*
X28783D01*
X28738Y135149D01*
X28679Y135142D01*
X28613Y135127D01*
X28546Y135112D01*
X28472Y135082D01*
X28405Y135045D01*
X28398Y135038D01*
X28376Y135023D01*
X28346Y135001D01*
X28302Y134964D01*
X28257Y134920D01*
X28213Y134868D01*
X28168Y134801D01*
X28131Y134720D01*
X28124Y134712D01*
X28117Y134675D01*
X28102Y134624D01*
X28080Y134550D01*
X28058Y134453D01*
X28043Y134335D01*
X28035Y134187D01*
X28028Y134017D01*
Y133573D01*
X29878D01*
Y133876D01*
X29871Y133928D01*
Y133995D01*
X29863Y134069D01*
X29833Y134239D01*
X29796Y134416D01*
X29737Y134594D01*
X29700Y134675D01*
X29656Y134749D01*
X29612Y134816D01*
X29552Y134875D01*
X29545D01*
X29537Y134890D01*
X29493Y134920D01*
X29427Y134964D01*
X29338Y135016D01*
X29227Y135068D01*
X29101Y135112D01*
X28968Y135142D01*
X28820Y135156D01*
D02*
G37*
G36*
X10595Y74286D02*
X10472Y74280D01*
X10339Y74272D01*
X10184Y74241D01*
X10026Y74204D01*
X9866Y74134D01*
X9862Y74128D01*
X9846Y74129D01*
X9825Y74107D01*
X9791Y74092D01*
X9756Y74061D01*
X9707Y74021D01*
X9648Y73978D01*
X9592Y73925D01*
X9524Y73853D01*
X9447Y73778D01*
X9372Y73693D01*
X9293Y73585D01*
X9203Y73474D01*
X9116Y73337D01*
X9018Y73197D01*
X8629Y72524D01*
X12083Y70530D01*
X12575Y71382D01*
X12595Y71431D01*
X12625Y71482D01*
X12651Y71543D01*
X12720Y71692D01*
X12786Y71850D01*
X12836Y72026D01*
X12876Y72200D01*
X12881Y72282D01*
X12886Y72365D01*
X12890Y72371D01*
X12887Y72381D01*
X12878Y72438D01*
X12866Y72522D01*
X12836Y72633D01*
X12797Y72758D01*
X12736Y72904D01*
X12653Y73055D01*
X12546Y73211D01*
X12539Y73214D01*
X12530Y73228D01*
X12512Y73256D01*
X12484Y73281D01*
X12456Y73322D01*
X12413Y73365D01*
X12369Y73407D01*
X12316Y73463D01*
X12193Y73577D01*
X12051Y73701D01*
X11883Y73824D01*
X11695Y73941D01*
X11688Y73945D01*
X11675Y73953D01*
X11650Y73967D01*
X11618Y73986D01*
X11569Y74005D01*
X11524Y74031D01*
X11408Y74081D01*
X11262Y74140D01*
X11107Y74196D01*
X10943Y74239D01*
X10766Y74272D01*
X10760Y74276D01*
X10743Y74277D01*
X10717Y74275D01*
X10684Y74277D01*
X10595Y74286D01*
D02*
G37*
G36*
X-6161Y65290D02*
X-6284Y65284D01*
X-6417Y65276D01*
X-6572Y65245D01*
X-6730Y65208D01*
X-6890Y65138D01*
X-6893Y65132D01*
X-6910Y65133D01*
X-6931Y65111D01*
X-6965Y65096D01*
X-7000Y65065D01*
X-7049Y65025D01*
X-7108Y64982D01*
X-7164Y64929D01*
X-7231Y64857D01*
X-7309Y64782D01*
X-7384Y64697D01*
X-7463Y64589D01*
X-7553Y64478D01*
X-7640Y64341D01*
X-7738Y64201D01*
X-8127Y63528D01*
X-4673Y61534D01*
X-4180Y62386D01*
X-4161Y62435D01*
X-4131Y62486D01*
X-4104Y62548D01*
X-4036Y62696D01*
X-3970Y62854D01*
X-3920Y63030D01*
X-3880Y63204D01*
X-3875Y63286D01*
X-3870Y63369D01*
X-3866Y63375D01*
X-3869Y63385D01*
X-3878Y63442D01*
X-3890Y63526D01*
X-3920Y63637D01*
X-3959Y63762D01*
X-4019Y63908D01*
X-4103Y64059D01*
X-4210Y64215D01*
X-4216Y64219D01*
X-4225Y64232D01*
X-4244Y64260D01*
X-4272Y64285D01*
X-4299Y64326D01*
X-4343Y64369D01*
X-4387Y64411D01*
X-4440Y64467D01*
X-4563Y64581D01*
X-4704Y64705D01*
X-4873Y64828D01*
X-5061Y64946D01*
X-5068Y64949D01*
X-5080Y64957D01*
X-5106Y64972D01*
X-5138Y64990D01*
X-5187Y65010D01*
X-5232Y65035D01*
X-5348Y65086D01*
X-5494Y65144D01*
X-5649Y65200D01*
X-5813Y65243D01*
X-5990Y65277D01*
X-5996Y65280D01*
X-6013Y65281D01*
X-6039Y65280D01*
X-6072Y65281D01*
X-6161Y65290D01*
D02*
G37*
G36*
X11509Y88932D02*
X12629Y86372D01*
X13457Y87808D01*
X11509Y88932D01*
D02*
G37*
G36*
X2181Y151746D02*
X2004D01*
X1989D01*
X1959D01*
X1908D01*
X1841D01*
X1760Y151739D01*
X1663Y151731D01*
X1560Y151724D01*
X1441Y151716D01*
X1197Y151687D01*
X938Y151643D01*
X679Y151576D01*
X561Y151539D01*
X442Y151495D01*
X435D01*
X420Y151480D01*
X390Y151465D01*
X346Y151450D01*
X257Y151383D01*
X146Y151302D01*
X35Y151184D01*
X-61Y151050D01*
X-98Y150969D01*
X-128Y150880D01*
X-142Y150792D01*
X-150Y150688D01*
Y150636D01*
X-142Y150599D01*
X-135Y150555D01*
X-120Y150503D01*
X-76Y150377D01*
X-46Y150311D01*
X-9Y150244D01*
X43Y150177D01*
X102Y150111D01*
X169Y150051D01*
X250Y149985D01*
X339Y149933D01*
X442Y149881D01*
X450D01*
X472Y149874D01*
X501Y149859D01*
X553Y149844D01*
X612Y149822D01*
X679Y149807D01*
X760Y149785D01*
X857Y149763D01*
X968Y149733D01*
X1086Y149711D01*
X1212Y149696D01*
X1352Y149674D01*
X1500Y149659D01*
X1656Y149644D01*
X1826Y149637D01*
X2004D01*
X2011D01*
X2048D01*
X2100D01*
X2166Y149644D01*
X2248D01*
X2344Y149652D01*
X2448Y149659D01*
X2559Y149667D01*
X2810Y149696D01*
X3069Y149741D01*
X3328Y149800D01*
X3447Y149837D01*
X3565Y149881D01*
X3573D01*
X3587Y149896D01*
X3617Y149911D01*
X3654Y149933D01*
X3750Y149992D01*
X3854Y150074D01*
X3965Y150192D01*
X4061Y150325D01*
X4098Y150407D01*
X4127Y150496D01*
X4142Y150584D01*
X4150Y150688D01*
Y150710D01*
X4142Y150740D01*
Y150777D01*
X4135Y150821D01*
X4120Y150880D01*
X4076Y150999D01*
X4046Y151065D01*
X4009Y151132D01*
X3957Y151198D01*
X3906Y151265D01*
X3839Y151324D01*
X3757Y151391D01*
X3669Y151443D01*
X3565Y151495D01*
X3558D01*
X3536Y151502D01*
X3506Y151517D01*
X3454Y151532D01*
X3395Y151554D01*
X3328Y151576D01*
X3240Y151598D01*
X3151Y151620D01*
X3040Y151643D01*
X2921Y151665D01*
X2795Y151687D01*
X2655Y151709D01*
X2507Y151724D01*
X2351Y151739D01*
X2181Y151746D01*
D02*
G37*
G36*
X-5125Y146985D02*
X-5207D01*
X-5214D01*
X-5221D01*
X-5244D01*
X-5273D01*
X-5347Y146978D01*
X-5451Y146971D01*
X-5562Y146948D01*
X-5688Y146926D01*
X-5828Y146889D01*
X-5962Y146837D01*
X-5969D01*
X-5976Y146830D01*
X-6021Y146808D01*
X-6087Y146778D01*
X-6169Y146734D01*
X-6250Y146682D01*
X-6339Y146615D01*
X-6420Y146541D01*
X-6487Y146460D01*
X-6494Y146453D01*
X-6509Y146423D01*
X-6539Y146371D01*
X-6568Y146312D01*
X-6598Y146231D01*
X-6628Y146142D01*
X-6642Y146038D01*
X-6650Y145920D01*
Y145875D01*
X-6642Y145846D01*
X-6635Y145764D01*
X-6613Y145668D01*
X-6576Y145557D01*
X-6516Y145439D01*
X-6435Y145328D01*
X-6391Y145276D01*
X-6331Y145224D01*
X-6317Y145217D01*
X-6272Y145187D01*
X-6206Y145143D01*
X-6102Y145098D01*
X-5984Y145054D01*
X-5836Y145010D01*
X-5658Y144980D01*
X-5466Y144973D01*
X-5458D01*
X-5443D01*
X-5414D01*
X-5370Y144980D01*
X-5325D01*
X-5266Y144987D01*
X-5140Y145002D01*
X-4992Y145039D01*
X-4844Y145084D01*
X-4696Y145143D01*
X-4555Y145232D01*
X-4541Y145246D01*
X-4504Y145276D01*
X-4452Y145335D01*
X-4393Y145417D01*
X-4326Y145520D01*
X-4274Y145646D01*
X-4237Y145787D01*
X-4230Y145868D01*
X-4222Y145949D01*
Y145986D01*
X-4230Y146016D01*
X-4237Y146083D01*
X-4259Y146179D01*
X-4289Y146282D01*
X-4333Y146401D01*
X-4400Y146527D01*
X-4489Y146652D01*
Y146660D01*
X-4504Y146667D01*
X-4541Y146704D01*
X-4600Y146756D01*
X-4681Y146823D01*
X-4785Y146882D01*
X-4903Y146934D01*
X-5044Y146971D01*
X-5125Y146985D01*
D02*
G37*
G36*
X62031Y168437D02*
X62016D01*
X61979D01*
X61927Y168422D01*
X61861Y168408D01*
X61779Y168378D01*
X61698Y168341D01*
X61617Y168282D01*
X61543Y168201D01*
X61535Y168193D01*
X61513Y168156D01*
X61484Y168104D01*
X61446Y168030D01*
X61409Y167941D01*
X61380Y167838D01*
X61358Y167712D01*
X61350Y167571D01*
Y167505D01*
X61358Y167431D01*
X61373Y167342D01*
X61402Y167238D01*
X61432Y167135D01*
X61484Y167031D01*
X61550Y166943D01*
X61558Y166935D01*
X61587Y166913D01*
X61624Y166876D01*
X61683Y166839D01*
X61750Y166795D01*
X61831Y166765D01*
X61913Y166735D01*
X62009Y166728D01*
X62016D01*
X62053D01*
X62098Y166735D01*
X62164Y166750D01*
X62238Y166772D01*
X62320Y166802D01*
X62401Y166846D01*
X62490Y166905D01*
X62497Y166913D01*
X62527Y166943D01*
X62579Y166994D01*
X62608Y167031D01*
X62645Y167076D01*
X62682Y167128D01*
X62727Y167179D01*
X62779Y167246D01*
X62830Y167327D01*
X62882Y167409D01*
X62941Y167505D01*
X63001Y167608D01*
X63067Y167719D01*
Y167727D01*
X63060Y167734D01*
X63030Y167779D01*
X62986Y167838D01*
X62919Y167912D01*
X62853Y168001D01*
X62764Y168082D01*
X62675Y168171D01*
X62579Y168245D01*
X62564Y168252D01*
X62534Y168274D01*
X62483Y168304D01*
X62409Y168341D01*
X62327Y168378D01*
X62238Y168408D01*
X62135Y168430D01*
X62031Y168437D01*
D02*
G37*
G36*
X64828Y168556D02*
X64814D01*
X64784D01*
X64732Y168548D01*
X64666Y168534D01*
X64591Y168519D01*
X64510Y168489D01*
X64429Y168445D01*
X64355Y168393D01*
X64347Y168386D01*
X64318Y168363D01*
X64273Y168319D01*
X64214Y168252D01*
X64140Y168156D01*
X64096Y168104D01*
X64051Y168038D01*
X63999Y167971D01*
X63948Y167890D01*
X63896Y167808D01*
X63837Y167712D01*
X63556Y167231D01*
X63563Y167224D01*
X63570Y167209D01*
X63592Y167187D01*
X63615Y167157D01*
X63689Y167076D01*
X63770Y166980D01*
X63866Y166876D01*
X63970Y166780D01*
X64073Y166698D01*
X64125Y166661D01*
X64170Y166639D01*
X64177Y166632D01*
X64214Y166624D01*
X64258Y166610D01*
X64325Y166587D01*
X64399Y166565D01*
X64488Y166550D01*
X64577Y166543D01*
X64680Y166535D01*
X64688D01*
X64702D01*
X64725D01*
X64754Y166543D01*
X64836Y166550D01*
X64932Y166572D01*
X65050Y166610D01*
X65169Y166654D01*
X65287Y166728D01*
X65391Y166824D01*
X65398Y166839D01*
X65428Y166876D01*
X65472Y166935D01*
X65517Y167024D01*
X65568Y167128D01*
X65605Y167253D01*
X65635Y167394D01*
X65650Y167549D01*
Y167616D01*
X65635Y167697D01*
X65620Y167794D01*
X65598Y167904D01*
X65561Y168023D01*
X65509Y168141D01*
X65435Y168260D01*
X65428Y168274D01*
X65391Y168304D01*
X65346Y168356D01*
X65272Y168408D01*
X65191Y168459D01*
X65087Y168511D01*
X64961Y168541D01*
X64828Y168556D01*
D02*
G37*
G36*
X-9570Y146943D02*
X-9577D01*
X-9600D01*
X-9629D01*
X-9666Y146936D01*
X-9718D01*
X-9777Y146928D01*
X-9910Y146906D01*
X-10051Y146876D01*
X-10206Y146825D01*
X-10347Y146758D01*
X-10473Y146662D01*
X-10488Y146647D01*
X-10525Y146610D01*
X-10569Y146551D01*
X-10628Y146469D01*
X-10687Y146366D01*
X-10732Y146247D01*
X-10769Y146114D01*
X-10784Y145966D01*
Y145907D01*
X-10769Y145840D01*
X-10754Y145752D01*
X-10724Y145648D01*
X-10680Y145530D01*
X-10613Y145404D01*
X-10532Y145271D01*
X-10517Y145256D01*
X-10488Y145219D01*
X-10428Y145160D01*
X-10347Y145100D01*
X-10243Y145034D01*
X-10118Y144975D01*
X-9970Y144938D01*
X-9888Y144930D01*
X-9799Y144923D01*
X-9792D01*
X-9777D01*
X-9755D01*
X-9718Y144930D01*
X-9674D01*
X-9622Y144938D01*
X-9496Y144952D01*
X-9355Y144982D01*
X-9193Y145026D01*
X-9022Y145086D01*
X-8852Y145167D01*
X-8845D01*
X-8830Y145182D01*
X-8808Y145197D01*
X-8786Y145211D01*
X-8712Y145278D01*
X-8630Y145359D01*
X-8541Y145478D01*
X-8475Y145618D01*
X-8445Y145700D01*
X-8423Y145789D01*
X-8408Y145885D01*
X-8401Y145988D01*
Y146025D01*
X-8408Y146055D01*
X-8416Y146136D01*
X-8438Y146233D01*
X-8475Y146336D01*
X-8527Y146447D01*
X-8601Y146566D01*
X-8704Y146669D01*
X-8719Y146684D01*
X-8763Y146714D01*
X-8830Y146758D01*
X-8926Y146810D01*
X-9052Y146854D01*
X-9200Y146899D01*
X-9370Y146928D01*
X-9570Y146943D01*
D02*
G37*
G36*
X30544Y130456D02*
X28294D01*
X30544Y128799D01*
Y130456D01*
D02*
G37*
%LPD*%
D10*
X12970Y93150D02*
G03*
X20541Y88654I6108J1663D01*
G01*
X27082Y100084D02*
G03*
X19494Y104576I-6108J-1663D01*
G01*
X-4461Y48327D02*
G03*
X-12049Y52819I-6108J-1663D01*
G01*
X-18574Y41393D02*
G03*
X-11003Y36897I6108J1663D01*
G01*
X38428Y162353D02*
G03*
X43428Y162353I2500J0D01*
G01*
X59040Y144360D02*
G03*
X67857Y144264I4458J4494D01*
G01*
X67794Y157422D02*
G03*
X58990Y157530I-4458J-4494D01*
G01*
X18821Y122347D02*
G03*
X12965Y122399I-2959J-3492D01*
G01*
X12909Y111252D02*
G03*
X18765Y111199I2959J3492D01*
G01*
X10977Y157758D02*
G03*
X10925Y151902I3492J-2959D01*
G01*
X22073Y151847D02*
G03*
X22125Y157702I-3492J2959D01*
G01*
X25821Y122247D02*
G03*
X19965Y122300I-2959J-3492D01*
G01*
X19909Y111152D02*
G03*
X25765Y111100I2959J3492D01*
G01*
X4956Y137148D02*
G03*
X-900Y137200I-2959J-3492D01*
G01*
X-956Y126052D02*
G03*
X4900Y126000I2959J3492D01*
G01*
X-7456Y125952D02*
G03*
X-1600Y125900I2959J3492D01*
G01*
X-1544Y137048D02*
G03*
X-7400Y137100I-2959J-3492D01*
G01*
X-7595Y136953D02*
G03*
X-13451Y137006I-2959J-3492D01*
G01*
X-13506Y125858D02*
G03*
X-7650Y125806I2959J3492D01*
G01*
X-14095Y136953D02*
G03*
X-19951Y137006I-2959J-3492D01*
G01*
X-20006Y125858D02*
G03*
X-14151Y125806I2959J3492D01*
G01*
X-22595Y136953D02*
G03*
X-28451Y137006I-2959J-3492D01*
G01*
X-28506Y125858D02*
G03*
X-22650Y125806I2959J3492D01*
G01*
X-57986Y107662D02*
G03*
X-52889Y110545I817J4504D01*
G01*
X-58414Y120227D02*
G03*
X-63512Y117344I-817J-4504D01*
G01*
X-50514Y106338D02*
G03*
X-55611Y103455I-817J-4504D01*
G01*
X-50086Y93773D02*
G03*
X-44989Y96656I817J4504D01*
G01*
X2456Y83148D02*
G03*
X-3400Y83200I-2959J-3492D01*
G01*
X-3456Y72052D02*
G03*
X2400Y72000I2959J3492D01*
G01*
X-4544Y83148D02*
G03*
X-10400Y83200I-2959J-3492D01*
G01*
X-10456Y72052D02*
G03*
X-4600Y72000I2959J3492D01*
G01*
X16896Y100342D02*
X19307Y104516D01*
X24691Y95842D02*
X27056Y99938D01*
X12897Y93414D02*
X15247Y97484D01*
X20586Y88732D02*
X23041Y92984D01*
X-35025Y62289D02*
X-34159Y62789D01*
X-22182Y61044D02*
X-17852Y63544D01*
X-29682Y74035D02*
X-25352Y76535D01*
X-30123Y47799D02*
X-18865Y54299D01*
X-45123Y73780D02*
X-33865Y80280D01*
X-32427Y63789D02*
X-31561Y64289D01*
X-30262Y65039D02*
X-28963Y65789D01*
X-28262Y61575D02*
X-26963Y62325D01*
X-30963Y69253D02*
X-26963Y62325D01*
X-32262Y68503D02*
X-30963Y69253D01*
X-50645Y46343D02*
X-34623Y55593D01*
X-56645Y56735D02*
X-50645Y46343D01*
X-56645Y56735D02*
X-40623Y65986D01*
X-45123Y73780D02*
X-30123Y47799D01*
X-29682Y74035D02*
X-22182Y61044D01*
X-36275Y64454D02*
X-33775Y60124D01*
X-57709Y121023D02*
X-56004Y122007D01*
X-57709Y121023D02*
X-43929Y97156D01*
X-42225Y98140D01*
X-45775Y127912D02*
X-44071Y128897D01*
X-30291Y105030D01*
X-31996Y104046D02*
X-30291Y105030D01*
X-46665Y112642D02*
X-42335Y115142D01*
X-46665Y112642D02*
X-45665Y110910D01*
X-41335Y113410D01*
X-42335Y115142D02*
X-41335Y113410D01*
X-45250Y115191D02*
X-43085Y116441D01*
X-47415Y113941D02*
X-45250Y115191D01*
X-46000Y116490D02*
X-45250Y115191D01*
X-42750Y110861D02*
X-40585Y112111D01*
X-44915Y109611D02*
X-42750Y110861D01*
X-42000Y109562D01*
X-48738Y126202D02*
X-45775Y127912D01*
X-56004Y122007D02*
X-53042Y123717D01*
X-34958Y102335D02*
X-31996Y104046D01*
X-42225Y98140D02*
X-39262Y99850D01*
X-23352Y75574D02*
X-21002Y71503D01*
X-28635Y72524D02*
X-26285Y68453D01*
X-24448Y65472D02*
X-22098Y61402D01*
X-19252Y68472D02*
X-16902Y64402D01*
X-28635Y72524D02*
X-23352Y75574D01*
X-22098Y61402D02*
X-16902Y64402D01*
X34544Y112051D02*
X54575Y100487D01*
X19694Y86331D02*
X39725Y74766D01*
X19694Y86331D02*
X34544Y112051D01*
X43014Y85522D02*
X45205Y84257D01*
X49180Y91142D02*
X54575Y100487D01*
X46989Y92407D02*
X49180Y91142D01*
X41265Y77433D02*
X45205Y84257D01*
X39725Y74766D02*
X41265Y77433D01*
X43014Y85522D02*
X46989Y92407D01*
X25828Y76769D02*
X29980Y77882D01*
X26895Y72539D02*
X29980Y77882D01*
X25724Y76910D02*
X26895Y72539D01*
X28931Y70844D02*
X34560Y67594D01*
X32431Y76906D02*
X38060Y73656D01*
X34560Y67594D02*
X38060Y73656D01*
X24064Y74035D02*
X27304Y79646D01*
X18201Y83159D02*
X20523Y83781D01*
X25069Y81156D01*
X17023Y77719D02*
X21569Y75094D01*
X16400Y80041D02*
X17023Y77719D01*
X16400Y80041D02*
X18201Y83159D01*
X21503Y64802D02*
X25574Y62452D01*
X24553Y70085D02*
X28624Y67735D01*
X17402Y74098D02*
X21472Y71748D01*
X14402Y68902D02*
X18472Y66552D01*
X25574Y62452D02*
X28624Y67735D01*
X14402Y68902D02*
X17402Y74098D01*
X2269Y62672D02*
X3382Y58520D01*
X-1961Y61605D02*
X3382Y58520D01*
X-1961Y61605D02*
X2410Y62776D01*
X-6906Y53940D02*
X-3656Y59569D01*
X-844Y50440D02*
X2406Y56069D01*
X-6906Y53940D02*
X-844Y50440D01*
X-465Y64436D02*
X5147Y61196D01*
X8659Y70300D02*
X9281Y67977D01*
X6656Y63431D02*
X9281Y67977D01*
X594Y66931D02*
X3219Y71477D01*
X5541Y72100D01*
X8659Y70300D01*
X-10958Y36975D02*
X-8503Y41227D01*
X-18647Y41657D02*
X-16297Y45727D01*
X-6853Y44085D02*
X-4488Y48181D01*
X-14647Y48585D02*
X-12237Y52759D01*
X51044Y140551D02*
X71075Y128987D01*
X36194Y114831D02*
X56225Y103266D01*
X36194Y114831D02*
X51044Y140551D01*
X59514Y114022D02*
X61705Y112757D01*
X65680Y119642D02*
X71075Y128987D01*
X63489Y120907D02*
X65680Y119642D01*
X57765Y105933D02*
X61705Y112757D01*
X56225Y103266D02*
X57765Y105933D01*
X59514Y114022D02*
X63489Y120907D01*
X35928Y162353D02*
X38428Y162353D01*
X43428Y162353D02*
X45928D01*
X45928Y142353D01*
X35928Y142353D02*
X45928Y142353D01*
X35928Y142353D02*
Y162353D01*
X58990Y152530D02*
X58990Y157440D01*
X67990Y157230D02*
X67990Y152530D01*
X58990Y144500D02*
Y149230D01*
X67990Y144410D02*
X67990Y149230D01*
X18865Y111300D02*
Y114999D01*
X12865Y114999D02*
X12865Y111300D01*
X12865Y118500D02*
X12865Y122300D01*
X18865Y122199D02*
X18865Y118500D01*
X18865Y134000D02*
X18865Y138699D01*
X12765Y134000D02*
Y138699D01*
X12865Y125800D02*
X12865Y130499D01*
X18865Y125800D02*
Y130499D01*
X12765Y138699D02*
X18865D01*
X12865Y125800D02*
X18865Y125800D01*
X18325Y157802D02*
X22025Y157802D01*
X18325Y151802D02*
X22025Y151802D01*
X11025Y151802D02*
X14825Y151802D01*
X11125Y157802D02*
X14825D01*
X25865Y114900D02*
X25865Y111199D01*
X19865Y111199D02*
Y114900D01*
X19865Y118400D02*
Y122199D01*
X25865Y122099D02*
X25865Y118400D01*
X25865Y138699D02*
X25865Y134000D01*
X19765Y134000D02*
X19765Y138699D01*
X19865Y125800D02*
X19865Y130499D01*
X25865Y125800D02*
Y130499D01*
X19765Y138699D02*
X25865Y138699D01*
X19865Y125800D02*
X25865D01*
X5000Y126100D02*
X5000Y129800D01*
X-1000D02*
X-1000Y126100D01*
Y133300D02*
Y137100D01*
X5000Y137000D02*
X5000Y133300D01*
X-7500D02*
X-7500Y137000D01*
X-1500Y133300D02*
X-1500Y137000D01*
X-1500Y129800D02*
X-1500Y126000D01*
X-7500Y126100D02*
Y129800D01*
X-7551Y125906D02*
X-7551Y129606D01*
X-13551Y125906D02*
Y129606D01*
X-13551Y133106D02*
X-13551Y136906D01*
X-7551Y133106D02*
Y136806D01*
X-14051Y125906D02*
X-14051Y129606D01*
X-20051Y125906D02*
Y129606D01*
Y133106D02*
Y136906D01*
X-14051Y136806D02*
X-14051Y133106D01*
X-22550Y125906D02*
X-22550Y129606D01*
X-28550D02*
X-28550Y125906D01*
Y133106D02*
Y136906D01*
X-22550Y133106D02*
X-22550Y136806D01*
X-63548Y117208D02*
X-61698Y114003D01*
X-58352Y120208D02*
X-56502Y117003D01*
X-54752Y113972D02*
X-52852Y110681D01*
X-59948Y110972D02*
X-58098Y107768D01*
X-46802Y99997D02*
X-44952Y96792D01*
X-51998Y96997D02*
X-50148Y93792D01*
X-55648Y103319D02*
X-53748Y100028D01*
X-50402Y106232D02*
X-48552Y103028D01*
X2500Y72100D02*
X2500Y75800D01*
X-3500Y72100D02*
Y75800D01*
Y79300D02*
Y83100D01*
X2500Y83000D02*
X2500Y79300D01*
X-4500Y72100D02*
X-4500Y75800D01*
X-10500Y72100D02*
Y75800D01*
X-10500Y79300D02*
X-10500Y83100D01*
X-4500Y79300D02*
Y83000D01*
D11*
X9274Y62279D02*
X29063Y50854D01*
X12863Y22795D02*
X29013Y50767D01*
X4004Y38048D02*
X12528Y33127D01*
X14496Y36536D01*
X5973Y41458D02*
X14496Y36536D01*
X4004Y38048D02*
X5973Y41458D01*
X11446Y50939D02*
X19970Y46018D01*
X18002Y42608D02*
X19970Y46018D01*
X9478Y47529D02*
X18002Y42608D01*
X9478Y47529D02*
X11446Y50939D01*
X4714Y39278D02*
X11482Y35371D01*
X11882Y36064D01*
X11982Y36237D01*
X5214Y40144D02*
X11982Y36237D01*
X10214Y48805D02*
X16982Y44897D01*
X17482Y45763D01*
X10714Y49671D02*
X17482Y45763D01*
X-6976Y34133D02*
X12726Y22758D01*
D12*
X-3656Y46882D02*
X-3107Y44833D01*
X-5156Y44284D02*
X-3656Y46882D01*
X-5156Y44284D02*
X-3107Y44833D01*
D13*
X5505Y45750D02*
X20963Y36825D01*
X4500Y54009D02*
X9274Y62279D01*
X-6976Y34133D02*
X-2150Y42491D01*
D14*
X-28826Y110433D02*
X5229Y110433D01*
Y97835D02*
Y110433D01*
X-28826Y99962D02*
X-28826Y110433D01*
X-28826Y99962D02*
X-26699Y97835D01*
X5229Y97835D01*
D15*
X-27783Y90355D02*
Y96457D01*
X-27783Y89134D02*
X-27783Y90355D01*
X-27783Y89134D02*
X4201D01*
X4201Y96134D02*
X4201Y89134D01*
X-27799Y112134D02*
Y119134D01*
X4201D01*
Y112134D02*
Y119134D01*
M02*
