G04*
G04 #@! TF.GenerationSoftware,Altium Limited,Altium Designer,20.2.8 (258)*
G04*
G04 Layer_Color=32896*
%FSLAX25Y25*%
%MOIN*%
G70*
G04*
G04 #@! TF.SameCoordinates,CDCB3E45-2178-442F-9089-F16855EB5547*
G04*
G04*
G04 #@! TF.FilePolarity,Positive*
G04*
G01*
G75*
%ADD10C,0.01000*%
G36*
X-21442Y136931D02*
X-21941Y136066D01*
X-25118Y137057D01*
X-25399Y137144D01*
X-25683Y137244D01*
X-25967Y137344D01*
X-26231Y137443D01*
X-26357Y137483D01*
X-26462Y137523D01*
X-26559Y137558D01*
X-26644Y137596D01*
X-26713Y137625D01*
X-26765Y137645D01*
X-26802Y137655D01*
X-26810Y137660D01*
X-26633Y137504D01*
X-26467Y137366D01*
X-26309Y137232D01*
X-26171Y137120D01*
X-26041Y137013D01*
X-25935Y136919D01*
X-25836Y136830D01*
X-25749Y136759D01*
X-25671Y136692D01*
X-25608Y136635D01*
X-25553Y136582D01*
X-25510Y136546D01*
X-25482Y136519D01*
X-25463Y136497D01*
X-25447Y136488D01*
X-25439Y136483D01*
X-22982Y134264D01*
X-23481Y133399D01*
X-29130Y135122D01*
X-28727Y135819D01*
X-25570Y134776D01*
X-25436Y134730D01*
X-25302Y134685D01*
X-25168Y134640D01*
X-25047Y134591D01*
X-24937Y134559D01*
X-24860Y134526D01*
X-24823Y134515D01*
X-24795Y134509D01*
X-24787Y134505D01*
X-24779Y134500D01*
X-24657Y134451D01*
X-24544Y134407D01*
X-24438Y134368D01*
X-24349Y134338D01*
X-24268Y134312D01*
X-24199Y134283D01*
X-24134Y134267D01*
X-24089Y134252D01*
X-24008Y134226D01*
X-23955Y134206D01*
X-23941Y134204D01*
X-24081Y134321D01*
X-24230Y134451D01*
X-24372Y134575D01*
X-24502Y134683D01*
X-24612Y134789D01*
X-24731Y134879D01*
X-24829Y134967D01*
X-24912Y135047D01*
X-24990Y135114D01*
X-25061Y135176D01*
X-25121Y135221D01*
X-25168Y135269D01*
X-25203Y135301D01*
X-25235Y135319D01*
X-25246Y135336D01*
X-25254Y135341D01*
X-27724Y137557D01*
X-27201Y138462D01*
X-24049Y137465D01*
X-23997Y137445D01*
X-23915Y137420D01*
X-23818Y137385D01*
X-23700Y137349D01*
X-23566Y137303D01*
X-23424Y137253D01*
X-23132Y137149D01*
X-22982Y137094D01*
X-22848Y137049D01*
X-22714Y137004D01*
X-22600Y136960D01*
X-22511Y136929D01*
X-22430Y136904D01*
X-22403Y136895D01*
X-22682Y137114D01*
X-22816Y137234D01*
X-22954Y137346D01*
X-23076Y137448D01*
X-23199Y137551D01*
X-23310Y137636D01*
X-23408Y137725D01*
X-23495Y137796D01*
X-23574Y137863D01*
X-23637Y137921D01*
X-23692Y137974D01*
X-23743Y138014D01*
X-23770Y138041D01*
X-23790Y138063D01*
X-23798Y138067D01*
X-26202Y140193D01*
X-25791Y140906D01*
X-21442Y136931D01*
D02*
G37*
G36*
X-28802Y133950D02*
X-28618Y133918D01*
X-28463Y133872D01*
X-28394Y133843D01*
X-28342Y133823D01*
X-28289Y133803D01*
X-28257Y133785D01*
X-28241Y133776D01*
X-28233Y133771D01*
X-28045Y133652D01*
X-27912Y133532D01*
X-27799Y133413D01*
X-27730Y133310D01*
X-27673Y133223D01*
X-27640Y133151D01*
X-27627Y133100D01*
X-27623Y133088D01*
X-27577Y132965D01*
X-27538Y132847D01*
X-27496Y132587D01*
X-27487Y132325D01*
X-27502Y132078D01*
X-27523Y131855D01*
X-27533Y131765D01*
X-27546Y131687D01*
X-27562Y131621D01*
X-27574Y131564D01*
X-27580Y131535D01*
X-27584Y131527D01*
X-27644Y131295D01*
X-27677Y131164D01*
X-27700Y131049D01*
X-27724Y130935D01*
X-27746Y130841D01*
X-27760Y130742D01*
X-27765Y130660D01*
X-27778Y130507D01*
X-27776Y130399D01*
X-27769Y130320D01*
X-27768Y130266D01*
X-27764Y130253D01*
X-27726Y130135D01*
X-27670Y130028D01*
X-27597Y129933D01*
X-27528Y129850D01*
X-27449Y129783D01*
X-27389Y129738D01*
X-27341Y129710D01*
X-27333Y129705D01*
X-27325Y129701D01*
X-27200Y129639D01*
X-27082Y129603D01*
X-26963Y129588D01*
X-26873Y129578D01*
X-26785Y129581D01*
X-26722Y129598D01*
X-26676Y129604D01*
X-26664Y129607D01*
X-26519Y129673D01*
X-26381Y129764D01*
X-26262Y129877D01*
X-26151Y129995D01*
X-26066Y130106D01*
X-26026Y130157D01*
X-25998Y130205D01*
X-25971Y130233D01*
X-25939Y130289D01*
X-25868Y130430D01*
X-25815Y130559D01*
X-25779Y130677D01*
X-25755Y130792D01*
X-25738Y130878D01*
X-25734Y130940D01*
X-25727Y130989D01*
X-25730Y131002D01*
X-25769Y131194D01*
X-25837Y131373D01*
X-25927Y131531D01*
X-26013Y131677D01*
X-26097Y131790D01*
X-26170Y131886D01*
X-26206Y131917D01*
X-26225Y131939D01*
X-26237Y131956D01*
X-26245Y131961D01*
X-25627Y132512D01*
X-25445Y132311D01*
X-25303Y132112D01*
X-25195Y131910D01*
X-25114Y131736D01*
X-25061Y131587D01*
X-25031Y131474D01*
X-25015Y131390D01*
X-25012Y131377D01*
X-25008Y131364D01*
X-25000Y131231D01*
X-24999Y131103D01*
X-25027Y130852D01*
X-25083Y130606D01*
X-25154Y130391D01*
X-25188Y130294D01*
X-25219Y130204D01*
X-25257Y130120D01*
X-25294Y130055D01*
X-25314Y130003D01*
X-25434Y129795D01*
X-25524Y129675D01*
X-25609Y129565D01*
X-25690Y129462D01*
X-25782Y129376D01*
X-25857Y129302D01*
X-25936Y129240D01*
X-26014Y129179D01*
X-26075Y129128D01*
X-26139Y129091D01*
X-26199Y129061D01*
X-26246Y129035D01*
X-26276Y129020D01*
X-26306Y129006D01*
X-26331Y128999D01*
X-26476Y128933D01*
X-26620Y128888D01*
X-26754Y128858D01*
X-26884Y128837D01*
X-27017Y128829D01*
X-27133Y128831D01*
X-27252Y128847D01*
X-27359Y128866D01*
X-27539Y128905D01*
X-27620Y128931D01*
X-27681Y128955D01*
X-27741Y128980D01*
X-27773Y128998D01*
X-27797Y129012D01*
X-27806Y129017D01*
X-27985Y129131D01*
X-28127Y129256D01*
X-28232Y129370D01*
X-28313Y129470D01*
X-28365Y129564D01*
X-28398Y129637D01*
X-28412Y129687D01*
X-28415Y129700D01*
X-28462Y129823D01*
X-28495Y129949D01*
X-28525Y130084D01*
X-28537Y130229D01*
X-28537Y130507D01*
X-28521Y130775D01*
X-28505Y130895D01*
X-28490Y131014D01*
X-28467Y131108D01*
X-28458Y131199D01*
X-28437Y131272D01*
X-28425Y131329D01*
X-28415Y131366D01*
X-28410Y131374D01*
X-28349Y131627D01*
X-28295Y131831D01*
X-28264Y132016D01*
X-28238Y132172D01*
X-28230Y132296D01*
X-28224Y132399D01*
X-28224Y132473D01*
X-28229Y132519D01*
X-28233Y132532D01*
X-28271Y132650D01*
X-28327Y132757D01*
X-28392Y132848D01*
X-28474Y132928D01*
X-28545Y132990D01*
X-28600Y133043D01*
X-28648Y133071D01*
X-28656Y133075D01*
X-28664Y133080D01*
X-28781Y133137D01*
X-28891Y133168D01*
X-28997Y133187D01*
X-29093Y133188D01*
X-29172Y133181D01*
X-29230Y133172D01*
X-29268Y133162D01*
X-29281Y133158D01*
X-29416Y133108D01*
X-29537Y133029D01*
X-29647Y132932D01*
X-29736Y132833D01*
X-29815Y132751D01*
X-29874Y132668D01*
X-29916Y132596D01*
X-29982Y132463D01*
X-30019Y132324D01*
X-30044Y132189D01*
X-30048Y132052D01*
X-30034Y131927D01*
X-30009Y131805D01*
X-29970Y131687D01*
X-29927Y131577D01*
X-29875Y131482D01*
X-29822Y131388D01*
X-29773Y131307D01*
X-29728Y131237D01*
X-29681Y131189D01*
X-29650Y131150D01*
X-29627Y131115D01*
X-29619Y131111D01*
X-30209Y130533D01*
X-30387Y130742D01*
X-30520Y130957D01*
X-30618Y131175D01*
X-30689Y131386D01*
X-30738Y131596D01*
X-30756Y131788D01*
X-30760Y131983D01*
X-30741Y132164D01*
X-30719Y132333D01*
X-30685Y132484D01*
X-30639Y132618D01*
X-30603Y132736D01*
X-30560Y132829D01*
X-30531Y132898D01*
X-30425Y133082D01*
X-30340Y133193D01*
X-30170Y133394D01*
X-30003Y133554D01*
X-29925Y133616D01*
X-29847Y133677D01*
X-29765Y133726D01*
X-29700Y133764D01*
X-29636Y133801D01*
X-29589Y133827D01*
X-29546Y133846D01*
X-29516Y133860D01*
X-29499Y133872D01*
X-29487Y133875D01*
X-29368Y133914D01*
X-29246Y133940D01*
X-29129Y133957D01*
X-29021Y133959D01*
X-28914Y133961D01*
X-28802Y133950D01*
D02*
G37*
G36*
X-30802Y129433D02*
X-30911Y129336D01*
X-31011Y129255D01*
X-31119Y129178D01*
X-31210Y129113D01*
X-31301Y129048D01*
X-31383Y128999D01*
X-31529Y128913D01*
X-31645Y128841D01*
X-31738Y128809D01*
X-31793Y128788D01*
X-31811Y128777D01*
X-28134Y126654D01*
X-27584Y127607D01*
X-27015Y127278D01*
X-28467Y124763D01*
X-29036Y125092D01*
X-28518Y125989D01*
X-32900Y128519D01*
X-32590Y129055D01*
X-32329Y129193D01*
X-32088Y129332D01*
X-31873Y129464D01*
X-31687Y129602D01*
X-31600Y129659D01*
X-31539Y129709D01*
X-31470Y129755D01*
X-31422Y129802D01*
X-31378Y129840D01*
X-31344Y129863D01*
X-31326Y129875D01*
X-31322Y129883D01*
X-30802Y129433D01*
D02*
G37*
G36*
X-35382Y122443D02*
X-35164Y122413D01*
X-34964Y122372D01*
X-34890Y122351D01*
X-34817Y122330D01*
X-34764Y122311D01*
X-34719Y122295D01*
X-34691Y122290D01*
X-34683Y122285D01*
X-34931Y121542D01*
X-35117Y121607D01*
X-35285Y121650D01*
X-35440Y121676D01*
X-35582Y121672D01*
X-35715Y121663D01*
X-35828Y121633D01*
X-35934Y121598D01*
X-36024Y121553D01*
X-36101Y121512D01*
X-36174Y121459D01*
X-36223Y121412D01*
X-36271Y121365D01*
X-36307Y121322D01*
X-36334Y121294D01*
X-36352Y121262D01*
X-36409Y121145D01*
X-36445Y121027D01*
X-36468Y120913D01*
X-36487Y120806D01*
X-36501Y120707D01*
X-36502Y120633D01*
X-36496Y120587D01*
X-36498Y120566D01*
X-36448Y120485D01*
X-36379Y120402D01*
X-36305Y120327D01*
X-36226Y120260D01*
X-36150Y120206D01*
X-36091Y120161D01*
X-36051Y120138D01*
X-36043Y120133D01*
X-36035Y120128D01*
X-35926Y120076D01*
X-35825Y120029D01*
X-35723Y120002D01*
X-35629Y119980D01*
X-35551Y119967D01*
X-35494Y119955D01*
X-35453Y119952D01*
X-35440Y119956D01*
X-35366Y119956D01*
X-35286Y119963D01*
X-35098Y119993D01*
X-34905Y120031D01*
X-34720Y120074D01*
X-34548Y120114D01*
X-34409Y120151D01*
X-34354Y120173D01*
X-34316Y120183D01*
X-34291Y120189D01*
X-34278Y120193D01*
X-33995Y120275D01*
X-33722Y120342D01*
X-33453Y120400D01*
X-33202Y120447D01*
X-32967Y120483D01*
X-32738Y120511D01*
X-32534Y120531D01*
X-32339Y120536D01*
X-32160Y120551D01*
X-32010Y120550D01*
X-31874Y120546D01*
X-31758Y120543D01*
X-31675Y120538D01*
X-31601Y120538D01*
X-31564Y120527D01*
X-31552Y120531D01*
X-31071Y120253D01*
X-32773Y117305D01*
X-33358Y117643D01*
X-32049Y119910D01*
X-32198Y119911D01*
X-32364Y119900D01*
X-32535Y119881D01*
X-32711Y119854D01*
X-33067Y119793D01*
X-33404Y119709D01*
X-33568Y119665D01*
X-33715Y119633D01*
X-33846Y119591D01*
X-33959Y119560D01*
X-34053Y119529D01*
X-34120Y119504D01*
X-34171Y119490D01*
X-34183Y119487D01*
X-34471Y119396D01*
X-34723Y119328D01*
X-34938Y119271D01*
X-35131Y119233D01*
X-35274Y119208D01*
X-35378Y119194D01*
X-35449Y119182D01*
X-35470Y119183D01*
X-35660Y119186D01*
X-35837Y119213D01*
X-36009Y119248D01*
X-36151Y119298D01*
X-36272Y119347D01*
X-36362Y119377D01*
X-36394Y119396D01*
X-36418Y119410D01*
X-36434Y119419D01*
X-36442Y119423D01*
X-36546Y119483D01*
X-36633Y119555D01*
X-36786Y119697D01*
X-36914Y119845D01*
X-37005Y119983D01*
X-37072Y120108D01*
X-37120Y120210D01*
X-37145Y120278D01*
X-37156Y120295D01*
X-37152Y120303D01*
X-37182Y120417D01*
X-37200Y120534D01*
X-37197Y120650D01*
X-37194Y120766D01*
X-37165Y120984D01*
X-37115Y121179D01*
X-37047Y121354D01*
X-37026Y121427D01*
X-36994Y121483D01*
X-36974Y121536D01*
X-36937Y121600D01*
X-36810Y121783D01*
X-36671Y121949D01*
X-36531Y122081D01*
X-36401Y122177D01*
X-36280Y122257D01*
X-36186Y122309D01*
X-36151Y122332D01*
X-36121Y122346D01*
X-36101Y122345D01*
X-36096Y122353D01*
X-35978Y122392D01*
X-35864Y122422D01*
X-35614Y122449D01*
X-35382Y122443D01*
D02*
G37*
G36*
X-32920Y125764D02*
X-33029Y125667D01*
X-33130Y125586D01*
X-33238Y125510D01*
X-33329Y125444D01*
X-33419Y125380D01*
X-33501Y125330D01*
X-33647Y125244D01*
X-33764Y125172D01*
X-33857Y125141D01*
X-33912Y125119D01*
X-33929Y125108D01*
X-30252Y122985D01*
X-29702Y123938D01*
X-29133Y123610D01*
X-30585Y121094D01*
X-31154Y121423D01*
X-30636Y122320D01*
X-35018Y124850D01*
X-34708Y125386D01*
X-34447Y125524D01*
X-34207Y125663D01*
X-33991Y125795D01*
X-33805Y125933D01*
X-33719Y125990D01*
X-33658Y126040D01*
X-33588Y126086D01*
X-33540Y126133D01*
X-33496Y126172D01*
X-33462Y126194D01*
X-33445Y126206D01*
X-33440Y126214D01*
X-32920Y125764D01*
D02*
G37*
G36*
X-32054Y116441D02*
X-34033Y113013D01*
X-34442Y113249D01*
X-32462Y116677D01*
X-32054Y116441D01*
D02*
G37*
G36*
X-35909Y111874D02*
X-36385Y111049D01*
X-42283Y112339D01*
X-41886Y113028D01*
X-38550Y112256D01*
X-38420Y112223D01*
X-38276Y112194D01*
X-38138Y112157D01*
X-37999Y112119D01*
X-37876Y112091D01*
X-37779Y112057D01*
X-37746Y112059D01*
X-37722Y112045D01*
X-37701Y112044D01*
X-37693Y112039D01*
X-37563Y112006D01*
X-37444Y111970D01*
X-37334Y111939D01*
X-37240Y111916D01*
X-37159Y111891D01*
X-37094Y111874D01*
X-37029Y111858D01*
X-36971Y111846D01*
X-36890Y111821D01*
X-36841Y111814D01*
X-36812Y111808D01*
X-36804Y111803D01*
X-36878Y111878D01*
X-36964Y111970D01*
X-37057Y112067D01*
X-37151Y112164D01*
X-37241Y112248D01*
X-37308Y112318D01*
X-37335Y112345D01*
X-37354Y112367D01*
X-37366Y112384D01*
X-37374Y112389D01*
X-37542Y112560D01*
X-37682Y112706D01*
X-37808Y112821D01*
X-37905Y112930D01*
X-37979Y113005D01*
X-38034Y113058D01*
X-38065Y113097D01*
X-38081Y113107D01*
X-40410Y115584D01*
X-39985Y116321D01*
X-35909Y111874D01*
D02*
G37*
G36*
X-41546Y110824D02*
X-41655Y110727D01*
X-41755Y110646D01*
X-41863Y110570D01*
X-41954Y110504D01*
X-42045Y110440D01*
X-42127Y110390D01*
X-42273Y110304D01*
X-42389Y110232D01*
X-42482Y110201D01*
X-42537Y110179D01*
X-42555Y110168D01*
X-38878Y108045D01*
X-38327Y108998D01*
X-37759Y108670D01*
X-39211Y106154D01*
X-39780Y106483D01*
X-39262Y107380D01*
X-43644Y109910D01*
X-43334Y110446D01*
X-43073Y110584D01*
X-42832Y110723D01*
X-42617Y110855D01*
X-42430Y110993D01*
X-42344Y111050D01*
X-42283Y111100D01*
X-42214Y111146D01*
X-42166Y111193D01*
X-42122Y111232D01*
X-42087Y111254D01*
X-42070Y111266D01*
X-42066Y111274D01*
X-41546Y110824D01*
D02*
G37*
G36*
X-39749Y105204D02*
X-40244Y104347D01*
X-41093Y104837D01*
X-40598Y105695D01*
X-39749Y105204D01*
D02*
G37*
G36*
X-44796Y105619D02*
X-44518Y105565D01*
X-44240Y105491D01*
X-43988Y105409D01*
X-43753Y105316D01*
X-43547Y105229D01*
X-43462Y105191D01*
X-43378Y105153D01*
X-43314Y105116D01*
X-43253Y105091D01*
X-43205Y105064D01*
X-43173Y105045D01*
X-43149Y105031D01*
X-43141Y105027D01*
X-42921Y104889D01*
X-42718Y104761D01*
X-42535Y104634D01*
X-42372Y104508D01*
X-42218Y104387D01*
X-42079Y104275D01*
X-41962Y104164D01*
X-41860Y104063D01*
X-41767Y103966D01*
X-41689Y103879D01*
X-41623Y103808D01*
X-41572Y103747D01*
X-41530Y103691D01*
X-41508Y103656D01*
X-41493Y103627D01*
X-41485Y103622D01*
X-41406Y103480D01*
X-41345Y103328D01*
X-41308Y103189D01*
X-41278Y103054D01*
X-41266Y102908D01*
X-41266Y102780D01*
X-41281Y102661D01*
X-41297Y102541D01*
X-41316Y102435D01*
X-41350Y102337D01*
X-41376Y102256D01*
X-41402Y102175D01*
X-41429Y102127D01*
X-41449Y102074D01*
X-41468Y102042D01*
X-41554Y101910D01*
X-41652Y101796D01*
X-41758Y101686D01*
X-41871Y101602D01*
X-41987Y101530D01*
X-42107Y101471D01*
X-42238Y101429D01*
X-42377Y101392D01*
X-42652Y101359D01*
X-42943Y101356D01*
X-43231Y101393D01*
X-43517Y101452D01*
X-43786Y101522D01*
X-44046Y101608D01*
X-44281Y101701D01*
X-44487Y101788D01*
X-44580Y101831D01*
X-44665Y101869D01*
X-44729Y101906D01*
X-44790Y101930D01*
X-44838Y101958D01*
X-44870Y101977D01*
X-44894Y101991D01*
X-44902Y101995D01*
X-45118Y102120D01*
X-45317Y102256D01*
X-45500Y102383D01*
X-45663Y102509D01*
X-45817Y102630D01*
X-45955Y102742D01*
X-46065Y102848D01*
X-46174Y102954D01*
X-46260Y103047D01*
X-46338Y103134D01*
X-46404Y103204D01*
X-46454Y103265D01*
X-46488Y103317D01*
X-46511Y103352D01*
X-46531Y103374D01*
X-46534Y103386D01*
X-46613Y103528D01*
X-46670Y103668D01*
X-46711Y103820D01*
X-46740Y103954D01*
X-46749Y104087D01*
X-46745Y104224D01*
X-46737Y104347D01*
X-46714Y104462D01*
X-46695Y104569D01*
X-46660Y104666D01*
X-46635Y104747D01*
X-46614Y104821D01*
X-46581Y104877D01*
X-46562Y104929D01*
X-46543Y104962D01*
X-46456Y105093D01*
X-46358Y105207D01*
X-46252Y105317D01*
X-46139Y105401D01*
X-46023Y105473D01*
X-45904Y105532D01*
X-45773Y105574D01*
X-45642Y105616D01*
X-45366Y105649D01*
X-45076Y105652D01*
X-44796Y105619D01*
D02*
G37*
G36*
X31739Y95634D02*
X29768Y92219D01*
X33166Y90257D01*
X32611Y89295D01*
X29212Y91258D01*
X27223Y87811D01*
X26277Y88357D01*
X28267Y91803D01*
X24852Y93775D01*
X25408Y94737D01*
X28822Y92765D01*
X30793Y96180D01*
X31739Y95634D01*
D02*
G37*
G36*
X35707Y102643D02*
X33431Y98700D01*
X32293Y99357D01*
X34569Y103300D01*
X35707Y102643D01*
D02*
G37*
G36*
X46707Y122143D02*
X44431Y118200D01*
X43293Y118857D01*
X45569Y122800D01*
X46707Y122143D01*
D02*
G37*
G36*
X52723Y133643D02*
X50733Y130196D01*
X54148Y128225D01*
X53592Y127263D01*
X50178Y129235D01*
X48207Y125820D01*
X47261Y126366D01*
X49232Y129781D01*
X45834Y131743D01*
X46389Y132705D01*
X49788Y130743D01*
X51777Y134189D01*
X52723Y133643D01*
D02*
G37*
G36*
X28185Y142959D02*
X27826Y142337D01*
X25974Y143406D01*
X25641Y142830D01*
X26772Y140511D01*
X26331Y139748D01*
X25124Y142393D01*
X25010Y142314D01*
X24899Y142241D01*
X24800Y142187D01*
X24708Y142147D01*
X24630Y142115D01*
X24572Y142088D01*
X24532Y142078D01*
X24521Y142075D01*
X24408Y142055D01*
X24304Y142038D01*
X24197Y142031D01*
X24111Y142030D01*
X24035Y142031D01*
X23972Y142041D01*
X23939Y142043D01*
X23923Y142044D01*
X23815Y142064D01*
X23710Y142090D01*
X23616Y142119D01*
X23531Y142151D01*
X23464Y142181D01*
X23415Y142201D01*
X23383Y142219D01*
X23370Y142227D01*
X23293Y142271D01*
X23224Y142328D01*
X23095Y142446D01*
X22993Y142564D01*
X22907Y142682D01*
X22851Y142792D01*
X22827Y142840D01*
X22806Y142877D01*
X22791Y142911D01*
X22780Y142935D01*
X22777Y142945D01*
X22774Y142955D01*
X22750Y143046D01*
X22735Y143140D01*
X22735Y143243D01*
X22741Y143342D01*
X22783Y143548D01*
X22835Y143741D01*
X22870Y143832D01*
X22904Y143906D01*
X22938Y143980D01*
X22965Y144041D01*
X22988Y144096D01*
X23795Y145493D01*
X28185Y142959D01*
D02*
G37*
G36*
X23569Y140173D02*
X23489Y140065D01*
X23456Y140007D01*
X23424Y139966D01*
X23290Y139735D01*
X23236Y139612D01*
X23186Y139496D01*
X23146Y139382D01*
X23114Y139281D01*
X23081Y139181D01*
X23066Y139095D01*
X23051Y139010D01*
X23043Y138938D01*
X23040Y138872D01*
X23033Y138816D01*
X23034Y138772D01*
X23034Y138729D01*
X23036Y138703D01*
X23039Y138693D01*
X23041Y138682D01*
X23059Y138595D01*
X23088Y138511D01*
X23119Y138433D01*
X23155Y138361D01*
X23243Y138233D01*
X23333Y138121D01*
X23424Y138043D01*
X23465Y138011D01*
X23500Y137982D01*
X23528Y137957D01*
X23554Y137942D01*
X23567Y137935D01*
X23573Y137931D01*
X23722Y137863D01*
X23865Y137814D01*
X23998Y137780D01*
X24120Y137769D01*
X24230Y137766D01*
X24306Y137765D01*
X24359Y137768D01*
X24373Y137777D01*
X24379Y137773D01*
X24456Y137789D01*
X24524Y137818D01*
X24658Y137886D01*
X24769Y137975D01*
X24874Y138068D01*
X24953Y138160D01*
X24985Y138201D01*
X25007Y138240D01*
X25032Y138268D01*
X25058Y138313D01*
X25137Y138464D01*
X25203Y138622D01*
X25258Y138778D01*
X25300Y138925D01*
X25328Y139046D01*
X25344Y139105D01*
X25354Y139150D01*
X25356Y139183D01*
X25364Y139213D01*
X25365Y139229D01*
X25369Y139236D01*
X25888Y138936D01*
X25831Y138764D01*
X25769Y138612D01*
X25714Y138472D01*
X25658Y138360D01*
X25609Y138260D01*
X25593Y138218D01*
X25541Y138128D01*
X25446Y137978D01*
X25352Y137844D01*
X25258Y137727D01*
X25163Y137620D01*
X25074Y137526D01*
X24976Y137446D01*
X24892Y137375D01*
X24810Y137320D01*
X24730Y137272D01*
X24661Y137226D01*
X24593Y137197D01*
X24545Y137173D01*
X24498Y137150D01*
X24467Y137142D01*
X24447Y137136D01*
X24437Y137133D01*
X24319Y137107D01*
X24209Y137094D01*
X24093Y137084D01*
X23983Y137088D01*
X23878Y137097D01*
X23783Y137110D01*
X23603Y137154D01*
X23521Y137175D01*
X23450Y137199D01*
X23395Y137222D01*
X23340Y137246D01*
X23298Y137261D01*
X23266Y137280D01*
X23246Y137291D01*
X23240Y137295D01*
X23128Y137368D01*
X23027Y137443D01*
X22935Y137522D01*
X22858Y137609D01*
X22780Y137697D01*
X22715Y137777D01*
X22658Y137870D01*
X22610Y137949D01*
X22568Y138025D01*
X22532Y138096D01*
X22503Y138164D01*
X22483Y138219D01*
X22470Y138269D01*
X22455Y138303D01*
X22450Y138323D01*
X22447Y138334D01*
X22422Y138468D01*
X22413Y138601D01*
X22415Y138737D01*
X22433Y138872D01*
X22451Y139006D01*
X22485Y139140D01*
X22560Y139388D01*
X22600Y139501D01*
X22643Y139605D01*
X22688Y139698D01*
X22726Y139779D01*
X22753Y139840D01*
X22805Y139930D01*
X21651Y140596D01*
X20671Y138898D01*
X20158Y139194D01*
X21434Y141405D01*
X23569Y140173D01*
D02*
G37*
G36*
X22428Y146581D02*
X22069Y145960D01*
X20217Y147029D01*
X19884Y146452D01*
X21015Y144133D01*
X20574Y143370D01*
X19367Y146016D01*
X19253Y145936D01*
X19143Y145863D01*
X19043Y145810D01*
X18951Y145769D01*
X18873Y145737D01*
X18815Y145711D01*
X18775Y145700D01*
X18765Y145697D01*
X18651Y145677D01*
X18547Y145660D01*
X18440Y145654D01*
X18354Y145652D01*
X18278Y145653D01*
X18216Y145664D01*
X18183Y145666D01*
X18166Y145667D01*
X18058Y145686D01*
X17953Y145713D01*
X17859Y145741D01*
X17775Y145773D01*
X17707Y145804D01*
X17658Y145823D01*
X17626Y145842D01*
X17614Y145849D01*
X17537Y145894D01*
X17467Y145951D01*
X17338Y146068D01*
X17236Y146187D01*
X17150Y146305D01*
X17094Y146414D01*
X17070Y146462D01*
X17049Y146500D01*
X17035Y146534D01*
X17023Y146558D01*
X17020Y146568D01*
X17017Y146578D01*
X16993Y146669D01*
X16979Y146762D01*
X16978Y146865D01*
X16984Y146964D01*
X17026Y147171D01*
X17078Y147363D01*
X17113Y147454D01*
X17147Y147528D01*
X17182Y147602D01*
X17209Y147664D01*
X17232Y147719D01*
X18038Y149116D01*
X22428Y146581D01*
D02*
G37*
G36*
X19113Y143710D02*
X17977Y141743D01*
X19220Y141025D01*
X18902Y140474D01*
X17659Y141192D01*
X17318Y140602D01*
X16838Y140880D01*
X17178Y141469D01*
X14512Y143008D01*
X14830Y143560D01*
X18671Y143965D01*
X19113Y143710D01*
D02*
G37*
G36*
X16056Y149856D02*
X15697Y149235D01*
X13845Y150304D01*
X13512Y149727D01*
X14643Y147408D01*
X14202Y146646D01*
X12995Y149291D01*
X12881Y149211D01*
X12770Y149138D01*
X12671Y149085D01*
X12579Y149044D01*
X12501Y149012D01*
X12443Y148986D01*
X12403Y148975D01*
X12393Y148972D01*
X12279Y148952D01*
X12175Y148935D01*
X12068Y148929D01*
X11982Y148927D01*
X11906Y148928D01*
X11844Y148939D01*
X11811Y148941D01*
X11794Y148942D01*
X11686Y148961D01*
X11581Y148988D01*
X11487Y149017D01*
X11402Y149048D01*
X11335Y149079D01*
X11286Y149098D01*
X11254Y149117D01*
X11241Y149124D01*
X11164Y149169D01*
X11095Y149226D01*
X10966Y149343D01*
X10864Y149462D01*
X10778Y149580D01*
X10722Y149689D01*
X10698Y149737D01*
X10677Y149775D01*
X10662Y149809D01*
X10651Y149833D01*
X10648Y149843D01*
X10645Y149853D01*
X10621Y149944D01*
X10607Y150038D01*
X10606Y150140D01*
X10612Y150239D01*
X10654Y150446D01*
X10706Y150638D01*
X10741Y150729D01*
X10775Y150803D01*
X10809Y150877D01*
X10836Y150939D01*
X10860Y150994D01*
X11666Y152391D01*
X16056Y149856D01*
D02*
G37*
G36*
X9957Y148114D02*
X9769Y147966D01*
X9608Y147820D01*
X9471Y147686D01*
X9364Y147559D01*
X9314Y147503D01*
X9274Y147449D01*
X9242Y147407D01*
X9220Y147369D01*
X9195Y147341D01*
X9169Y147296D01*
X9094Y147151D01*
X9043Y147018D01*
X9016Y146897D01*
X9000Y146795D01*
X8997Y146703D01*
X8997Y146643D01*
X9004Y146596D01*
X9007Y146586D01*
X9043Y146471D01*
X9090Y146376D01*
X9155Y146295D01*
X9217Y146225D01*
X9280Y146172D01*
X9324Y146129D01*
X9363Y146107D01*
X9369Y146104D01*
X9376Y146100D01*
X9511Y146039D01*
X9635Y146001D01*
X9763Y145987D01*
X9879Y145980D01*
X9975Y145984D01*
X10059Y145996D01*
X10106Y146003D01*
X10126Y146008D01*
X10200Y146034D01*
X10276Y146076D01*
X10349Y146128D01*
X10421Y146180D01*
X10552Y146318D01*
X10677Y146459D01*
X10781Y146596D01*
X10825Y146656D01*
X10858Y146714D01*
X10894Y146761D01*
X10931Y146825D01*
X11052Y147020D01*
X11443Y146795D01*
X11232Y146429D01*
X11171Y146294D01*
X11117Y146171D01*
X11077Y146057D01*
X11045Y145957D01*
X11018Y145852D01*
X10997Y145770D01*
X10986Y145692D01*
X10978Y145619D01*
X10974Y145553D01*
X10977Y145500D01*
X10978Y145457D01*
X10986Y145426D01*
X10988Y145400D01*
X10987Y145383D01*
X10993Y145379D01*
X11015Y145299D01*
X11050Y145227D01*
X11119Y145093D01*
X11198Y144979D01*
X11282Y144888D01*
X11361Y144817D01*
X11428Y144770D01*
X11450Y144749D01*
X11469Y144738D01*
X11481Y144730D01*
X11488Y144726D01*
X11630Y144662D01*
X11777Y144620D01*
X11901Y144599D01*
X12021Y144598D01*
X12127Y144605D01*
X12201Y144614D01*
X12251Y144628D01*
X12271Y144633D01*
X12414Y144687D01*
X12538Y144770D01*
X12650Y144859D01*
X12738Y144953D01*
X12813Y145038D01*
X12842Y145073D01*
X12864Y145111D01*
X12889Y145140D01*
X12911Y145178D01*
X12983Y145333D01*
X13046Y145501D01*
X13104Y145690D01*
X13148Y145870D01*
X13167Y145962D01*
X13184Y146037D01*
X13202Y146112D01*
X13213Y146175D01*
X13219Y146230D01*
X13231Y146266D01*
X13230Y146293D01*
X13233Y146299D01*
X13778Y145985D01*
X13697Y145741D01*
X13621Y145520D01*
X13582Y145423D01*
X13543Y145326D01*
X13505Y145245D01*
X13471Y145171D01*
X13444Y145110D01*
X13417Y145048D01*
X13391Y145003D01*
X13372Y144955D01*
X13331Y144884D01*
X13239Y144741D01*
X13145Y144607D01*
X13052Y144490D01*
X12960Y144389D01*
X12865Y144299D01*
X12777Y144221D01*
X12691Y144160D01*
X12608Y144106D01*
X12535Y144054D01*
X12463Y144018D01*
X12405Y143992D01*
X12351Y143972D01*
X12307Y143955D01*
X12277Y143946D01*
X12256Y143941D01*
X12246Y143938D01*
X12132Y143919D01*
X12022Y143905D01*
X11913Y143909D01*
X11814Y143914D01*
X11623Y143939D01*
X11456Y143976D01*
X11385Y144000D01*
X11320Y144020D01*
X11258Y144047D01*
X11210Y144067D01*
X11174Y144079D01*
X11148Y144094D01*
X11129Y144105D01*
X11123Y144108D01*
X11024Y144174D01*
X10935Y144243D01*
X10859Y144303D01*
X10793Y144367D01*
X10744Y144430D01*
X10700Y144472D01*
X10682Y144500D01*
X10673Y144513D01*
X10615Y144606D01*
X10568Y144702D01*
X10527Y144794D01*
X10505Y144875D01*
X10490Y144952D01*
X10474Y145013D01*
X10470Y145050D01*
X10467Y145060D01*
X10457Y145176D01*
X10465Y145308D01*
X10483Y145443D01*
X10504Y145568D01*
X10527Y145683D01*
X10553Y145771D01*
X10561Y145800D01*
X10570Y145829D01*
X10570Y145846D01*
X10574Y145852D01*
X10459Y145756D01*
X10345Y145677D01*
X10242Y145617D01*
X10153Y145566D01*
X10077Y145524D01*
X10019Y145498D01*
X9985Y145483D01*
X9975Y145480D01*
X9870Y145447D01*
X9773Y145426D01*
X9689Y145415D01*
X9606Y145403D01*
X9542Y145397D01*
X9493Y145400D01*
X9460Y145402D01*
X9450Y145399D01*
X9354Y145412D01*
X9262Y145430D01*
X9178Y145462D01*
X9100Y145490D01*
X9032Y145520D01*
X8984Y145540D01*
X8952Y145558D01*
X8939Y145566D01*
X8860Y145620D01*
X8780Y145675D01*
X8661Y145795D01*
X8563Y145920D01*
X8490Y146047D01*
X8444Y146159D01*
X8416Y146244D01*
X8400Y146304D01*
X8391Y146318D01*
X8394Y146325D01*
X8380Y146418D01*
X8376Y146514D01*
X8405Y146712D01*
X8453Y146914D01*
X8511Y147103D01*
X8549Y147184D01*
X8580Y147268D01*
X8611Y147336D01*
X8644Y147394D01*
X8668Y147449D01*
X8704Y147513D01*
X8796Y147656D01*
X8837Y147727D01*
X8880Y147787D01*
X8916Y147835D01*
X8938Y147873D01*
X8959Y147895D01*
X8967Y147908D01*
X9028Y147984D01*
X9103Y148069D01*
X9184Y148150D01*
X9265Y148232D01*
X9339Y148300D01*
X9395Y148353D01*
X9416Y148375D01*
X9433Y148390D01*
X9447Y148400D01*
X9451Y148406D01*
X9957Y148114D01*
D02*
G37*
G36*
X-8623Y126566D02*
X-10110Y123990D01*
X-10578Y124260D01*
X-9450Y126215D01*
X-13372Y128479D01*
X-13013Y129101D01*
X-8623Y126566D01*
D02*
G37*
G36*
X-10491Y123330D02*
X-11986Y120741D01*
X-12454Y121011D01*
X-11318Y122978D01*
X-12907Y123896D01*
X-13799Y122351D01*
X-14267Y122622D01*
X-13375Y124166D01*
X-14772Y124973D01*
X-15834Y123133D01*
X-16302Y123403D01*
X-14881Y125864D01*
X-10491Y123330D01*
D02*
G37*
G36*
X-12393Y120036D02*
X-13240Y118568D01*
X-13332Y118424D01*
X-13420Y118287D01*
X-13517Y118164D01*
X-13606Y118053D01*
X-13692Y117949D01*
X-13787Y117858D01*
X-13868Y117777D01*
X-13948Y117712D01*
X-14018Y117650D01*
X-14091Y117598D01*
X-14146Y117562D01*
X-14195Y117522D01*
X-14243Y117498D01*
X-14270Y117480D01*
X-14284Y117471D01*
X-14294Y117468D01*
X-14519Y117375D01*
X-14735Y117312D01*
X-14942Y117278D01*
X-15126Y117256D01*
X-15292Y117249D01*
X-15362Y117247D01*
X-15418Y117253D01*
X-15461Y117253D01*
X-15494Y117255D01*
X-15521Y117253D01*
X-15527Y117257D01*
X-15770Y117295D01*
X-16009Y117355D01*
X-16223Y117428D01*
X-16415Y117496D01*
X-16502Y117537D01*
X-16576Y117572D01*
X-16644Y117602D01*
X-16701Y117636D01*
X-16750Y117655D01*
X-16782Y117674D01*
X-16801Y117685D01*
X-16807Y117688D01*
X-17037Y117838D01*
X-17240Y117989D01*
X-17325Y118064D01*
X-17410Y118139D01*
X-17479Y118213D01*
X-17551Y118280D01*
X-17607Y118346D01*
X-17656Y118409D01*
X-17696Y118458D01*
X-17730Y118503D01*
X-17761Y118538D01*
X-17779Y118565D01*
X-17785Y118586D01*
X-17791Y118589D01*
X-17898Y118788D01*
X-17983Y118982D01*
X-18038Y119168D01*
X-18078Y119336D01*
X-18099Y119476D01*
X-18105Y119540D01*
X-18109Y119593D01*
X-18113Y119630D01*
X-18111Y119663D01*
X-18117Y119683D01*
X-18113Y119690D01*
X-18110Y119799D01*
X-18093Y119917D01*
X-18038Y120159D01*
X-17961Y120396D01*
X-17868Y120616D01*
X-17822Y120726D01*
X-17777Y120820D01*
X-17739Y120900D01*
X-17698Y120971D01*
X-17671Y121032D01*
X-16783Y122570D01*
X-12393Y120036D01*
D02*
G37*
G36*
X-19163Y117442D02*
X-19566Y116743D01*
X-15612Y114460D01*
X-15949Y113877D01*
X-20377Y116434D01*
X-19528Y117653D01*
X-19163Y117442D01*
D02*
G37*
%LPC*%
G36*
X-45224Y104990D02*
X-45331Y104988D01*
X-45415Y104973D01*
X-45499Y104957D01*
X-45575Y104937D01*
X-45647Y104904D01*
X-45763Y104832D01*
X-45851Y104754D01*
X-45909Y104691D01*
X-45935Y104664D01*
X-45958Y104624D01*
X-45992Y104547D01*
X-46021Y104478D01*
X-46050Y104335D01*
X-46046Y104194D01*
X-46025Y104064D01*
X-45990Y103959D01*
X-45961Y103878D01*
X-45932Y103818D01*
X-45929Y103806D01*
X-45921Y103801D01*
X-45856Y103710D01*
X-45778Y103623D01*
X-45684Y103526D01*
X-45578Y103432D01*
X-45340Y103252D01*
X-45102Y103072D01*
X-44979Y102990D01*
X-44871Y102918D01*
X-44767Y102857D01*
X-44676Y102794D01*
X-44596Y102748D01*
X-44539Y102715D01*
X-44507Y102697D01*
X-44491Y102688D01*
X-44307Y102581D01*
X-44134Y102492D01*
X-43977Y102412D01*
X-43824Y102345D01*
X-43679Y102282D01*
X-43549Y102229D01*
X-43428Y102180D01*
X-43322Y102141D01*
X-43225Y102106D01*
X-43144Y102080D01*
X-43078Y102064D01*
X-43013Y102048D01*
X-42964Y102041D01*
X-42935Y102035D01*
X-42914Y102033D01*
X-42906Y102029D01*
X-42795Y102018D01*
X-42700Y102016D01*
X-42608Y102027D01*
X-42524Y102043D01*
X-42444Y102071D01*
X-42371Y102104D01*
X-42260Y102168D01*
X-42164Y102241D01*
X-42102Y102312D01*
X-42075Y102339D01*
X-42052Y102380D01*
X-42019Y102456D01*
X-41990Y102525D01*
X-41965Y102660D01*
X-41961Y102797D01*
X-41987Y102919D01*
X-42014Y103020D01*
X-42047Y103092D01*
X-42068Y103147D01*
X-42080Y103164D01*
X-42153Y103260D01*
X-42234Y103360D01*
X-42336Y103462D01*
X-42450Y103560D01*
X-42686Y103760D01*
X-42937Y103937D01*
X-43053Y104014D01*
X-43168Y104092D01*
X-43268Y104160D01*
X-43364Y104215D01*
X-43439Y104270D01*
X-43495Y104302D01*
X-43527Y104321D01*
X-43543Y104330D01*
X-43727Y104436D01*
X-43900Y104525D01*
X-44057Y104605D01*
X-44211Y104672D01*
X-44356Y104735D01*
X-44486Y104788D01*
X-44599Y104832D01*
X-44704Y104872D01*
X-44802Y104907D01*
X-44883Y104932D01*
X-44956Y104953D01*
X-45014Y104965D01*
X-45063Y104972D01*
X-45092Y104978D01*
X-45112Y104979D01*
X-45120Y104984D01*
X-45224Y104990D01*
D02*
G37*
G36*
X23904Y144602D02*
X23682Y144217D01*
X23603Y144066D01*
X23536Y143934D01*
X23489Y143824D01*
X23460Y143730D01*
X23443Y143655D01*
X23430Y143602D01*
X23417Y143567D01*
X23420Y143556D01*
X23412Y143467D01*
X23417Y143388D01*
X23429Y143321D01*
X23446Y143260D01*
X23465Y143206D01*
X23480Y143172D01*
X23492Y143148D01*
X23494Y143138D01*
X23534Y143072D01*
X23583Y143010D01*
X23633Y142964D01*
X23684Y142917D01*
X23731Y142881D01*
X23766Y142853D01*
X23791Y142838D01*
X23798Y142834D01*
X23933Y142773D01*
X24064Y142732D01*
X24195Y142708D01*
X24317Y142697D01*
X24420Y142698D01*
X24499Y142703D01*
X24553Y142706D01*
X24566Y142715D01*
X24573Y142711D01*
X24654Y142733D01*
X24726Y142769D01*
X24801Y142811D01*
X24874Y142863D01*
X25014Y142987D01*
X25135Y143122D01*
X25245Y143255D01*
X25289Y143315D01*
X25322Y143373D01*
X25354Y143414D01*
X25506Y143677D01*
X23904Y144602D01*
D02*
G37*
G36*
X18147Y148224D02*
X17925Y147839D01*
X17846Y147688D01*
X17779Y147556D01*
X17733Y147447D01*
X17704Y147352D01*
X17686Y147277D01*
X17673Y147225D01*
X17661Y147189D01*
X17663Y147179D01*
X17655Y147090D01*
X17660Y147010D01*
X17673Y146943D01*
X17689Y146882D01*
X17709Y146828D01*
X17723Y146794D01*
X17735Y146770D01*
X17738Y146760D01*
X17777Y146695D01*
X17826Y146632D01*
X17876Y146586D01*
X17927Y146540D01*
X17974Y146504D01*
X18009Y146475D01*
X18035Y146460D01*
X18041Y146457D01*
X18177Y146396D01*
X18307Y146354D01*
X18438Y146330D01*
X18560Y146319D01*
X18663Y146320D01*
X18743Y146325D01*
X18796Y146328D01*
X18810Y146338D01*
X18816Y146334D01*
X18897Y146355D01*
X18969Y146391D01*
X19044Y146433D01*
X19117Y146485D01*
X19257Y146609D01*
X19378Y146744D01*
X19489Y146877D01*
X19532Y146937D01*
X19565Y146995D01*
X19598Y147036D01*
X19749Y147299D01*
X18147Y148224D01*
D02*
G37*
G36*
X18303Y143417D02*
X15526Y143107D01*
X17474Y141982D01*
X18303Y143417D01*
D02*
G37*
G36*
X11775Y151499D02*
X11553Y151114D01*
X11474Y150963D01*
X11407Y150831D01*
X11360Y150722D01*
X11332Y150627D01*
X11314Y150552D01*
X11301Y150500D01*
X11289Y150464D01*
X11291Y150454D01*
X11283Y150365D01*
X11288Y150285D01*
X11300Y150218D01*
X11317Y150157D01*
X11337Y150103D01*
X11351Y150069D01*
X11363Y150045D01*
X11366Y150035D01*
X11405Y149970D01*
X11454Y149907D01*
X11504Y149861D01*
X11555Y149815D01*
X11602Y149779D01*
X11637Y149750D01*
X11663Y149735D01*
X11669Y149732D01*
X11805Y149671D01*
X11935Y149629D01*
X12066Y149605D01*
X12188Y149594D01*
X12291Y149595D01*
X12371Y149600D01*
X12424Y149603D01*
X12438Y149613D01*
X12444Y149609D01*
X12525Y149631D01*
X12597Y149666D01*
X12672Y149708D01*
X12745Y149760D01*
X12885Y149884D01*
X13006Y150020D01*
X13116Y150152D01*
X13160Y150212D01*
X13193Y150270D01*
X13226Y150311D01*
X13377Y150574D01*
X11775Y151499D01*
D02*
G37*
G36*
X-16674Y121679D02*
X-17063Y121006D01*
X-17135Y120851D01*
X-17210Y120706D01*
X-17261Y120573D01*
X-17315Y120450D01*
X-17351Y120343D01*
X-17377Y120239D01*
X-17406Y120144D01*
X-17424Y120069D01*
X-17432Y119997D01*
X-17442Y119934D01*
X-17451Y119888D01*
X-17447Y119852D01*
X-17455Y119822D01*
X-17446Y119809D01*
X-17450Y119802D01*
X-17430Y119629D01*
X-17383Y119473D01*
X-17333Y119324D01*
X-17273Y119205D01*
X-17217Y119095D01*
X-17165Y119023D01*
X-17147Y118995D01*
X-17135Y118971D01*
X-17126Y118957D01*
X-17119Y118954D01*
X-17002Y118817D01*
X-16883Y118697D01*
X-16757Y118590D01*
X-16633Y118493D01*
X-16532Y118418D01*
X-16487Y118392D01*
X-16446Y118359D01*
X-16414Y118341D01*
X-16388Y118326D01*
X-16375Y118319D01*
X-16369Y118315D01*
X-16173Y118210D01*
X-15982Y118126D01*
X-15803Y118066D01*
X-15644Y118016D01*
X-15569Y117999D01*
X-15510Y117982D01*
X-15451Y117965D01*
X-15402Y117962D01*
X-15366Y117950D01*
X-15333Y117948D01*
X-15317Y117947D01*
X-15310Y117943D01*
X-15122Y117929D01*
X-14950Y117931D01*
X-14793Y117952D01*
X-14665Y117981D01*
X-14554Y118010D01*
X-14476Y118042D01*
X-14421Y118062D01*
X-14411Y118065D01*
X-14407Y118071D01*
X-14338Y118117D01*
X-14269Y118163D01*
X-14139Y118284D01*
X-14012Y118416D01*
X-13908Y118552D01*
X-13814Y118685D01*
X-13774Y118739D01*
X-13744Y118791D01*
X-13712Y118832D01*
X-13220Y119684D01*
X-16674Y121679D01*
D02*
G37*
%LPD*%
D10*
X4452Y141128D02*
X6802Y145198D01*
X9735Y138078D02*
X12085Y142148D01*
X5548Y131026D02*
X7898Y135097D01*
X352Y134026D02*
X2702Y138097D01*
X6802Y145198D02*
X12085Y142148D01*
X352Y134026D02*
X5548Y131026D01*
X10452Y137628D02*
X12802Y141698D01*
X15735Y134578D02*
X18085Y138648D01*
X11548Y127526D02*
X13898Y131597D01*
X6352Y130526D02*
X8702Y134597D01*
X12802Y141698D02*
X18085Y138648D01*
X6352Y130526D02*
X11548Y127526D01*
X16452Y134128D02*
X18802Y138198D01*
X21735Y131078D02*
X24085Y135148D01*
X17548Y124026D02*
X19898Y128097D01*
X12352Y127026D02*
X14702Y131097D01*
X18802Y138198D02*
X24085Y135148D01*
X12352Y127026D02*
X17548Y124026D01*
X-5919Y121248D02*
X-2196Y121696D01*
X-10794Y112804D02*
X-5919Y121248D01*
X-10794Y112804D02*
X4794Y103804D01*
X10794Y114196D01*
X-2196Y121696D02*
X10794Y114196D01*
X-644Y114384D02*
X222Y113884D01*
X1088Y113384D01*
X722Y114750D02*
X1088Y113384D01*
X-1701Y113955D02*
X722Y114750D01*
X-1701Y113955D02*
X1627Y111918D01*
X-1865Y116890D02*
X3747Y113650D01*
X872Y115310D02*
X2043Y110939D01*
X-3300Y114024D02*
X2043Y110939D01*
X-3300Y114024D02*
X852Y115137D01*
X-1778Y110420D02*
X1972Y116915D01*
M02*
