G04*
G04 #@! TF.GenerationSoftware,Altium Limited,Altium Designer,20.2.8 (258)*
G04*
G04 Layer_Color=16711935*
%FSLAX25Y25*%
%MOIN*%
G70*
G04*
G04 #@! TF.SameCoordinates,CDCB3E45-2178-442F-9089-F16855EB5547*
G04*
G04*
G04 #@! TF.FilePolarity,Negative*
G04*
G01*
G75*
%ADD51C,0.07493*%
%ADD52C,0.09855*%
%ADD53C,0.13800*%
%ADD54P,0.10597X4X375.0*%
G04:AMPARAMS|DCode=55|XSize=106.42mil|YSize=55.24mil|CornerRadius=0mil|HoleSize=0mil|Usage=FLASHONLY|Rotation=150.000|XOffset=0mil|YOffset=0mil|HoleType=Round|Shape=Round|*
%AMOVALD55*
21,1,0.05118,0.05524,0.00000,0.00000,150.0*
1,1,0.05524,0.02216,-0.01280*
1,1,0.05524,-0.02216,0.01280*
%
%ADD55OVALD55*%

G04:AMPARAMS|DCode=66|XSize=46mil|YSize=43mil|CornerRadius=0mil|HoleSize=0mil|Usage=FLASHONLY|Rotation=240.000|XOffset=0mil|YOffset=0mil|HoleType=Round|Shape=Rectangle|*
%AMROTATEDRECTD66*
4,1,4,-0.00712,0.03067,0.03012,0.00917,0.00712,-0.03067,-0.03012,-0.00917,-0.00712,0.03067,0.0*
%
%ADD66ROTATEDRECTD66*%

G04:AMPARAMS|DCode=67|XSize=43.43mil|YSize=67.06mil|CornerRadius=0mil|HoleSize=0mil|Usage=FLASHONLY|Rotation=150.000|XOffset=0mil|YOffset=0mil|HoleType=Round|Shape=Rectangle|*
%AMROTATEDRECTD67*
4,1,4,0.03557,0.01818,0.00204,-0.03989,-0.03557,-0.01818,-0.00204,0.03989,0.03557,0.01818,0.0*
%
%ADD67ROTATEDRECTD67*%

D51*
X36500Y87840D02*
D03*
X-25833Y57368D02*
D03*
X-34691Y72711D02*
D03*
X53000Y116340D02*
D03*
D52*
X-14848Y58027D02*
D03*
X-28628Y81894D02*
D03*
D53*
X0Y160500D02*
D03*
Y20000D02*
D03*
X81200Y160500D02*
D03*
D54*
X41500Y96500D02*
D03*
X58000Y125000D02*
D03*
D55*
X18247Y52032D02*
D03*
X6435Y31574D02*
D03*
D66*
X4450Y135124D02*
D03*
X7900Y141100D02*
D03*
X10450Y131624D02*
D03*
X13900Y137600D02*
D03*
X16450Y128124D02*
D03*
X19900Y134100D02*
D03*
D67*
X5325Y122723D02*
D03*
X-131Y125873D02*
D03*
X10781Y119573D02*
D03*
X131Y101127D02*
D03*
X-10781Y107427D02*
D03*
X-5325Y104277D02*
D03*
M02*
