G04*
G04 #@! TF.GenerationSoftware,Altium Limited,Altium Designer,20.2.8 (258)*
G04*
G04 Layer_Color=128*
%FSLAX25Y25*%
%MOIN*%
G70*
G04*
G04 #@! TF.SameCoordinates,CDCB3E45-2178-442F-9089-F16855EB5547*
G04*
G04*
G04 #@! TF.FilePolarity,Positive*
G04*
G01*
G75*
%ADD68C,0.00200*%
D68*
X34728Y87840D02*
X38272D01*
X36500Y86068D02*
Y89611D01*
X-27604Y57368D02*
X-24061D01*
X-25833Y55596D02*
Y59140D01*
X-36463Y72711D02*
X-32919D01*
X-34691Y70939D02*
Y74483D01*
X-17407Y58027D02*
X-12289D01*
X-14848Y55468D02*
Y60586D01*
X-31187Y81894D02*
X-26069D01*
X-28628Y79335D02*
Y84453D01*
X-6000Y160500D02*
X6000D01*
X0Y154500D02*
Y166500D01*
X-6000Y20000D02*
X6000D01*
X0Y14000D02*
Y26000D01*
X75200Y160500D02*
X87200D01*
X81200Y154500D02*
Y166500D01*
X39728Y96500D02*
X43272D01*
X41500Y94728D02*
Y98272D01*
X17361Y52032D02*
X19132D01*
X18247Y51146D02*
Y52918D01*
X5550Y31574D02*
X7321D01*
X6435Y30689D02*
Y32460D01*
X56228Y125000D02*
X59772D01*
X58000Y123228D02*
Y126772D01*
X51228Y116340D02*
X54772D01*
X53000Y114568D02*
Y118111D01*
X-30800Y117500D02*
X-29600D01*
X-30200Y116900D02*
Y118100D01*
X-26900Y122100D02*
X-25700D01*
X-26300Y121500D02*
Y122700D01*
X45800Y88200D02*
X47000D01*
X46400Y87600D02*
Y88800D01*
X53200Y102700D02*
X54400D01*
X53800Y102100D02*
Y103300D01*
X71200Y132400D02*
X72400D01*
X71800Y131800D02*
Y133000D01*
X76600Y141300D02*
X77800D01*
X77200Y140700D02*
Y141900D01*
X25800Y124100D02*
X27000D01*
X26400Y123500D02*
Y124700D01*
X26600Y116700D02*
X27800D01*
X27200Y116100D02*
Y117300D01*
X11300Y111600D02*
X12500D01*
X11900Y111000D02*
Y112200D01*
X18800Y116700D02*
X20000D01*
X19400Y116100D02*
Y117300D01*
X18900Y124100D02*
X20100D01*
X19500Y123500D02*
Y124700D01*
X8400Y104700D02*
X9600D01*
X9000Y104100D02*
Y105300D01*
X12500Y143300D02*
X13700D01*
X13100Y142700D02*
Y143900D01*
X27100Y140300D02*
X28300D01*
X27700Y139700D02*
Y140900D01*
X26500Y132000D02*
X27700D01*
X27100Y131400D02*
Y132600D01*
X18800Y132300D02*
X20000D01*
X19400Y131700D02*
Y132900D01*
X19100Y142300D02*
X20300D01*
X19700Y141700D02*
Y142900D01*
X-3000Y121000D02*
X-1800D01*
X-2400Y120400D02*
Y121600D01*
X57900Y112000D02*
X59100D01*
X58500Y111400D02*
Y112600D01*
X64400Y122500D02*
X65600D01*
X65000Y121900D02*
Y123100D01*
X-11600Y31500D02*
X-10400D01*
X-11000Y30900D02*
Y32100D01*
X2400Y148000D02*
X3600D01*
X3000Y147400D02*
Y148600D01*
X43400Y139000D02*
X44600D01*
X44000Y138400D02*
Y139600D01*
X37400Y139000D02*
X38600D01*
X38000Y138400D02*
Y139600D01*
X79400Y150000D02*
X80600D01*
X80000Y149400D02*
Y150600D01*
X69400Y166000D02*
X70600D01*
X70000Y165400D02*
Y166600D01*
X59400Y166000D02*
X60600D01*
X60000Y165400D02*
Y166600D01*
X49400Y166000D02*
X50600D01*
X50000Y165400D02*
Y166600D01*
X39400Y166000D02*
X40600D01*
X40000Y165400D02*
Y166600D01*
X29400Y166000D02*
X30600D01*
X30000Y165400D02*
Y166600D01*
X19400Y166000D02*
X20600D01*
X20000Y165400D02*
Y166600D01*
X9400Y166000D02*
X10600D01*
X10000Y165400D02*
Y166600D01*
X-21100Y48000D02*
X-19900D01*
X-20500Y47400D02*
Y48600D01*
X-73600Y134000D02*
X-72400D01*
X-73000Y133400D02*
Y134600D01*
X-69600Y126500D02*
X-68400D01*
X-69000Y125900D02*
Y127100D01*
X-14600Y86000D02*
X-13400D01*
X-14000Y85400D02*
Y86600D01*
X-19600Y86000D02*
X-18400D01*
X-19000Y85400D02*
Y86600D01*
X-4600Y77000D02*
X-3400D01*
X-4000Y76400D02*
Y77600D01*
X6900Y91000D02*
X8100D01*
X7500Y90400D02*
Y91600D01*
X6900Y94500D02*
X8100D01*
X7500Y93900D02*
Y95100D01*
X3600Y109500D02*
X4800D01*
X4200Y108900D02*
Y110100D01*
X-18800Y99000D02*
X-17600D01*
X-18200Y98400D02*
Y99600D01*
X-200Y107400D02*
X1000D01*
X400Y106800D02*
Y108000D01*
X36300Y123400D02*
X37500D01*
X36900Y122800D02*
Y124000D01*
X26400Y107000D02*
X27600D01*
X27000Y106400D02*
Y107600D01*
X43400Y144000D02*
X44600D01*
X44000Y143400D02*
Y144600D01*
X37400Y144000D02*
X38600D01*
X38000Y143400D02*
Y144600D01*
X43400Y149000D02*
X44600D01*
X44000Y148400D02*
Y149600D01*
X37400Y149000D02*
X38600D01*
X38000Y148400D02*
Y149600D01*
X43400Y154000D02*
X44600D01*
X44000Y153400D02*
Y154600D01*
X37400Y154000D02*
X38600D01*
X38000Y153400D02*
Y154600D01*
X43400Y159000D02*
X44600D01*
X44000Y158400D02*
Y159600D01*
X37400Y159000D02*
X38600D01*
X38000Y158400D02*
Y159600D01*
X14900Y148000D02*
X16100D01*
X15500Y147400D02*
Y148600D01*
X11900Y148000D02*
X13100D01*
X12500Y147400D02*
Y148600D01*
X-1600Y140000D02*
X-400D01*
X-1000Y139400D02*
Y140600D01*
X-8100Y140000D02*
X-6900D01*
X-7500Y139400D02*
Y140600D01*
X-14600Y140000D02*
X-13400D01*
X-14000Y139400D02*
Y140600D01*
X-21600Y140000D02*
X-20400D01*
X-21000Y139400D02*
Y140600D01*
X-75600Y140000D02*
X-74400D01*
X-75000Y139400D02*
Y140600D01*
X-70600Y140000D02*
X-69400D01*
X-70000Y139400D02*
Y140600D01*
X-65600Y140000D02*
X-64400D01*
X-65000Y139400D02*
Y140600D01*
X-60600Y140000D02*
X-59400D01*
X-60000Y139400D02*
Y140600D01*
X-55600Y140000D02*
X-54400D01*
X-55000Y139400D02*
Y140600D01*
X-50600Y140000D02*
X-49400D01*
X-50000Y139400D02*
Y140600D01*
X-45600Y140000D02*
X-44400D01*
X-45000Y139400D02*
Y140600D01*
X-40600Y140000D02*
X-39400D01*
X-40000Y139400D02*
Y140600D01*
X-35600Y140000D02*
X-34400D01*
X-35000Y139400D02*
Y140600D01*
X-30600Y140000D02*
X-29400D01*
X-30000Y139400D02*
Y140600D01*
X-21800Y131400D02*
X-20600D01*
X-21200Y130800D02*
Y132000D01*
X-48400Y91600D02*
X-47200D01*
X-47800Y91000D02*
Y92200D01*
X-42200Y95000D02*
X-41000D01*
X-41600Y94400D02*
Y95600D01*
X-55300Y131000D02*
X-54100D01*
X-54700Y130400D02*
Y131600D01*
X-34200Y95200D02*
X-33000D01*
X-33600Y94600D02*
Y95800D01*
X-31000Y100600D02*
X-29800D01*
X-30400Y100000D02*
Y101200D01*
X-17000Y108200D02*
X-15800D01*
X-16400Y107600D02*
Y108800D01*
X-20100Y108200D02*
X-18900D01*
X-19500Y107600D02*
Y108800D01*
X-46800Y111700D02*
X-45600D01*
X-46200Y111100D02*
Y112300D01*
X-46900Y106300D02*
X-45700D01*
X-46300Y105700D02*
Y106900D01*
X-51300Y114100D02*
X-50100D01*
X-50700Y113500D02*
Y114700D01*
X-52700Y108300D02*
X-51500D01*
X-52100Y107700D02*
Y108900D01*
X-57900Y105300D02*
X-56700D01*
X-57300Y104700D02*
Y105900D01*
X-65600Y120400D02*
X-64400D01*
X-65000Y119800D02*
Y121000D01*
X-59300Y124100D02*
X-58100D01*
X-58700Y123500D02*
Y124700D01*
X-31800Y112000D02*
X-30600D01*
X-31200Y111400D02*
Y112600D01*
X-36000Y116700D02*
X-34800D01*
X-35400Y116100D02*
Y117300D01*
X-41200Y120100D02*
X-40000D01*
X-40600Y119500D02*
Y120700D01*
X-44900Y124500D02*
X-43700D01*
X-44300Y123900D02*
Y125100D01*
X-48500Y129700D02*
X-47300D01*
X-47900Y129100D02*
Y130300D01*
X-16800Y68000D02*
X-15600D01*
X-16200Y67400D02*
Y68600D01*
X24000Y85600D02*
X25200D01*
X24600Y85000D02*
Y86200D01*
X60400Y138900D02*
X61600D01*
X61000Y138300D02*
Y139500D01*
X62900Y140100D02*
X64100D01*
X63500Y139500D02*
Y140700D01*
X26400Y84200D02*
X27600D01*
X27000Y83600D02*
Y84800D01*
X21700Y86900D02*
X22900D01*
X22300Y86300D02*
Y87500D01*
X16800D02*
X18000D01*
X17400Y86900D02*
Y88100D01*
X15500Y85100D02*
X16700D01*
X16100Y84500D02*
Y85700D01*
X14300Y82700D02*
X15500D01*
X14900Y82100D02*
Y83300D01*
X13000Y80300D02*
X14200D01*
X13600Y79700D02*
Y80900D01*
X-20200Y74000D02*
X-19000D01*
X-19600Y73400D02*
Y74600D01*
X-21800Y101200D02*
X-20600D01*
X-21200Y100600D02*
Y101800D01*
X-26100Y100300D02*
X-24900D01*
X-25500Y99700D02*
Y100900D01*
M02*
